  0
SECTION
  2
HEADER
  9
$ACADVER
  1
AC1009
  9
$INSBASE
 10
0.0
 20
0.0
 30
0.0
  9
$EXTMIN
 10
0.0
 20
0.0
 30
0.0
  9
$EXTMAX
 10
0.0
 20
0.0
 30
0.0
  0
ENDSEC
  0
SECTION
  2
TABLES
  0
TABLE
  2
VPORT
 70
1
  0
VPORT
  2
*ACTIVE
 70
0
 10
0.0
 20
0.0
 11
1.0
 21
1.0
 12
-5.0
 22
1.0
 13
0.0
 23
0.0
 14
0.1
 24
0.1
 15
0.1
 25
0.1
 16
0.0
 26
0.0
 36
1.0
 17
0.0
 27
0.0
 37
0.0
 40
10.0
 41
1.0
 42
50.0
 43
0.0
 44
0.0
 50
0.0
 51
0.0
 71
0
 72
100
 73
1
 74
1
 75
0
 76
0
 77
0
 78
0
  0
ENDTAB
  0
TABLE
  2
LTYPE
 70
8
  0
LTYPE
  2
CONTINUOUS
 70
0
  3
Solid line
 72
65
 73
0
 40
0.0
  0
LTYPE
  2
DOT
 70
0
  3
. . . . . . .
 72
65
 73
2
 40
0.25
 49
0.0
 49
-0.25
  0
LTYPE
  2
DASHED
 70
0
  3
__ __ __ __ __
 72
65
 73
2
 40
0.8
 49
0.5
 49
-0.3
  0
LTYPE
  2
DASHDOT
 70
0
  3
__ . __ . __ .
 72
65
 73
4
 40
1.0
 49
0.5
 49
-0.25
 49
0.0
 49
-0.25
  0
LTYPE
  2
DIVIDE
 70
0
  3
____ . . ____ . . 
 72
65
 73
6
 40
1.25
 49
0.5
 49
-0.25
 49
0.0
 49
-0.25
 49
0.0
 49
-0.25
  0
LTYPE
  2
BORDER
 70
0
  3
__ __ . __ __ . 
 72
65
 73
6
 40
1.75
 49
0.5
 49
-0.25
 49
0.5
 49
-0.25
 49
0.0
 49
-0.25
  0
LTYPE
  2
HIDDEN
 70
0
  3
__ __ __ __ __
 72
65
 73
2
 40
0.4
 49
0.25
 49
-0.25
  0
LTYPE
  2
CENTER
 70
0
  3
____ _ ____ _ __
 72
65
 73
4
 40
2.0
 49
1.25
 49
-0.25
 49
0.25
 49
-0.25
  0
ENDTAB
  0
TABLE
  2
LAYER
 70
1
  0
LAYER
  2
PYDXF
 70
64
 62
7
  6
continuous
  0
ENDTAB
  0
TABLE
  2
STYLE
 70
1
  0
STYLE
  2
STANDARD
 70
0
 40
0
 41
1.0
 50
0.0
 71
0
 42
1
 3
ARIAL.TTF
 4

  0
ENDTAB
  0
TABLE
  2
VIEW
 70
1
  0
VIEW
  2
BF_TOPVIEW
 70
0
 40
120.0
 10
0.0
 20
0.0
 41
200.0
 11
0.0
 21
0.0
 31
1.0
 12
0.0
 22
0.0
 32
0.0
 42
50.0
 43
0.0
 44
0.0
 50
0.0
 71
0
  0
ENDTAB
  0
ENDSEC
  0
SECTION
  2
BLOCKS
  0
ENDSEC
  0
SECTION
  2
ENTITIES
  0
3DFACE
  8
0
 10
3.244572162628174
 20
3.5958504676818848
 30
0.075286865234375
 11
3.244572401046753
 21
3.5958504676818848
 31
0.7394256591796875
 12
3.248924970626831
 22
3.5905466079711914
 32
0.7394256591796875
 13
3.248924970626831
 23
3.5905466079711914
 33
0.075286865234375
  0
3DFACE
  8
0
 10
3.248924970626831
 20
3.5905466079711914
 30
0.075286865234375
 11
3.248924970626831
 21
3.5905466079711914
 31
0.7394256591796875
 12
3.252159357070923
 22
3.5844955444335938
 32
0.7394256591796875
 13
3.252159357070923
 23
3.5844955444335938
 33
0.075286865234375
  0
3DFACE
  8
0
 10
3.252159357070923
 20
3.5844955444335938
 30
0.075286865234375
 11
3.252159357070923
 21
3.5844955444335938
 31
0.7394256591796875
 12
3.2541511058807373
 22
3.577929735183716
 32
0.7394256591796875
 13
3.2541511058807373
 23
3.577929973602295
 33
0.075286865234375
  0
3DFACE
  8
0
 10
3.2541511058807373
 20
3.577929973602295
 30
0.075286865234375
 11
3.2541511058807373
 21
3.577929735183716
 31
0.7394256591796875
 12
3.2548234462738037
 22
3.571101665496826
 32
0.7394256591796875
 13
3.2548234462738037
 23
3.571101665496826
 33
0.075286865234375
  0
3DFACE
  8
0
 10
3.2548234462738037
 20
3.571101665496826
 30
0.075286865234375
 11
3.2548234462738037
 21
3.571101665496826
 31
0.7394256591796875
 12
3.2541511058807373
 22
3.5642733573913574
 32
0.7394256591796875
 13
3.2541511058807373
 23
3.5642733573913574
 33
0.075286865234375
  0
3DFACE
  8
0
 10
3.2541511058807373
 20
3.5642733573913574
 30
0.075286865234375
 11
3.2541511058807373
 21
3.5642733573913574
 31
0.7394256591796875
 12
3.252159357070923
 22
3.5577077865600586
 32
0.7394256591796875
 13
3.252159357070923
 23
3.5577077865600586
 33
0.075286865234375
  0
3DFACE
  8
0
 10
3.252159357070923
 20
3.5577077865600586
 30
0.075286865234375
 11
3.252159357070923
 21
3.5577077865600586
 31
0.7394256591796875
 12
3.248924970626831
 22
3.551656723022461
 32
0.7394256591796875
 13
3.248924970626831
 23
3.551656723022461
 33
0.075286865234375
  0
3DFACE
  8
0
 10
3.248924970626831
 20
3.551656723022461
 30
0.075286865234375
 11
3.248924970626831
 21
3.551656723022461
 31
0.7394256591796875
 12
3.244572162628174
 22
3.5463528633117676
 32
0.7394256591796875
 13
3.244572162628174
 23
3.5463528633117676
 33
0.075286865234375
  0
3DFACE
  8
0
 10
3.244572162628174
 20
3.5463528633117676
 30
0.075286865234375
 11
3.244572162628174
 21
3.5463528633117676
 31
0.7394256591796875
 12
3.2392685413360596
 22
3.5420002937316895
 32
0.7394256591796875
 13
3.2392685413360596
 23
3.5420002937316895
 33
0.075286865234375
  0
3DFACE
  8
0
 10
3.2392685413360596
 20
3.5420002937316895
 30
0.075286865234375
 11
3.2392685413360596
 21
3.5420002937316895
 31
0.7394256591796875
 12
3.233217477798462
 22
3.5387659072875977
 32
0.7394256591796875
 13
3.233217477798462
 23
3.5387659072875977
 33
0.075286865234375
  0
3DFACE
  8
0
 10
3.233217477798462
 20
3.5387659072875977
 30
0.075286865234375
 11
3.233217477798462
 21
3.5387659072875977
 31
0.7394256591796875
 12
3.226651668548584
 22
3.536774158477783
 32
0.7394256591796875
 13
3.226651668548584
 23
3.536774158477783
 33
0.075286865234375
  0
3DFACE
  8
0
 10
3.226651668548584
 20
3.536774158477783
 30
0.075286865234375
 11
3.226651668548584
 21
3.536774158477783
 31
0.7394256591796875
 12
3.2198235988616943
 22
3.536101818084717
 32
0.7394256591796875
 13
3.2198235988616943
 23
3.536101818084717
 33
0.075286865234375
  0
3DFACE
  8
0
 10
3.2198235988616943
 20
3.536101818084717
 30
0.075286865234375
 11
3.2198235988616943
 21
3.536101818084717
 31
0.7394256591796875
 12
3.2129955291748047
 22
3.536774158477783
 32
0.7394256591796875
 13
3.2129952907562256
 23
3.536774158477783
 33
0.075286865234375
  0
3DFACE
  8
0
 10
3.2129952907562256
 20
3.536774158477783
 30
0.075286865234375
 11
3.2129955291748047
 21
3.536774158477783
 31
0.7394256591796875
 12
3.2064297199249268
 22
3.5387659072875977
 32
0.7394256591796875
 13
3.2064297199249268
 23
3.5387659072875977
 33
0.075286865234375
  0
3DFACE
  8
0
 10
3.2064297199249268
 20
3.5387659072875977
 30
0.075286865234375
 11
3.2064297199249268
 21
3.5387659072875977
 31
0.7394256591796875
 12
3.200378656387329
 22
3.5420002937316895
 32
0.7394256591796875
 13
3.200378656387329
 23
3.5420002937316895
 33
0.075286865234375
  0
3DFACE
  8
0
 10
3.200378656387329
 20
3.5420002937316895
 30
0.075286865234375
 11
3.200378656387329
 21
3.5420002937316895
 31
0.7394256591796875
 12
3.1950747966766357
 22
3.5463528633117676
 32
0.7394256591796875
 13
3.1950747966766357
 23
3.5463528633117676
 33
0.075286865234375
  0
3DFACE
  8
0
 10
3.1950747966766357
 20
3.5463528633117676
 30
0.075286865234375
 11
3.1950747966766357
 21
3.5463528633117676
 31
0.7394256591796875
 12
3.1907222270965576
 22
3.551656723022461
 32
0.7394256591796875
 13
3.1907219886779785
 23
3.551656723022461
 33
0.075286865234375
  0
3DFACE
  8
0
 10
3.1907219886779785
 20
3.551656723022461
 30
0.075286865234375
 11
3.1907222270965576
 21
3.551656723022461
 31
0.7394256591796875
 12
3.187487840652466
 22
3.5577077865600586
 32
0.7394256591796875
 13
3.187487840652466
 23
3.5577077865600586
 33
0.075286865234375
  0
3DFACE
  8
0
 10
3.187487840652466
 20
3.5577077865600586
 30
0.075286865234375
 11
3.187487840652466
 21
3.5577077865600586
 31
0.7394256591796875
 12
3.1854960918426514
 22
3.5642733573913574
 32
0.7394256591796875
 13
3.1854960918426514
 23
3.5642733573913574
 33
0.075286865234375
  0
3DFACE
  8
0
 10
3.1854960918426514
 20
3.5642733573913574
 30
0.075286865234375
 11
3.1854960918426514
 21
3.5642733573913574
 31
0.7394256591796875
 12
3.184823513031006
 22
3.571101665496826
 32
0.7394256591796875
 13
3.184823513031006
 23
3.571101665496826
 33
0.075286865234375
  0
3DFACE
  8
0
 10
3.184823513031006
 20
3.571101665496826
 30
0.075286865234375
 11
3.184823513031006
 21
3.571101665496826
 31
0.7394256591796875
 12
3.1854960918426514
 22
3.5779294967651367
 32
0.7394256591796875
 13
3.1854960918426514
 23
3.577929973602295
 33
0.075286865234375
  0
3DFACE
  8
0
 10
3.1854960918426514
 20
3.577929973602295
 30
0.075286865234375
 11
3.1854960918426514
 21
3.5779294967651367
 31
0.7394256591796875
 12
3.1874876022338867
 22
3.5844955444335938
 32
0.7394256591796875
 13
3.187487840652466
 23
3.5844955444335938
 33
0.075286865234375
  0
3DFACE
  8
0
 10
3.187487840652466
 20
3.5844955444335938
 30
0.075286865234375
 11
3.1874876022338867
 21
3.5844955444335938
 31
0.7394256591796875
 12
3.1907219886779785
 22
3.5905466079711914
 32
0.7394256591796875
 13
3.1907222270965576
 23
3.5905466079711914
 33
0.075286865234375
  0
3DFACE
  8
0
 10
3.1907222270965576
 20
3.5905466079711914
 30
0.075286865234375
 11
3.1907219886779785
 21
3.5905466079711914
 31
0.7394256591796875
 12
3.1950745582580566
 22
3.5958502292633057
 32
0.7394256591796875
 13
3.1950747966766357
 23
3.5958504676818848
 33
0.075286865234375
  0
3DFACE
  8
0
 10
3.1950747966766357
 20
3.5958504676818848
 30
0.075286865234375
 11
3.1950745582580566
 21
3.5958502292633057
 31
0.7394256591796875
 12
3.20037841796875
 22
3.600203037261963
 32
0.7394256591796875
 13
3.200378656387329
 23
3.600203037261963
 33
0.075286865234375
  0
3DFACE
  8
0
 10
3.200378656387329
 20
3.600203037261963
 30
0.075286865234375
 11
3.20037841796875
 21
3.600203037261963
 31
0.7394256591796875
 12
3.2064294815063477
 22
3.6034374237060547
 32
0.7394256591796875
 13
3.2064297199249268
 23
3.6034374237060547
 33
0.075286865234375
  0
3DFACE
  8
0
 10
3.2064297199249268
 20
3.6034374237060547
 30
0.075286865234375
 11
3.2064294815063477
 21
3.6034374237060547
 31
0.7394256591796875
 12
3.2129950523376465
 22
3.605429172515869
 32
0.7394256591796875
 13
3.2129955291748047
 23
3.605429172515869
 33
0.075286865234375
  0
3DFACE
  8
0
 10
3.2129955291748047
 20
3.605429172515869
 30
0.075286865234375
 11
3.2129950523376465
 21
3.605429172515869
 31
0.7394256591796875
 12
3.2198233604431152
 22
3.6061015129089355
 32
0.7394256591796875
 13
3.2198235988616943
 23
3.6061015129089355
 33
0.075286865234375
  0
3DFACE
  8
0
 10
3.2198235988616943
 20
3.6061015129089355
 30
0.075286865234375
 11
3.2198233604431152
 21
3.6061015129089355
 31
0.7394256591796875
 12
3.226651430130005
 22
3.605429172515869
 32
0.7394256591796875
 13
3.226651668548584
 23
3.605429172515869
 33
0.075286865234375
  0
3DFACE
  8
0
 10
3.226651668548584
 20
3.605429172515869
 30
0.075286865234375
 11
3.226651430130005
 21
3.605429172515869
 31
0.7394256591796875
 12
3.233217239379883
 22
3.6034374237060547
 32
0.7394256591796875
 13
3.233217477798462
 23
3.6034374237060547
 33
0.075286865234375
  0
3DFACE
  8
0
 10
3.233217477798462
 20
3.6034374237060547
 30
0.075286865234375
 11
3.233217239379883
 21
3.6034374237060547
 31
0.7394256591796875
 12
3.2392683029174805
 22
3.600203275680542
 32
0.7394256591796875
 13
3.2392685413360596
 23
3.600203037261963
 33
0.075286865234375
  0
3DFACE
  8
0
 10
3.244572401046753
 20
3.5958504676818848
 30
0.7394256591796875
 11
3.244572162628174
 21
3.5958504676818848
 31
0.075286865234375
 12
3.2392685413360596
 22
3.600203037261963
 32
0.075286865234375
 13
3.2392683029174805
 23
3.600203275680542
 33
0.7394256591796875
  0
3DFACE
  8
0
 10
3.244572162628174
 20
3.5958504676818848
 30
0.075286865234375
 11
3.248924970626831
 21
3.5905466079711914
 31
0.075286865234375
 12
3.242250680923462
 22
3.5860869884490967
 32
0.075286865234375
 13
3.238896369934082
 23
3.590174436569214
 33
0.075286865234375
  0
3DFACE
  8
0
 10
3.248924970626831
 20
3.5905466079711914
 30
0.075286865234375
 11
3.252159357070923
 21
3.5844955444335938
 31
0.075286865234375
 12
3.2447433471679688
 22
3.581423759460449
 32
0.075286865234375
 13
3.242250680923462
 23
3.5860869884490967
 33
0.075286865234375
  0
3DFACE
  8
0
 10
3.252159357070923
 20
3.5844955444335938
 30
0.075286865234375
 11
3.2541511058807373
 21
3.577929973602295
 31
0.075286865234375
 12
3.2462782859802246
 22
3.5763638019561768
 32
0.075286865234375
 13
3.2447433471679688
 23
3.581423759460449
 33
0.075286865234375
  0
3DFACE
  8
0
 10
3.2541511058807373
 20
3.577929973602295
 30
0.075286865234375
 11
3.2548234462738037
 21
3.571101665496826
 31
0.075286865234375
 12
3.2467966079711914
 22
3.571101665496826
 32
0.075286865234375
 13
3.2462782859802246
 23
3.5763638019561768
 33
0.075286865234375
  0
3DFACE
  8
0
 10
3.2548234462738037
 20
3.571101665496826
 30
0.075286865234375
 11
3.2541511058807373
 21
3.5642733573913574
 31
0.075286865234375
 12
3.2462782859802246
 22
3.5658395290374756
 32
0.075286865234375
 13
3.2467966079711914
 23
3.571101665496826
 33
0.075286865234375
  0
3DFACE
  8
0
 10
3.2541511058807373
 20
3.5642733573913574
 30
0.075286865234375
 11
3.252159357070923
 21
3.5577077865600586
 31
0.075286865234375
 12
3.2447433471679688
 22
3.560779571533203
 32
0.075286865234375
 13
3.2462782859802246
 23
3.5658395290374756
 33
0.075286865234375
  0
3DFACE
  8
0
 10
3.252159357070923
 20
3.5577077865600586
 30
0.075286865234375
 11
3.248924970626831
 21
3.551656723022461
 31
0.075286865234375
 12
3.242250680923462
 22
3.5561163425445557
 32
0.075286865234375
 13
3.2447433471679688
 23
3.560779571533203
 33
0.075286865234375
  0
3DFACE
  8
0
 10
3.248924970626831
 20
3.551656723022461
 30
0.075286865234375
 11
3.244572162628174
 21
3.5463528633117676
 31
0.075286865234375
 12
3.238896369934082
 22
3.5520288944244385
 32
0.075286865234375
 13
3.242250680923462
 23
3.5561163425445557
 33
0.075286865234375
  0
3DFACE
  8
0
 10
3.244572162628174
 20
3.5463528633117676
 30
0.075286865234375
 11
3.2392685413360596
 21
3.5420002937316895
 31
0.075286865234375
 12
3.234808921813965
 22
3.5486745834350586
 32
0.075286865234375
 13
3.238896369934082
 23
3.5520288944244385
 33
0.075286865234375
  0
3DFACE
  8
0
 10
3.2392685413360596
 20
3.5420002937316895
 30
0.075286865234375
 11
3.233217477798462
 21
3.5387659072875977
 31
0.075286865234375
 12
3.2301456928253174
 22
3.5461819171905518
 32
0.075286865234375
 13
3.234808921813965
 23
3.5486745834350586
 33
0.075286865234375
  0
3DFACE
  8
0
 10
3.233217477798462
 20
3.5387659072875977
 30
0.075286865234375
 11
3.226651668548584
 21
3.536774158477783
 31
0.075286865234375
 12
3.225085735321045
 22
3.544646978378296
 32
0.075286865234375
 13
3.2301456928253174
 23
3.5461819171905518
 33
0.075286865234375
  0
3DFACE
  8
0
 10
3.226651668548584
 20
3.536774158477783
 30
0.075286865234375
 11
3.2198235988616943
 21
3.536101818084717
 31
0.075286865234375
 12
3.2198235988616943
 22
3.544128656387329
 32
0.075286865234375
 13
3.225085735321045
 23
3.544646978378296
 33
0.075286865234375
  0
3DFACE
  8
0
 10
3.2198235988616943
 20
3.536101818084717
 30
0.075286865234375
 11
3.2129952907562256
 21
3.536774158477783
 31
0.075286865234375
 12
3.2145614624023438
 22
3.544646978378296
 32
0.075286865234375
 13
3.2198235988616943
 23
3.544128656387329
 33
0.075286865234375
  0
3DFACE
  8
0
 10
3.2129952907562256
 20
3.536774158477783
 30
0.075286865234375
 11
3.2064297199249268
 21
3.5387659072875977
 31
0.075286865234375
 12
3.2095015048980713
 22
3.5461819171905518
 32
0.075286865234375
 13
3.2145614624023438
 23
3.544646978378296
 33
0.075286865234375
  0
3DFACE
  8
0
 10
3.2064297199249268
 20
3.5387659072875977
 30
0.075286865234375
 11
3.200378656387329
 21
3.5420002937316895
 31
0.075286865234375
 12
3.2048380374908447
 22
3.5486745834350586
 32
0.075286865234375
 13
3.2095015048980713
 23
3.5461819171905518
 33
0.075286865234375
  0
3DFACE
  8
0
 10
3.200378656387329
 20
3.5420002937316895
 30
0.075286865234375
 11
3.1950747966766357
 21
3.5463528633117676
 31
0.075286865234375
 12
3.2007508277893066
 22
3.5520288944244385
 32
0.075286865234375
 13
3.2048380374908447
 23
3.5486745834350586
 33
0.075286865234375
  0
3DFACE
  8
0
 10
3.1950747966766357
 20
3.5463528633117676
 30
0.075286865234375
 11
3.1907219886779785
 21
3.551656723022461
 31
0.075286865234375
 12
3.1973962783813477
 22
3.5561163425445557
 32
0.075286865234375
 13
3.2007508277893066
 23
3.5520288944244385
 33
0.075286865234375
  0
3DFACE
  8
0
 10
3.1907219886779785
 20
3.551656723022461
 30
0.075286865234375
 11
3.187487840652466
 21
3.5577077865600586
 31
0.075286865234375
 12
3.19490385055542
 22
3.560779571533203
 32
0.075286865234375
 13
3.1973962783813477
 23
3.5561163425445557
 33
0.075286865234375
  0
3DFACE
  8
0
 10
3.187487840652466
 20
3.5577077865600586
 30
0.075286865234375
 11
3.1854960918426514
 21
3.5642733573913574
 31
0.075286865234375
 12
3.193368911743164
 22
3.5658395290374756
 32
0.075286865234375
 13
3.19490385055542
 23
3.560779571533203
 33
0.075286865234375
  0
3DFACE
  8
0
 10
3.1854960918426514
 20
3.5642733573913574
 30
0.075286865234375
 11
3.184823513031006
 21
3.571101665496826
 31
0.075286865234375
 12
3.1928505897521973
 22
3.571101665496826
 32
0.075286865234375
 13
3.193368911743164
 23
3.5658395290374756
 33
0.075286865234375
  0
3DFACE
  8
0
 10
3.184823513031006
 20
3.571101665496826
 30
0.075286865234375
 11
3.1854960918426514
 21
3.577929973602295
 31
0.075286865234375
 12
3.193368911743164
 22
3.5763638019561768
 32
0.075286865234375
 13
3.1928505897521973
 23
3.571101665496826
 33
0.075286865234375
  0
3DFACE
  8
0
 10
3.1854960918426514
 20
3.577929973602295
 30
0.075286865234375
 11
3.187487840652466
 21
3.5844955444335938
 31
0.075286865234375
 12
3.19490385055542
 22
3.581423759460449
 32
0.075286865234375
 13
3.193368911743164
 23
3.5763638019561768
 33
0.075286865234375
  0
3DFACE
  8
0
 10
3.187487840652466
 20
3.5844955444335938
 30
0.075286865234375
 11
3.1907222270965576
 21
3.5905466079711914
 31
0.075286865234375
 12
3.1973962783813477
 22
3.586087226867676
 32
0.075286865234375
 13
3.19490385055542
 23
3.581423759460449
 33
0.075286865234375
  0
3DFACE
  8
0
 10
3.1907222270965576
 20
3.5905466079711914
 30
0.075286865234375
 11
3.1950747966766357
 21
3.5958504676818848
 31
0.075286865234375
 12
3.2007508277893066
 22
3.590174436569214
 32
0.075286865234375
 13
3.1973962783813477
 23
3.586087226867676
 33
0.075286865234375
  0
3DFACE
  8
0
 10
3.1950747966766357
 20
3.5958504676818848
 30
0.075286865234375
 11
3.200378656387329
 21
3.600203037261963
 31
0.075286865234375
 12
3.204838275909424
 22
3.5935287475585938
 32
0.075286865234375
 13
3.2007508277893066
 23
3.590174436569214
 33
0.075286865234375
  0
3DFACE
  8
0
 10
3.200378656387329
 20
3.600203037261963
 30
0.075286865234375
 11
3.2064297199249268
 21
3.6034374237060547
 31
0.075286865234375
 12
3.2095015048980713
 22
3.5960214138031006
 32
0.075286865234375
 13
3.204838275909424
 23
3.5935287475585938
 33
0.075286865234375
  0
3DFACE
  8
0
 10
3.2064297199249268
 20
3.6034374237060547
 30
0.075286865234375
 11
3.2129955291748047
 21
3.605429172515869
 31
0.075286865234375
 12
3.2145614624023438
 22
3.5975563526153564
 32
0.075286865234375
 13
3.2095015048980713
 23
3.5960214138031006
 33
0.075286865234375
  0
3DFACE
  8
0
 10
3.2129955291748047
 20
3.605429172515869
 30
0.075286865234375
 11
3.2198235988616943
 21
3.6061015129089355
 31
0.075286865234375
 12
3.2198235988616943
 22
3.5980746746063232
 32
0.075286865234375
 13
3.2145614624023438
 23
3.5975563526153564
 33
0.075286865234375
  0
3DFACE
  8
0
 10
3.2198235988616943
 20
3.6061015129089355
 30
0.075286865234375
 11
3.226651668548584
 21
3.605429172515869
 31
0.075286865234375
 12
3.225085735321045
 22
3.5975563526153564
 32
0.075286865234375
 13
3.2198235988616943
 23
3.5980746746063232
 33
0.075286865234375
  0
3DFACE
  8
0
 10
3.226651668548584
 20
3.605429172515869
 30
0.075286865234375
 11
3.233217477798462
 21
3.6034374237060547
 31
0.075286865234375
 12
3.2301456928253174
 22
3.5960214138031006
 32
0.075286865234375
 13
3.225085735321045
 23
3.5975563526153564
 33
0.075286865234375
  0
3DFACE
  8
0
 10
3.233217477798462
 20
3.6034374237060547
 30
0.075286865234375
 11
3.2392685413360596
 21
3.600203037261963
 31
0.075286865234375
 12
3.234808921813965
 22
3.5935287475585938
 32
0.075286865234375
 13
3.2301456928253174
 23
3.5960214138031006
 33
0.075286865234375
  0
3DFACE
  8
0
 10
3.2392685413360596
 20
3.600203037261963
 30
0.075286865234375
 11
3.244572162628174
 21
3.5958504676818848
 31
0.075286865234375
 12
3.238896369934082
 22
3.590174436569214
 32
0.075286865234375
 13
3.234808921813965
 23
3.5935287475585938
 33
0.075286865234375
  0
3DFACE
  8
0
 10
3.238896369934082
 20
3.590174436569214
 30
0.075286865234375
 11
3.242250680923462
 21
3.5860869884490967
 31
0.075286865234375
 12
3.242250680923462
 22
3.5860869884490967
 32
0.05862903594970703
 13
3.238896369934082
 23
3.590174436569214
 33
0.05862903594970703
  0
3DFACE
  8
0
 10
3.242250680923462
 20
3.5860869884490967
 30
0.075286865234375
 11
3.2447433471679688
 21
3.581423759460449
 31
0.075286865234375
 12
3.2447433471679688
 22
3.581423759460449
 32
0.05862903594970703
 13
3.242250680923462
 23
3.5860869884490967
 33
0.05862903594970703
  0
3DFACE
  8
0
 10
3.2447433471679688
 20
3.581423759460449
 30
0.075286865234375
 11
3.2462782859802246
 21
3.5763638019561768
 31
0.075286865234375
 12
3.2462782859802246
 22
3.5763638019561768
 32
0.05862903594970703
 13
3.2447433471679688
 23
3.581423759460449
 33
0.05862903594970703
  0
3DFACE
  8
0
 10
3.2462782859802246
 20
3.5763638019561768
 30
0.075286865234375
 11
3.2467966079711914
 21
3.571101665496826
 31
0.075286865234375
 12
3.2467966079711914
 22
3.571101665496826
 32
0.05862903594970703
 13
3.2462782859802246
 23
3.5763638019561768
 33
0.05862903594970703
  0
3DFACE
  8
0
 10
3.2467966079711914
 20
3.571101665496826
 30
0.075286865234375
 11
3.2462782859802246
 21
3.5658395290374756
 31
0.075286865234375
 12
3.2462782859802246
 22
3.5658395290374756
 32
0.05862903594970703
 13
3.2467966079711914
 23
3.571101665496826
 33
0.05862903594970703
  0
3DFACE
  8
0
 10
3.2462782859802246
 20
3.5658395290374756
 30
0.075286865234375
 11
3.2447433471679688
 21
3.560779571533203
 31
0.075286865234375
 12
3.2447433471679688
 22
3.560779571533203
 32
0.05862903594970703
 13
3.2462782859802246
 23
3.5658395290374756
 33
0.05862903594970703
  0
3DFACE
  8
0
 10
3.2447433471679688
 20
3.560779571533203
 30
0.075286865234375
 11
3.242250680923462
 21
3.5561163425445557
 31
0.075286865234375
 12
3.242250680923462
 22
3.5561163425445557
 32
0.05862903594970703
 13
3.2447433471679688
 23
3.560779571533203
 33
0.05862903594970703
  0
3DFACE
  8
0
 10
3.242250680923462
 20
3.5561163425445557
 30
0.075286865234375
 11
3.238896369934082
 21
3.5520288944244385
 31
0.075286865234375
 12
3.238896369934082
 22
3.5520288944244385
 32
0.05862903594970703
 13
3.242250680923462
 23
3.5561163425445557
 33
0.05862903594970703
  0
3DFACE
  8
0
 10
3.238896369934082
 20
3.5520288944244385
 30
0.075286865234375
 11
3.234808921813965
 21
3.5486745834350586
 31
0.075286865234375
 12
3.234808921813965
 22
3.5486745834350586
 32
0.05862903594970703
 13
3.238896369934082
 23
3.5520288944244385
 33
0.05862903594970703
  0
3DFACE
  8
0
 10
3.234808921813965
 20
3.5486745834350586
 30
0.075286865234375
 11
3.2301456928253174
 21
3.5461819171905518
 31
0.075286865234375
 12
3.2301456928253174
 22
3.5461819171905518
 32
0.05862903594970703
 13
3.234808921813965
 23
3.5486745834350586
 33
0.05862903594970703
  0
3DFACE
  8
0
 10
3.2301456928253174
 20
3.5461819171905518
 30
0.075286865234375
 11
3.225085735321045
 21
3.544646978378296
 31
0.075286865234375
 12
3.225085735321045
 22
3.544646978378296
 32
0.05862903594970703
 13
3.2301456928253174
 23
3.5461819171905518
 33
0.05862903594970703
  0
3DFACE
  8
0
 10
3.225085735321045
 20
3.544646978378296
 30
0.075286865234375
 11
3.2198235988616943
 21
3.544128656387329
 31
0.075286865234375
 12
3.2198235988616943
 22
3.544128656387329
 32
0.05862903594970703
 13
3.225085735321045
 23
3.544646978378296
 33
0.05862903594970703
  0
3DFACE
  8
0
 10
3.2198235988616943
 20
3.544128656387329
 30
0.075286865234375
 11
3.2145614624023438
 21
3.544646978378296
 31
0.075286865234375
 12
3.2145614624023438
 22
3.544646978378296
 32
0.05862903594970703
 13
3.2198235988616943
 23
3.544128656387329
 33
0.05862903594970703
  0
3DFACE
  8
0
 10
3.2145614624023438
 20
3.544646978378296
 30
0.075286865234375
 11
3.2095015048980713
 21
3.5461819171905518
 31
0.075286865234375
 12
3.2095015048980713
 22
3.5461819171905518
 32
0.05862903594970703
 13
3.2145614624023438
 23
3.544646978378296
 33
0.05862903594970703
  0
3DFACE
  8
0
 10
3.2095015048980713
 20
3.5461819171905518
 30
0.075286865234375
 11
3.2048380374908447
 21
3.5486745834350586
 31
0.075286865234375
 12
3.2048380374908447
 22
3.5486745834350586
 32
0.05862903594970703
 13
3.2095015048980713
 23
3.5461819171905518
 33
0.05862903594970703
  0
3DFACE
  8
0
 10
3.2048380374908447
 20
3.5486745834350586
 30
0.075286865234375
 11
3.2007508277893066
 21
3.5520288944244385
 31
0.075286865234375
 12
3.2007508277893066
 22
3.5520288944244385
 32
0.05862903594970703
 13
3.2048380374908447
 23
3.5486745834350586
 33
0.05862903594970703
  0
3DFACE
  8
0
 10
3.2007508277893066
 20
3.5520288944244385
 30
0.075286865234375
 11
3.1973962783813477
 21
3.5561163425445557
 31
0.075286865234375
 12
3.1973962783813477
 22
3.5561163425445557
 32
0.05862903594970703
 13
3.2007508277893066
 23
3.5520288944244385
 33
0.05862903594970703
  0
3DFACE
  8
0
 10
3.1973962783813477
 20
3.5561163425445557
 30
0.075286865234375
 11
3.19490385055542
 21
3.560779571533203
 31
0.075286865234375
 12
3.19490385055542
 22
3.560779571533203
 32
0.05862903594970703
 13
3.1973962783813477
 23
3.5561163425445557
 33
0.05862903594970703
  0
3DFACE
  8
0
 10
3.19490385055542
 20
3.560779571533203
 30
0.075286865234375
 11
3.193368911743164
 21
3.5658395290374756
 31
0.075286865234375
 12
3.193368911743164
 22
3.5658395290374756
 32
0.05862903594970703
 13
3.19490385055542
 23
3.560779571533203
 33
0.05862903594970703
  0
3DFACE
  8
0
 10
3.193368911743164
 20
3.5658395290374756
 30
0.075286865234375
 11
3.1928505897521973
 21
3.571101665496826
 31
0.075286865234375
 12
3.1928505897521973
 22
3.571101665496826
 32
0.05862903594970703
 13
3.193368911743164
 23
3.5658395290374756
 33
0.05862903594970703
  0
3DFACE
  8
0
 10
3.1928505897521973
 20
3.571101665496826
 30
0.075286865234375
 11
3.193368911743164
 21
3.5763638019561768
 31
0.075286865234375
 12
3.193368911743164
 22
3.5763638019561768
 32
0.05862903594970703
 13
3.1928505897521973
 23
3.571101665496826
 33
0.05862903594970703
  0
3DFACE
  8
0
 10
3.193368911743164
 20
3.5763638019561768
 30
0.075286865234375
 11
3.19490385055542
 21
3.581423759460449
 31
0.075286865234375
 12
3.19490385055542
 22
3.581423759460449
 32
0.05862903594970703
 13
3.193368911743164
 23
3.5763638019561768
 33
0.05862903594970703
  0
3DFACE
  8
0
 10
3.19490385055542
 20
3.581423759460449
 30
0.075286865234375
 11
3.1973962783813477
 21
3.586087226867676
 31
0.075286865234375
 12
3.1973962783813477
 22
3.586087226867676
 32
0.05862903594970703
 13
3.19490385055542
 23
3.581423759460449
 33
0.05862903594970703
  0
3DFACE
  8
0
 10
3.1973962783813477
 20
3.586087226867676
 30
0.075286865234375
 11
3.2007508277893066
 21
3.590174436569214
 31
0.075286865234375
 12
3.2007508277893066
 22
3.590174436569214
 32
0.05862903594970703
 13
3.1973962783813477
 23
3.586087226867676
 33
0.05862903594970703
  0
3DFACE
  8
0
 10
3.2007508277893066
 20
3.590174436569214
 30
0.075286865234375
 11
3.204838275909424
 21
3.5935287475585938
 31
0.075286865234375
 12
3.204838275909424
 22
3.5935287475585938
 32
0.05862903594970703
 13
3.2007508277893066
 23
3.590174436569214
 33
0.05862903594970703
  0
3DFACE
  8
0
 10
3.204838275909424
 20
3.5935287475585938
 30
0.075286865234375
 11
3.2095015048980713
 21
3.5960214138031006
 31
0.075286865234375
 12
3.2095015048980713
 22
3.5960214138031006
 32
0.05862903594970703
 13
3.204838275909424
 23
3.5935287475585938
 33
0.05862903594970703
  0
3DFACE
  8
0
 10
3.2095015048980713
 20
3.5960214138031006
 30
0.075286865234375
 11
3.2145614624023438
 21
3.5975563526153564
 31
0.075286865234375
 12
3.2145614624023438
 22
3.5975563526153564
 32
0.05862903594970703
 13
3.2095015048980713
 23
3.5960214138031006
 33
0.05862903594970703
  0
3DFACE
  8
0
 10
3.2145614624023438
 20
3.5975563526153564
 30
0.075286865234375
 11
3.2198235988616943
 21
3.5980746746063232
 31
0.075286865234375
 12
3.2198235988616943
 22
3.5980746746063232
 32
0.05862903594970703
 13
3.2145614624023438
 23
3.5975563526153564
 33
0.05862903594970703
  0
3DFACE
  8
0
 10
3.2198235988616943
 20
3.5980746746063232
 30
0.075286865234375
 11
3.225085735321045
 21
3.5975563526153564
 31
0.075286865234375
 12
3.225085735321045
 22
3.5975563526153564
 32
0.05862903594970703
 13
3.2198235988616943
 23
3.5980746746063232
 33
0.05862903594970703
  0
3DFACE
  8
0
 10
3.225085735321045
 20
3.5975563526153564
 30
0.075286865234375
 11
3.2301456928253174
 21
3.5960214138031006
 31
0.075286865234375
 12
3.2301456928253174
 22
3.5960214138031006
 32
0.05862903594970703
 13
3.225085735321045
 23
3.5975563526153564
 33
0.05862903594970703
  0
3DFACE
  8
0
 10
3.2301456928253174
 20
3.5960214138031006
 30
0.075286865234375
 11
3.234808921813965
 21
3.5935287475585938
 31
0.075286865234375
 12
3.234808921813965
 22
3.5935287475585938
 32
0.05862903594970703
 13
3.2301456928253174
 23
3.5960214138031006
 33
0.05862903594970703
  0
3DFACE
  8
0
 10
3.234808921813965
 20
3.5935287475585938
 30
0.075286865234375
 11
3.238896369934082
 21
3.590174436569214
 31
0.075286865234375
 12
3.238896369934082
 22
3.590174436569214
 32
0.05862903594970703
 13
3.234808921813965
 23
3.5935287475585938
 33
0.05862903594970703
  0
3DFACE
  8
0
 10
3.238896369934082
 20
3.590174436569214
 30
0.05862903594970703
 11
3.242250680923462
 21
3.5860869884490967
 31
0.05862903594970703
 12
3.2502245903015137
 22
3.5914149284362793
 32
0.03925824165344238
 13
3.2456774711608887
 23
3.5969555377960205
 33
0.03925824165344238
  0
3DFACE
  8
0
 10
3.242250680923462
 20
3.5860869884490967
 30
0.05862903594970703
 11
3.2447433471679688
 21
3.581423759460449
 31
0.05862903594970703
 12
3.253603219985962
 22
3.5850937366485596
 32
0.03925824165344238
 13
3.2502245903015137
 23
3.5914149284362793
 33
0.03925824165344238
  0
3DFACE
  8
0
 10
3.2447433471679688
 20
3.581423759460449
 30
0.05862903594970703
 11
3.2462782859802246
 21
3.5763638019561768
 31
0.05862903594970703
 12
3.2556838989257812
 22
3.5782346725463867
 32
0.03925824165344238
 13
3.253603219985962
 23
3.5850937366485596
 33
0.03925824165344238
  0
3DFACE
  8
0
 10
3.2462782859802246
 20
3.5763638019561768
 30
0.05862903594970703
 11
3.2467966079711914
 21
3.571101665496826
 31
0.05862903594970703
 12
3.2563865184783936
 22
3.571101665496826
 32
0.03925824165344238
 13
3.2556838989257812
 23
3.5782346725463867
 33
0.03925824165344238
  0
3DFACE
  8
0
 10
3.2467966079711914
 20
3.571101665496826
 30
0.05862903594970703
 11
3.2462782859802246
 21
3.5658395290374756
 31
0.05862903594970703
 12
3.2556838989257812
 22
3.5639686584472656
 32
0.03925824165344238
 13
3.2563865184783936
 23
3.571101665496826
 33
0.03925824165344238
  0
3DFACE
  8
0
 10
3.2462782859802246
 20
3.5658395290374756
 30
0.05862903594970703
 11
3.2447433471679688
 21
3.560779571533203
 31
0.05862903594970703
 12
3.253603219985962
 22
3.557109832763672
 32
0.03925824165344238
 13
3.2556838989257812
 23
3.5639686584472656
 33
0.03925824165344238
  0
3DFACE
  8
0
 10
3.2447433471679688
 20
3.560779571533203
 30
0.05862903594970703
 11
3.242250680923462
 21
3.5561163425445557
 31
0.05862903594970703
 12
3.2502245903015137
 22
3.550788402557373
 32
0.03925824165344238
 13
3.253603219985962
 23
3.557109832763672
 33
0.03925824165344238
  0
3DFACE
  8
0
 10
3.242250680923462
 20
3.5561163425445557
 30
0.05862903594970703
 11
3.238896369934082
 21
3.5520288944244385
 31
0.05862903594970703
 12
3.2456774711608887
 22
3.545247793197632
 32
0.03925824165344238
 13
3.2502245903015137
 23
3.550788402557373
 33
0.03925824165344238
  0
3DFACE
  8
0
 10
3.238896369934082
 20
3.5520288944244385
 30
0.05862903594970703
 11
3.234808921813965
 21
3.5486745834350586
 31
0.05862903594970703
 12
3.2401368618011475
 22
3.540700674057007
 32
0.03925824165344238
 13
3.2456774711608887
 23
3.545247793197632
 33
0.03925824165344238
  0
3DFACE
  8
0
 10
3.234808921813965
 20
3.5486745834350586
 30
0.05862903594970703
 11
3.2301456928253174
 21
3.5461819171905518
 31
0.05862903594970703
 12
3.2338154315948486
 22
3.5373220443725586
 32
0.03925824165344238
 13
3.2401368618011475
 23
3.540700674057007
 33
0.03925824165344238
  0
3DFACE
  8
0
 10
3.2301456928253174
 20
3.5461819171905518
 30
0.05862903594970703
 11
3.225085735321045
 21
3.544646978378296
 31
0.05862903594970703
 12
3.226956605911255
 22
3.5352413654327393
 32
0.03925824165344238
 13
3.2338154315948486
 23
3.5373220443725586
 33
0.03925824165344238
  0
3DFACE
  8
0
 10
3.225085735321045
 20
3.544646978378296
 30
0.05862903594970703
 11
3.2198235988616943
 21
3.544128656387329
 31
0.05862903594970703
 12
3.2198235988616943
 22
3.534538745880127
 32
0.03925824165344238
 13
3.226956605911255
 23
3.5352413654327393
 33
0.03925824165344238
  0
3DFACE
  8
0
 10
3.2198235988616943
 20
3.544128656387329
 30
0.05862903594970703
 11
3.2145614624023438
 21
3.544646978378296
 31
0.05862903594970703
 12
3.2126903533935547
 22
3.5352413654327393
 32
0.03925824165344238
 13
3.2198235988616943
 23
3.534538745880127
 33
0.03925824165344238
  0
3DFACE
  8
0
 10
3.2145614624023438
 20
3.544646978378296
 30
0.05862903594970703
 11
3.2095015048980713
 21
3.5461819171905518
 31
0.05862903594970703
 12
3.205831527709961
 22
3.5373220443725586
 32
0.03925824165344238
 13
3.2126903533935547
 23
3.5352413654327393
 33
0.03925824165344238
  0
3DFACE
  8
0
 10
3.2095015048980713
 20
3.5461819171905518
 30
0.05862903594970703
 11
3.2048380374908447
 21
3.5486745834350586
 31
0.05862903594970703
 12
3.199510335922241
 22
3.540700912475586
 32
0.03925824165344238
 13
3.205831527709961
 23
3.5373220443725586
 33
0.03925824165344238
  0
3DFACE
  8
0
 10
3.2048380374908447
 20
3.5486745834350586
 30
0.05862903594970703
 11
3.2007508277893066
 21
3.5520288944244385
 31
0.05862903594970703
 12
3.1939697265625
 22
3.545247793197632
 32
0.03925824165344238
 13
3.199510335922241
 23
3.540700912475586
 33
0.03925824165344238
  0
3DFACE
  8
0
 10
3.2007508277893066
 20
3.5520288944244385
 30
0.05862903594970703
 11
3.1973962783813477
 21
3.5561163425445557
 31
0.05862903594970703
 12
3.189422607421875
 22
3.550788402557373
 32
0.03925824165344238
 13
3.1939697265625
 23
3.545247793197632
 33
0.03925824165344238
  0
3DFACE
  8
0
 10
3.1973962783813477
 20
3.5561163425445557
 30
0.05862903594970703
 11
3.19490385055542
 21
3.560779571533203
 31
0.05862903594970703
 12
3.1860437393188477
 22
3.557109832763672
 32
0.03925824165344238
 13
3.189422607421875
 23
3.550788402557373
 33
0.03925824165344238
  0
3DFACE
  8
0
 10
3.19490385055542
 20
3.560779571533203
 30
0.05862903594970703
 11
3.193368911743164
 21
3.5658395290374756
 31
0.05862903594970703
 12
3.1839632987976074
 22
3.5639686584472656
 32
0.03925824165344238
 13
3.1860437393188477
 23
3.557109832763672
 33
0.03925824165344238
  0
3DFACE
  8
0
 10
3.193368911743164
 20
3.5658395290374756
 30
0.05862903594970703
 11
3.1928505897521973
 21
3.571101665496826
 31
0.05862903594970703
 12
3.183260679244995
 22
3.571101665496826
 32
0.03925824165344238
 13
3.1839632987976074
 23
3.5639686584472656
 33
0.03925824165344238
  0
3DFACE
  8
0
 10
3.1928505897521973
 20
3.571101665496826
 30
0.05862903594970703
 11
3.193368911743164
 21
3.5763638019561768
 31
0.05862903594970703
 12
3.1839632987976074
 22
3.5782346725463867
 32
0.03925824165344238
 13
3.183260679244995
 23
3.571101665496826
 33
0.03925824165344238
  0
3DFACE
  8
0
 10
3.193368911743164
 20
3.5763638019561768
 30
0.05862903594970703
 11
3.19490385055542
 21
3.581423759460449
 31
0.05862903594970703
 12
3.1860437393188477
 22
3.5850937366485596
 32
0.03925824165344238
 13
3.1839632987976074
 23
3.5782346725463867
 33
0.03925824165344238
  0
3DFACE
  8
0
 10
3.19490385055542
 20
3.581423759460449
 30
0.05862903594970703
 11
3.1973962783813477
 21
3.586087226867676
 31
0.05862903594970703
 12
3.189422607421875
 22
3.5914149284362793
 32
0.03925824165344238
 13
3.1860437393188477
 23
3.5850937366485596
 33
0.03925824165344238
  0
3DFACE
  8
0
 10
3.1973962783813477
 20
3.586087226867676
 30
0.05862903594970703
 11
3.2007508277893066
 21
3.590174436569214
 31
0.05862903594970703
 12
3.1939697265625
 22
3.5969555377960205
 32
0.03925824165344238
 13
3.189422607421875
 23
3.5914149284362793
 33
0.03925824165344238
  0
3DFACE
  8
0
 10
3.2007508277893066
 20
3.590174436569214
 30
0.05862903594970703
 11
3.204838275909424
 21
3.5935287475585938
 31
0.05862903594970703
 12
3.199510335922241
 22
3.6015026569366455
 32
0.03925824165344238
 13
3.1939697265625
 23
3.5969555377960205
 33
0.03925824165344238
  0
3DFACE
  8
0
 10
3.204838275909424
 20
3.5935287475585938
 30
0.05862903594970703
 11
3.2095015048980713
 21
3.5960214138031006
 31
0.05862903594970703
 12
3.205831527709961
 22
3.6048812866210938
 32
0.03925824165344238
 13
3.199510335922241
 23
3.6015026569366455
 33
0.03925824165344238
  0
3DFACE
  8
0
 10
3.2095015048980713
 20
3.5960214138031006
 30
0.05862903594970703
 11
3.2145614624023438
 21
3.5975563526153564
 31
0.05862903594970703
 12
3.212690591812134
 22
3.606961965560913
 32
0.03925824165344238
 13
3.205831527709961
 23
3.6048812866210938
 33
0.03925824165344238
  0
3DFACE
  8
0
 10
3.2145614624023438
 20
3.5975563526153564
 30
0.05862903594970703
 11
3.2198235988616943
 21
3.5980746746063232
 31
0.05862903594970703
 12
3.2198235988616943
 22
3.6076645851135254
 32
0.03925824165344238
 13
3.212690591812134
 23
3.606961965560913
 33
0.03925824165344238
  0
3DFACE
  8
0
 10
3.2198235988616943
 20
3.5980746746063232
 30
0.05862903594970703
 11
3.225085735321045
 21
3.5975563526153564
 31
0.05862903594970703
 12
3.226956605911255
 22
3.606961965560913
 32
0.03925824165344238
 13
3.2198235988616943
 23
3.6076645851135254
 33
0.03925824165344238
  0
3DFACE
  8
0
 10
3.225085735321045
 20
3.5975563526153564
 30
0.05862903594970703
 11
3.2301456928253174
 21
3.5960214138031006
 31
0.05862903594970703
 12
3.2338156700134277
 22
3.6048812866210938
 32
0.03925824165344238
 13
3.226956605911255
 23
3.606961965560913
 33
0.03925824165344238
  0
3DFACE
  8
0
 10
3.2301456928253174
 20
3.5960214138031006
 30
0.05862903594970703
 11
3.234808921813965
 21
3.5935287475585938
 31
0.05862903594970703
 12
3.2401368618011475
 22
3.6015024185180664
 32
0.03925824165344238
 13
3.2338156700134277
 23
3.6048812866210938
 33
0.03925824165344238
  0
3DFACE
  8
0
 10
3.234808921813965
 20
3.5935287475585938
 30
0.05862903594970703
 11
3.238896369934082
 21
3.590174436569214
 31
0.05862903594970703
 12
3.2456774711608887
 22
3.5969555377960205
 32
0.03925824165344238
 13
3.2401368618011475
 23
3.6015024185180664
 33
0.03925824165344238
  0
3DFACE
  8
0
 10
2.656599760055542
 20
3.5958504676818848
 30
0.075286865234375
 11
2.656599998474121
 21
3.5958504676818848
 31
0.7394256591796875
 12
2.660952568054199
 22
3.5905466079711914
 32
0.7394256591796875
 13
2.660952568054199
 23
3.5905466079711914
 33
0.075286865234375
  0
3DFACE
  8
0
 10
2.660952568054199
 20
3.5905466079711914
 30
0.075286865234375
 11
2.660952568054199
 21
3.5905466079711914
 31
0.7394256591796875
 12
2.664186954498291
 22
3.5844955444335938
 32
0.7394256591796875
 13
2.664186954498291
 23
3.5844955444335938
 33
0.075286865234375
  0
3DFACE
  8
0
 10
2.664186954498291
 20
3.5844955444335938
 30
0.075286865234375
 11
2.664186954498291
 21
3.5844955444335938
 31
0.7394256591796875
 12
2.6661787033081055
 22
3.577929735183716
 32
0.7394256591796875
 13
2.6661787033081055
 23
3.577929973602295
 33
0.075286865234375
  0
3DFACE
  8
0
 10
2.6661787033081055
 20
3.577929973602295
 30
0.075286865234375
 11
2.6661787033081055
 21
3.577929735183716
 31
0.7394256591796875
 12
2.666851043701172
 22
3.571101665496826
 32
0.7394256591796875
 13
2.666851043701172
 23
3.571101665496826
 33
0.075286865234375
  0
3DFACE
  8
0
 10
2.666851043701172
 20
3.571101665496826
 30
0.075286865234375
 11
2.666851043701172
 21
3.571101665496826
 31
0.7394256591796875
 12
2.6661787033081055
 22
3.5642733573913574
 32
0.7394256591796875
 13
2.6661787033081055
 23
3.5642733573913574
 33
0.075286865234375
  0
3DFACE
  8
0
 10
2.6661787033081055
 20
3.5642733573913574
 30
0.075286865234375
 11
2.6661787033081055
 21
3.5642733573913574
 31
0.7394256591796875
 12
2.664186954498291
 22
3.5577077865600586
 32
0.7394256591796875
 13
2.664186954498291
 23
3.5577077865600586
 33
0.075286865234375
  0
3DFACE
  8
0
 10
2.664186954498291
 20
3.5577077865600586
 30
0.075286865234375
 11
2.664186954498291
 21
3.5577077865600586
 31
0.7394256591796875
 12
2.660952568054199
 22
3.551656723022461
 32
0.7394256591796875
 13
2.660952568054199
 23
3.551656723022461
 33
0.075286865234375
  0
3DFACE
  8
0
 10
2.660952568054199
 20
3.551656723022461
 30
0.075286865234375
 11
2.660952568054199
 21
3.551656723022461
 31
0.7394256591796875
 12
2.656599760055542
 22
3.5463528633117676
 32
0.7394256591796875
 13
2.656599760055542
 23
3.5463528633117676
 33
0.075286865234375
  0
3DFACE
  8
0
 10
2.656599760055542
 20
3.5463528633117676
 30
0.075286865234375
 11
2.656599760055542
 21
3.5463528633117676
 31
0.7394256591796875
 12
2.6512961387634277
 22
3.5420002937316895
 32
0.7394256591796875
 13
2.6512961387634277
 23
3.5420002937316895
 33
0.075286865234375
  0
3DFACE
  8
0
 10
2.6512961387634277
 20
3.5420002937316895
 30
0.075286865234375
 11
2.6512961387634277
 21
3.5420002937316895
 31
0.7394256591796875
 12
2.64524507522583
 22
3.5387659072875977
 32
0.7394256591796875
 13
2.64524507522583
 23
3.5387659072875977
 33
0.075286865234375
  0
3DFACE
  8
0
 10
2.64524507522583
 20
3.5387659072875977
 30
0.075286865234375
 11
2.64524507522583
 21
3.5387659072875977
 31
0.7394256591796875
 12
2.638679265975952
 22
3.536774158477783
 32
0.7394256591796875
 13
2.638679265975952
 23
3.536774158477783
 33
0.075286865234375
  0
3DFACE
  8
0
 10
2.638679265975952
 20
3.536774158477783
 30
0.075286865234375
 11
2.638679265975952
 21
3.536774158477783
 31
0.7394256591796875
 12
2.6318511962890625
 22
3.536101818084717
 32
0.7394256591796875
 13
2.6318511962890625
 23
3.536101818084717
 33
0.075286865234375
  0
3DFACE
  8
0
 10
2.6318511962890625
 20
3.536101818084717
 30
0.075286865234375
 11
2.6318511962890625
 21
3.536101818084717
 31
0.7394256591796875
 12
2.625023126602173
 22
3.536774158477783
 32
0.7394256591796875
 13
2.6250228881835938
 23
3.536774158477783
 33
0.075286865234375
  0
3DFACE
  8
0
 10
2.6250228881835938
 20
3.536774158477783
 30
0.075286865234375
 11
2.625023126602173
 21
3.536774158477783
 31
0.7394256591796875
 12
2.618457317352295
 22
3.5387659072875977
 32
0.7394256591796875
 13
2.618457317352295
 23
3.5387659072875977
 33
0.075286865234375
  0
3DFACE
  8
0
 10
2.618457317352295
 20
3.5387659072875977
 30
0.075286865234375
 11
2.618457317352295
 21
3.5387659072875977
 31
0.7394256591796875
 12
2.6124062538146973
 22
3.5420002937316895
 32
0.7394256591796875
 13
2.6124062538146973
 23
3.5420002937316895
 33
0.075286865234375
  0
3DFACE
  8
0
 10
2.6124062538146973
 20
3.5420002937316895
 30
0.075286865234375
 11
2.6124062538146973
 21
3.5420002937316895
 31
0.7394256591796875
 12
2.607102394104004
 22
3.5463528633117676
 32
0.7394256591796875
 13
2.607102394104004
 23
3.5463528633117676
 33
0.075286865234375
  0
3DFACE
  8
0
 10
2.607102394104004
 20
3.5463528633117676
 30
0.075286865234375
 11
2.607102394104004
 21
3.5463528633117676
 31
0.7394256591796875
 12
2.602749824523926
 22
3.551656723022461
 32
0.7394256591796875
 13
2.602749824523926
 23
3.551656723022461
 33
0.075286865234375
  0
3DFACE
  8
0
 10
2.602749824523926
 20
3.551656723022461
 30
0.075286865234375
 11
2.602749824523926
 21
3.551656723022461
 31
0.7394256591796875
 12
2.599515438079834
 22
3.5577077865600586
 32
0.7394256591796875
 13
2.599515438079834
 23
3.5577077865600586
 33
0.075286865234375
  0
3DFACE
  8
0
 10
2.599515438079834
 20
3.5577077865600586
 30
0.075286865234375
 11
2.599515438079834
 21
3.5577077865600586
 31
0.7394256591796875
 12
2.5975236892700195
 22
3.5642733573913574
 32
0.7394256591796875
 13
2.5975236892700195
 23
3.5642733573913574
 33
0.075286865234375
  0
3DFACE
  8
0
 10
2.5975236892700195
 20
3.5642733573913574
 30
0.075286865234375
 11
2.5975236892700195
 21
3.5642733573913574
 31
0.7394256591796875
 12
2.596851110458374
 22
3.571101665496826
 32
0.7394256591796875
 13
2.596851110458374
 23
3.571101665496826
 33
0.075286865234375
  0
3DFACE
  8
0
 10
2.596851110458374
 20
3.571101665496826
 30
0.075286865234375
 11
2.596851110458374
 21
3.571101665496826
 31
0.7394256591796875
 12
2.5975236892700195
 22
3.5779294967651367
 32
0.7394256591796875
 13
2.5975236892700195
 23
3.577929973602295
 33
0.075286865234375
  0
3DFACE
  8
0
 10
2.5975236892700195
 20
3.577929973602295
 30
0.075286865234375
 11
2.5975236892700195
 21
3.5779294967651367
 31
0.7394256591796875
 12
2.599515199661255
 22
3.5844955444335938
 32
0.7394256591796875
 13
2.599515438079834
 23
3.5844955444335938
 33
0.075286865234375
  0
3DFACE
  8
0
 10
2.599515438079834
 20
3.5844955444335938
 30
0.075286865234375
 11
2.599515199661255
 21
3.5844955444335938
 31
0.7394256591796875
 12
2.6027495861053467
 22
3.5905466079711914
 32
0.7394256591796875
 13
2.602749824523926
 23
3.5905466079711914
 33
0.075286865234375
  0
3DFACE
  8
0
 10
2.602749824523926
 20
3.5905466079711914
 30
0.075286865234375
 11
2.6027495861053467
 21
3.5905466079711914
 31
0.7394256591796875
 12
2.607102394104004
 22
3.5958502292633057
 32
0.7394256591796875
 13
2.607102394104004
 23
3.5958504676818848
 33
0.075286865234375
  0
3DFACE
  8
0
 10
2.607102394104004
 20
3.5958504676818848
 30
0.075286865234375
 11
2.607102394104004
 21
3.5958502292633057
 31
0.7394256591796875
 12
2.612406015396118
 22
3.600203037261963
 32
0.7394256591796875
 13
2.6124062538146973
 23
3.600203037261963
 33
0.075286865234375
  0
3DFACE
  8
0
 10
2.6124062538146973
 20
3.600203037261963
 30
0.075286865234375
 11
2.612406015396118
 21
3.600203037261963
 31
0.7394256591796875
 12
2.618457078933716
 22
3.6034374237060547
 32
0.7394256591796875
 13
2.618457317352295
 23
3.6034374237060547
 33
0.075286865234375
  0
3DFACE
  8
0
 10
2.618457317352295
 20
3.6034374237060547
 30
0.075286865234375
 11
2.618457078933716
 21
3.6034374237060547
 31
0.7394256591796875
 12
2.6250226497650146
 22
3.605429172515869
 32
0.7394256591796875
 13
2.625023126602173
 23
3.605429172515869
 33
0.075286865234375
  0
3DFACE
  8
0
 10
2.625023126602173
 20
3.605429172515869
 30
0.075286865234375
 11
2.6250226497650146
 21
3.605429172515869
 31
0.7394256591796875
 12
2.6318509578704834
 22
3.6061015129089355
 32
0.7394256591796875
 13
2.6318511962890625
 23
3.6061015129089355
 33
0.075286865234375
  0
3DFACE
  8
0
 10
2.6318511962890625
 20
3.6061015129089355
 30
0.075286865234375
 11
2.6318509578704834
 21
3.6061015129089355
 31
0.7394256591796875
 12
2.638679027557373
 22
3.605429172515869
 32
0.7394256591796875
 13
2.638679265975952
 23
3.605429172515869
 33
0.075286865234375
  0
3DFACE
  8
0
 10
2.638679265975952
 20
3.605429172515869
 30
0.075286865234375
 11
2.638679027557373
 21
3.605429172515869
 31
0.7394256591796875
 12
2.645244836807251
 22
3.6034374237060547
 32
0.7394256591796875
 13
2.64524507522583
 23
3.6034374237060547
 33
0.075286865234375
  0
3DFACE
  8
0
 10
2.64524507522583
 20
3.6034374237060547
 30
0.075286865234375
 11
2.645244836807251
 21
3.6034374237060547
 31
0.7394256591796875
 12
2.6512959003448486
 22
3.600203275680542
 32
0.7394256591796875
 13
2.6512961387634277
 23
3.600203037261963
 33
0.075286865234375
  0
3DFACE
  8
0
 10
2.656599998474121
 20
3.5958504676818848
 30
0.7394256591796875
 11
2.656599760055542
 21
3.5958504676818848
 31
0.075286865234375
 12
2.6512961387634277
 22
3.600203037261963
 32
0.075286865234375
 13
2.6512959003448486
 23
3.600203275680542
 33
0.7394256591796875
  0
3DFACE
  8
0
 10
2.656599760055542
 20
3.5958504676818848
 30
0.075286865234375
 11
2.660952568054199
 21
3.5905466079711914
 31
0.075286865234375
 12
2.65427827835083
 22
3.5860869884490967
 32
0.075286865234375
 13
2.65092396736145
 23
3.590174436569214
 33
0.075286865234375
  0
3DFACE
  8
0
 10
2.660952568054199
 20
3.5905466079711914
 30
0.075286865234375
 11
2.664186954498291
 21
3.5844955444335938
 31
0.075286865234375
 12
2.656770944595337
 22
3.581423759460449
 32
0.075286865234375
 13
2.65427827835083
 23
3.5860869884490967
 33
0.075286865234375
  0
3DFACE
  8
0
 10
2.664186954498291
 20
3.5844955444335938
 30
0.075286865234375
 11
2.6661787033081055
 21
3.577929973602295
 31
0.075286865234375
 12
2.6583058834075928
 22
3.5763638019561768
 32
0.075286865234375
 13
2.656770944595337
 23
3.581423759460449
 33
0.075286865234375
  0
3DFACE
  8
0
 10
2.6661787033081055
 20
3.577929973602295
 30
0.075286865234375
 11
2.666851043701172
 21
3.571101665496826
 31
0.075286865234375
 12
2.6588242053985596
 22
3.571101665496826
 32
0.075286865234375
 13
2.6583058834075928
 23
3.5763638019561768
 33
0.075286865234375
  0
3DFACE
  8
0
 10
2.666851043701172
 20
3.571101665496826
 30
0.075286865234375
 11
2.6661787033081055
 21
3.5642733573913574
 31
0.075286865234375
 12
2.6583058834075928
 22
3.5658395290374756
 32
0.075286865234375
 13
2.6588242053985596
 23
3.571101665496826
 33
0.075286865234375
  0
3DFACE
  8
0
 10
2.6661787033081055
 20
3.5642733573913574
 30
0.075286865234375
 11
2.664186954498291
 21
3.5577077865600586
 31
0.075286865234375
 12
2.656770944595337
 22
3.560779571533203
 32
0.075286865234375
 13
2.6583058834075928
 23
3.5658395290374756
 33
0.075286865234375
  0
3DFACE
  8
0
 10
2.664186954498291
 20
3.5577077865600586
 30
0.075286865234375
 11
2.660952568054199
 21
3.551656723022461
 31
0.075286865234375
 12
2.65427827835083
 22
3.5561163425445557
 32
0.075286865234375
 13
2.656770944595337
 23
3.560779571533203
 33
0.075286865234375
  0
3DFACE
  8
0
 10
2.660952568054199
 20
3.551656723022461
 30
0.075286865234375
 11
2.656599760055542
 21
3.5463528633117676
 31
0.075286865234375
 12
2.65092396736145
 22
3.5520288944244385
 32
0.075286865234375
 13
2.65427827835083
 23
3.5561163425445557
 33
0.075286865234375
  0
3DFACE
  8
0
 10
2.656599760055542
 20
3.5463528633117676
 30
0.075286865234375
 11
2.6512961387634277
 21
3.5420002937316895
 31
0.075286865234375
 12
2.646836519241333
 22
3.5486745834350586
 32
0.075286865234375
 13
2.65092396736145
 23
3.5520288944244385
 33
0.075286865234375
  0
3DFACE
  8
0
 10
2.6512961387634277
 20
3.5420002937316895
 30
0.075286865234375
 11
2.64524507522583
 21
3.5387659072875977
 31
0.075286865234375
 12
2.6421732902526855
 22
3.5461819171905518
 32
0.075286865234375
 13
2.646836519241333
 23
3.5486745834350586
 33
0.075286865234375
  0
3DFACE
  8
0
 10
2.64524507522583
 20
3.5387659072875977
 30
0.075286865234375
 11
2.638679265975952
 21
3.536774158477783
 31
0.075286865234375
 12
2.637113332748413
 22
3.544646978378296
 32
0.075286865234375
 13
2.6421732902526855
 23
3.5461819171905518
 33
0.075286865234375
  0
3DFACE
  8
0
 10
2.638679265975952
 20
3.536774158477783
 30
0.075286865234375
 11
2.6318511962890625
 21
3.536101818084717
 31
0.075286865234375
 12
2.6318511962890625
 22
3.544128656387329
 32
0.075286865234375
 13
2.637113332748413
 23
3.544646978378296
 33
0.075286865234375
  0
3DFACE
  8
0
 10
2.6318511962890625
 20
3.536101818084717
 30
0.075286865234375
 11
2.6250228881835938
 21
3.536774158477783
 31
0.075286865234375
 12
2.626589059829712
 22
3.544646978378296
 32
0.075286865234375
 13
2.6318511962890625
 23
3.544128656387329
 33
0.075286865234375
  0
3DFACE
  8
0
 10
2.6250228881835938
 20
3.536774158477783
 30
0.075286865234375
 11
2.618457317352295
 21
3.5387659072875977
 31
0.075286865234375
 12
2.6215291023254395
 22
3.5461819171905518
 32
0.075286865234375
 13
2.626589059829712
 23
3.544646978378296
 33
0.075286865234375
  0
3DFACE
  8
0
 10
2.618457317352295
 20
3.5387659072875977
 30
0.075286865234375
 11
2.6124062538146973
 21
3.5420002937316895
 31
0.075286865234375
 12
2.616865634918213
 22
3.5486745834350586
 32
0.075286865234375
 13
2.6215291023254395
 23
3.5461819171905518
 33
0.075286865234375
  0
3DFACE
  8
0
 10
2.6124062538146973
 20
3.5420002937316895
 30
0.075286865234375
 11
2.607102394104004
 21
3.5463528633117676
 31
0.075286865234375
 12
2.612778425216675
 22
3.5520288944244385
 32
0.075286865234375
 13
2.616865634918213
 23
3.5486745834350586
 33
0.075286865234375
  0
3DFACE
  8
0
 10
2.607102394104004
 20
3.5463528633117676
 30
0.075286865234375
 11
2.602749824523926
 21
3.551656723022461
 31
0.075286865234375
 12
2.609423875808716
 22
3.5561163425445557
 32
0.075286865234375
 13
2.612778425216675
 23
3.5520288944244385
 33
0.075286865234375
  0
3DFACE
  8
0
 10
2.602749824523926
 20
3.551656723022461
 30
0.075286865234375
 11
2.599515438079834
 21
3.5577077865600586
 31
0.075286865234375
 12
2.606931209564209
 22
3.560779571533203
 32
0.075286865234375
 13
2.609423875808716
 23
3.5561163425445557
 33
0.075286865234375
  0
3DFACE
  8
0
 10
2.599515438079834
 20
3.5577077865600586
 30
0.075286865234375
 11
2.5975236892700195
 21
3.5642733573913574
 31
0.075286865234375
 12
2.6053965091705322
 22
3.5658395290374756
 32
0.075286865234375
 13
2.606931209564209
 23
3.560779571533203
 33
0.075286865234375
  0
3DFACE
  8
0
 10
2.5975236892700195
 20
3.5642733573913574
 30
0.075286865234375
 11
2.596851110458374
 21
3.571101665496826
 31
0.075286865234375
 12
2.6048781871795654
 22
3.571101665496826
 32
0.075286865234375
 13
2.6053965091705322
 23
3.5658395290374756
 33
0.075286865234375
  0
3DFACE
  8
0
 10
2.596851110458374
 20
3.571101665496826
 30
0.075286865234375
 11
2.5975236892700195
 21
3.577929973602295
 31
0.075286865234375
 12
2.6053965091705322
 22
3.5763638019561768
 32
0.075286865234375
 13
2.6048781871795654
 23
3.571101665496826
 33
0.075286865234375
  0
3DFACE
  8
0
 10
2.5975236892700195
 20
3.577929973602295
 30
0.075286865234375
 11
2.599515438079834
 21
3.5844955444335938
 31
0.075286865234375
 12
2.606931447982788
 22
3.581423759460449
 32
0.075286865234375
 13
2.6053965091705322
 23
3.5763638019561768
 33
0.075286865234375
  0
3DFACE
  8
0
 10
2.599515438079834
 20
3.5844955444335938
 30
0.075286865234375
 11
2.602749824523926
 21
3.5905466079711914
 31
0.075286865234375
 12
2.609423875808716
 22
3.586087226867676
 32
0.075286865234375
 13
2.606931447982788
 23
3.581423759460449
 33
0.075286865234375
  0
3DFACE
  8
0
 10
2.602749824523926
 20
3.5905466079711914
 30
0.075286865234375
 11
2.607102394104004
 21
3.5958504676818848
 31
0.075286865234375
 12
2.612778425216675
 22
3.590174436569214
 32
0.075286865234375
 13
2.609423875808716
 23
3.586087226867676
 33
0.075286865234375
  0
3DFACE
  8
0
 10
2.607102394104004
 20
3.5958504676818848
 30
0.075286865234375
 11
2.6124062538146973
 21
3.600203037261963
 31
0.075286865234375
 12
2.616865873336792
 22
3.5935287475585938
 32
0.075286865234375
 13
2.612778425216675
 23
3.590174436569214
 33
0.075286865234375
  0
3DFACE
  8
0
 10
2.6124062538146973
 20
3.600203037261963
 30
0.075286865234375
 11
2.618457317352295
 21
3.6034374237060547
 31
0.075286865234375
 12
2.6215291023254395
 22
3.5960214138031006
 32
0.075286865234375
 13
2.616865873336792
 23
3.5935287475585938
 33
0.075286865234375
  0
3DFACE
  8
0
 10
2.618457317352295
 20
3.6034374237060547
 30
0.075286865234375
 11
2.625023126602173
 21
3.605429172515869
 31
0.075286865234375
 12
2.626589059829712
 22
3.5975563526153564
 32
0.075286865234375
 13
2.6215291023254395
 23
3.5960214138031006
 33
0.075286865234375
  0
3DFACE
  8
0
 10
2.625023126602173
 20
3.605429172515869
 30
0.075286865234375
 11
2.6318511962890625
 21
3.6061015129089355
 31
0.075286865234375
 12
2.6318511962890625
 22
3.5980746746063232
 32
0.075286865234375
 13
2.626589059829712
 23
3.5975563526153564
 33
0.075286865234375
  0
3DFACE
  8
0
 10
2.6318511962890625
 20
3.6061015129089355
 30
0.075286865234375
 11
2.638679265975952
 21
3.605429172515869
 31
0.075286865234375
 12
2.637113332748413
 22
3.5975563526153564
 32
0.075286865234375
 13
2.6318511962890625
 23
3.5980746746063232
 33
0.075286865234375
  0
3DFACE
  8
0
 10
2.638679265975952
 20
3.605429172515869
 30
0.075286865234375
 11
2.64524507522583
 21
3.6034374237060547
 31
0.075286865234375
 12
2.6421732902526855
 22
3.5960214138031006
 32
0.075286865234375
 13
2.637113332748413
 23
3.5975563526153564
 33
0.075286865234375
  0
3DFACE
  8
0
 10
2.64524507522583
 20
3.6034374237060547
 30
0.075286865234375
 11
2.6512961387634277
 21
3.600203037261963
 31
0.075286865234375
 12
2.646836519241333
 22
3.5935287475585938
 32
0.075286865234375
 13
2.6421732902526855
 23
3.5960214138031006
 33
0.075286865234375
  0
3DFACE
  8
0
 10
2.6512961387634277
 20
3.600203037261963
 30
0.075286865234375
 11
2.656599760055542
 21
3.5958504676818848
 31
0.075286865234375
 12
2.65092396736145
 22
3.590174436569214
 32
0.075286865234375
 13
2.646836519241333
 23
3.5935287475585938
 33
0.075286865234375
  0
3DFACE
  8
0
 10
2.65092396736145
 20
3.590174436569214
 30
0.075286865234375
 11
2.65427827835083
 21
3.5860869884490967
 31
0.075286865234375
 12
2.65427827835083
 22
3.5860869884490967
 32
0.05862903594970703
 13
2.65092396736145
 23
3.590174436569214
 33
0.05862903594970703
  0
3DFACE
  8
0
 10
2.65427827835083
 20
3.5860869884490967
 30
0.075286865234375
 11
2.656770944595337
 21
3.581423759460449
 31
0.075286865234375
 12
2.656770944595337
 22
3.581423759460449
 32
0.05862903594970703
 13
2.65427827835083
 23
3.5860869884490967
 33
0.05862903594970703
  0
3DFACE
  8
0
 10
2.656770944595337
 20
3.581423759460449
 30
0.075286865234375
 11
2.6583058834075928
 21
3.5763638019561768
 31
0.075286865234375
 12
2.6583058834075928
 22
3.5763638019561768
 32
0.05862903594970703
 13
2.656770944595337
 23
3.581423759460449
 33
0.05862903594970703
  0
3DFACE
  8
0
 10
2.6583058834075928
 20
3.5763638019561768
 30
0.075286865234375
 11
2.6588242053985596
 21
3.571101665496826
 31
0.075286865234375
 12
2.6588242053985596
 22
3.571101665496826
 32
0.05862903594970703
 13
2.6583058834075928
 23
3.5763638019561768
 33
0.05862903594970703
  0
3DFACE
  8
0
 10
2.6588242053985596
 20
3.571101665496826
 30
0.075286865234375
 11
2.6583058834075928
 21
3.5658395290374756
 31
0.075286865234375
 12
2.6583058834075928
 22
3.5658395290374756
 32
0.05862903594970703
 13
2.6588242053985596
 23
3.571101665496826
 33
0.05862903594970703
  0
3DFACE
  8
0
 10
2.6583058834075928
 20
3.5658395290374756
 30
0.075286865234375
 11
2.656770944595337
 21
3.560779571533203
 31
0.075286865234375
 12
2.656770944595337
 22
3.560779571533203
 32
0.05862903594970703
 13
2.6583058834075928
 23
3.5658395290374756
 33
0.05862903594970703
  0
3DFACE
  8
0
 10
2.656770944595337
 20
3.560779571533203
 30
0.075286865234375
 11
2.65427827835083
 21
3.5561163425445557
 31
0.075286865234375
 12
2.65427827835083
 22
3.5561163425445557
 32
0.05862903594970703
 13
2.656770944595337
 23
3.560779571533203
 33
0.05862903594970703
  0
3DFACE
  8
0
 10
2.65427827835083
 20
3.5561163425445557
 30
0.075286865234375
 11
2.65092396736145
 21
3.5520288944244385
 31
0.075286865234375
 12
2.65092396736145
 22
3.5520288944244385
 32
0.05862903594970703
 13
2.65427827835083
 23
3.5561163425445557
 33
0.05862903594970703
  0
3DFACE
  8
0
 10
2.65092396736145
 20
3.5520288944244385
 30
0.075286865234375
 11
2.646836519241333
 21
3.5486745834350586
 31
0.075286865234375
 12
2.646836519241333
 22
3.5486745834350586
 32
0.05862903594970703
 13
2.65092396736145
 23
3.5520288944244385
 33
0.05862903594970703
  0
3DFACE
  8
0
 10
2.646836519241333
 20
3.5486745834350586
 30
0.075286865234375
 11
2.6421732902526855
 21
3.5461819171905518
 31
0.075286865234375
 12
2.6421732902526855
 22
3.5461819171905518
 32
0.05862903594970703
 13
2.646836519241333
 23
3.5486745834350586
 33
0.05862903594970703
  0
3DFACE
  8
0
 10
2.6421732902526855
 20
3.5461819171905518
 30
0.075286865234375
 11
2.637113332748413
 21
3.544646978378296
 31
0.075286865234375
 12
2.637113332748413
 22
3.544646978378296
 32
0.05862903594970703
 13
2.6421732902526855
 23
3.5461819171905518
 33
0.05862903594970703
  0
3DFACE
  8
0
 10
2.637113332748413
 20
3.544646978378296
 30
0.075286865234375
 11
2.6318511962890625
 21
3.544128656387329
 31
0.075286865234375
 12
2.6318511962890625
 22
3.544128656387329
 32
0.05862903594970703
 13
2.637113332748413
 23
3.544646978378296
 33
0.05862903594970703
  0
3DFACE
  8
0
 10
2.6318511962890625
 20
3.544128656387329
 30
0.075286865234375
 11
2.626589059829712
 21
3.544646978378296
 31
0.075286865234375
 12
2.626589059829712
 22
3.544646978378296
 32
0.05862903594970703
 13
2.6318511962890625
 23
3.544128656387329
 33
0.05862903594970703
  0
3DFACE
  8
0
 10
2.626589059829712
 20
3.544646978378296
 30
0.075286865234375
 11
2.6215291023254395
 21
3.5461819171905518
 31
0.075286865234375
 12
2.6215291023254395
 22
3.5461819171905518
 32
0.05862903594970703
 13
2.626589059829712
 23
3.544646978378296
 33
0.05862903594970703
  0
3DFACE
  8
0
 10
2.6215291023254395
 20
3.5461819171905518
 30
0.075286865234375
 11
2.616865634918213
 21
3.5486745834350586
 31
0.075286865234375
 12
2.616865634918213
 22
3.5486745834350586
 32
0.05862903594970703
 13
2.6215291023254395
 23
3.5461819171905518
 33
0.05862903594970703
  0
3DFACE
  8
0
 10
2.616865634918213
 20
3.5486745834350586
 30
0.075286865234375
 11
2.612778425216675
 21
3.5520288944244385
 31
0.075286865234375
 12
2.612778425216675
 22
3.5520288944244385
 32
0.05862903594970703
 13
2.616865634918213
 23
3.5486745834350586
 33
0.05862903594970703
  0
3DFACE
  8
0
 10
2.612778425216675
 20
3.5520288944244385
 30
0.075286865234375
 11
2.609423875808716
 21
3.5561163425445557
 31
0.075286865234375
 12
2.609423875808716
 22
3.5561163425445557
 32
0.05862903594970703
 13
2.612778425216675
 23
3.5520288944244385
 33
0.05862903594970703
  0
3DFACE
  8
0
 10
2.609423875808716
 20
3.5561163425445557
 30
0.075286865234375
 11
2.606931209564209
 21
3.560779571533203
 31
0.075286865234375
 12
2.606931209564209
 22
3.560779571533203
 32
0.05862903594970703
 13
2.609423875808716
 23
3.5561163425445557
 33
0.05862903594970703
  0
3DFACE
  8
0
 10
2.606931209564209
 20
3.560779571533203
 30
0.075286865234375
 11
2.6053965091705322
 21
3.5658395290374756
 31
0.075286865234375
 12
2.6053965091705322
 22
3.5658395290374756
 32
0.05862903594970703
 13
2.606931209564209
 23
3.560779571533203
 33
0.05862903594970703
  0
3DFACE
  8
0
 10
2.6053965091705322
 20
3.5658395290374756
 30
0.075286865234375
 11
2.6048781871795654
 21
3.571101665496826
 31
0.075286865234375
 12
2.6048781871795654
 22
3.571101665496826
 32
0.05862903594970703
 13
2.6053965091705322
 23
3.5658395290374756
 33
0.05862903594970703
  0
3DFACE
  8
0
 10
2.6048781871795654
 20
3.571101665496826
 30
0.075286865234375
 11
2.6053965091705322
 21
3.5763638019561768
 31
0.075286865234375
 12
2.6053965091705322
 22
3.5763638019561768
 32
0.05862903594970703
 13
2.6048781871795654
 23
3.571101665496826
 33
0.05862903594970703
  0
3DFACE
  8
0
 10
2.6053965091705322
 20
3.5763638019561768
 30
0.075286865234375
 11
2.606931447982788
 21
3.581423759460449
 31
0.075286865234375
 12
2.606931447982788
 22
3.581423759460449
 32
0.05862903594970703
 13
2.6053965091705322
 23
3.5763638019561768
 33
0.05862903594970703
  0
3DFACE
  8
0
 10
2.606931447982788
 20
3.581423759460449
 30
0.075286865234375
 11
2.609423875808716
 21
3.586087226867676
 31
0.075286865234375
 12
2.609423875808716
 22
3.586087226867676
 32
0.05862903594970703
 13
2.606931447982788
 23
3.581423759460449
 33
0.05862903594970703
  0
3DFACE
  8
0
 10
2.609423875808716
 20
3.586087226867676
 30
0.075286865234375
 11
2.612778425216675
 21
3.590174436569214
 31
0.075286865234375
 12
2.612778425216675
 22
3.590174436569214
 32
0.05862903594970703
 13
2.609423875808716
 23
3.586087226867676
 33
0.05862903594970703
  0
3DFACE
  8
0
 10
2.612778425216675
 20
3.590174436569214
 30
0.075286865234375
 11
2.616865873336792
 21
3.5935287475585938
 31
0.075286865234375
 12
2.616865873336792
 22
3.5935287475585938
 32
0.05862903594970703
 13
2.612778425216675
 23
3.590174436569214
 33
0.05862903594970703
  0
3DFACE
  8
0
 10
2.616865873336792
 20
3.5935287475585938
 30
0.075286865234375
 11
2.6215291023254395
 21
3.5960214138031006
 31
0.075286865234375
 12
2.6215291023254395
 22
3.5960214138031006
 32
0.05862903594970703
 13
2.616865873336792
 23
3.5935287475585938
 33
0.05862903594970703
  0
3DFACE
  8
0
 10
2.6215291023254395
 20
3.5960214138031006
 30
0.075286865234375
 11
2.626589059829712
 21
3.5975563526153564
 31
0.075286865234375
 12
2.626589059829712
 22
3.5975563526153564
 32
0.05862903594970703
 13
2.6215291023254395
 23
3.5960214138031006
 33
0.05862903594970703
  0
3DFACE
  8
0
 10
2.626589059829712
 20
3.5975563526153564
 30
0.075286865234375
 11
2.6318511962890625
 21
3.5980746746063232
 31
0.075286865234375
 12
2.6318511962890625
 22
3.5980746746063232
 32
0.05862903594970703
 13
2.626589059829712
 23
3.5975563526153564
 33
0.05862903594970703
  0
3DFACE
  8
0
 10
2.6318511962890625
 20
3.5980746746063232
 30
0.075286865234375
 11
2.637113332748413
 21
3.5975563526153564
 31
0.075286865234375
 12
2.637113332748413
 22
3.5975563526153564
 32
0.05862903594970703
 13
2.6318511962890625
 23
3.5980746746063232
 33
0.05862903594970703
  0
3DFACE
  8
0
 10
2.637113332748413
 20
3.5975563526153564
 30
0.075286865234375
 11
2.6421732902526855
 21
3.5960214138031006
 31
0.075286865234375
 12
2.6421732902526855
 22
3.5960214138031006
 32
0.05862903594970703
 13
2.637113332748413
 23
3.5975563526153564
 33
0.05862903594970703
  0
3DFACE
  8
0
 10
2.6421732902526855
 20
3.5960214138031006
 30
0.075286865234375
 11
2.646836519241333
 21
3.5935287475585938
 31
0.075286865234375
 12
2.646836519241333
 22
3.5935287475585938
 32
0.05862903594970703
 13
2.6421732902526855
 23
3.5960214138031006
 33
0.05862903594970703
  0
3DFACE
  8
0
 10
2.646836519241333
 20
3.5935287475585938
 30
0.075286865234375
 11
2.65092396736145
 21
3.590174436569214
 31
0.075286865234375
 12
2.65092396736145
 22
3.590174436569214
 32
0.05862903594970703
 13
2.646836519241333
 23
3.5935287475585938
 33
0.05862903594970703
  0
3DFACE
  8
0
 10
2.65092396736145
 20
3.590174436569214
 30
0.05862903594970703
 11
2.65427827835083
 21
3.5860869884490967
 31
0.05862903594970703
 12
2.662252187728882
 22
3.5914149284362793
 32
0.03925824165344238
 13
2.657705068588257
 23
3.5969555377960205
 33
0.03925824165344238
  0
3DFACE
  8
0
 10
2.65427827835083
 20
3.5860869884490967
 30
0.05862903594970703
 11
2.656770944595337
 21
3.581423759460449
 31
0.05862903594970703
 12
2.66563081741333
 22
3.5850937366485596
 32
0.03925824165344238
 13
2.662252187728882
 23
3.5914149284362793
 33
0.03925824165344238
  0
3DFACE
  8
0
 10
2.656770944595337
 20
3.581423759460449
 30
0.05862903594970703
 11
2.6583058834075928
 21
3.5763638019561768
 31
0.05862903594970703
 12
2.6677114963531494
 22
3.5782346725463867
 32
0.03925824165344238
 13
2.66563081741333
 23
3.5850937366485596
 33
0.03925824165344238
  0
3DFACE
  8
0
 10
2.6583058834075928
 20
3.5763638019561768
 30
0.05862903594970703
 11
2.6588242053985596
 21
3.571101665496826
 31
0.05862903594970703
 12
2.6684141159057617
 22
3.571101665496826
 32
0.03925824165344238
 13
2.6677114963531494
 23
3.5782346725463867
 33
0.03925824165344238
  0
3DFACE
  8
0
 10
2.6588242053985596
 20
3.571101665496826
 30
0.05862903594970703
 11
2.6583058834075928
 21
3.5658395290374756
 31
0.05862903594970703
 12
2.6677114963531494
 22
3.5639686584472656
 32
0.03925824165344238
 13
2.6684141159057617
 23
3.571101665496826
 33
0.03925824165344238
  0
3DFACE
  8
0
 10
2.6583058834075928
 20
3.5658395290374756
 30
0.05862903594970703
 11
2.656770944595337
 21
3.560779571533203
 31
0.05862903594970703
 12
2.66563081741333
 22
3.557109832763672
 32
0.03925824165344238
 13
2.6677114963531494
 23
3.5639686584472656
 33
0.03925824165344238
  0
3DFACE
  8
0
 10
2.656770944595337
 20
3.560779571533203
 30
0.05862903594970703
 11
2.65427827835083
 21
3.5561163425445557
 31
0.05862903594970703
 12
2.662252187728882
 22
3.550788402557373
 32
0.03925824165344238
 13
2.66563081741333
 23
3.557109832763672
 33
0.03925824165344238
  0
3DFACE
  8
0
 10
2.65427827835083
 20
3.5561163425445557
 30
0.05862903594970703
 11
2.65092396736145
 21
3.5520288944244385
 31
0.05862903594970703
 12
2.657705068588257
 22
3.545247793197632
 32
0.03925824165344238
 13
2.662252187728882
 23
3.550788402557373
 33
0.03925824165344238
  0
3DFACE
  8
0
 10
2.65092396736145
 20
3.5520288944244385
 30
0.05862903594970703
 11
2.646836519241333
 21
3.5486745834350586
 31
0.05862903594970703
 12
2.6521644592285156
 22
3.540700674057007
 32
0.03925824165344238
 13
2.657705068588257
 23
3.545247793197632
 33
0.03925824165344238
  0
3DFACE
  8
0
 10
2.646836519241333
 20
3.5486745834350586
 30
0.05862903594970703
 11
2.6421732902526855
 21
3.5461819171905518
 31
0.05862903594970703
 12
2.645843029022217
 22
3.5373220443725586
 32
0.03925824165344238
 13
2.6521644592285156
 23
3.540700674057007
 33
0.03925824165344238
  0
3DFACE
  8
0
 10
2.6421732902526855
 20
3.5461819171905518
 30
0.05862903594970703
 11
2.637113332748413
 21
3.544646978378296
 31
0.05862903594970703
 12
2.638984203338623
 22
3.5352413654327393
 32
0.03925824165344238
 13
2.645843029022217
 23
3.5373220443725586
 33
0.03925824165344238
  0
3DFACE
  8
0
 10
2.637113332748413
 20
3.544646978378296
 30
0.05862903594970703
 11
2.6318511962890625
 21
3.544128656387329
 31
0.05862903594970703
 12
2.6318511962890625
 22
3.534538745880127
 32
0.03925824165344238
 13
2.638984203338623
 23
3.5352413654327393
 33
0.03925824165344238
  0
3DFACE
  8
0
 10
2.6318511962890625
 20
3.544128656387329
 30
0.05862903594970703
 11
2.626589059829712
 21
3.544646978378296
 31
0.05862903594970703
 12
2.624717950820923
 22
3.5352413654327393
 32
0.03925824165344238
 13
2.6318511962890625
 23
3.534538745880127
 33
0.03925824165344238
  0
3DFACE
  8
0
 10
2.626589059829712
 20
3.544646978378296
 30
0.05862903594970703
 11
2.6215291023254395
 21
3.5461819171905518
 31
0.05862903594970703
 12
2.617859125137329
 22
3.5373220443725586
 32
0.03925824165344238
 13
2.624717950820923
 23
3.5352413654327393
 33
0.03925824165344238
  0
3DFACE
  8
0
 10
2.6215291023254395
 20
3.5461819171905518
 30
0.05862903594970703
 11
2.616865634918213
 21
3.5486745834350586
 31
0.05862903594970703
 12
2.6115379333496094
 22
3.540700912475586
 32
0.03925824165344238
 13
2.617859125137329
 23
3.5373220443725586
 33
0.03925824165344238
  0
3DFACE
  8
0
 10
2.616865634918213
 20
3.5486745834350586
 30
0.05862903594970703
 11
2.612778425216675
 21
3.5520288944244385
 31
0.05862903594970703
 12
2.605997323989868
 22
3.545247793197632
 32
0.03925824165344238
 13
2.6115379333496094
 23
3.540700912475586
 33
0.03925824165344238
  0
3DFACE
  8
0
 10
2.612778425216675
 20
3.5520288944244385
 30
0.05862903594970703
 11
2.609423875808716
 21
3.5561163425445557
 31
0.05862903594970703
 12
2.601450204849243
 22
3.550788402557373
 32
0.03925824165344238
 13
2.605997323989868
 23
3.545247793197632
 33
0.03925824165344238
  0
3DFACE
  8
0
 10
2.609423875808716
 20
3.5561163425445557
 30
0.05862903594970703
 11
2.606931209564209
 21
3.560779571533203
 31
0.05862903594970703
 12
2.598071336746216
 22
3.557109832763672
 32
0.03925824165344238
 13
2.601450204849243
 23
3.550788402557373
 33
0.03925824165344238
  0
3DFACE
  8
0
 10
2.606931209564209
 20
3.560779571533203
 30
0.05862903594970703
 11
2.6053965091705322
 21
3.5658395290374756
 31
0.05862903594970703
 12
2.5959906578063965
 22
3.5639686584472656
 32
0.03925824165344238
 13
2.598071336746216
 23
3.557109832763672
 33
0.03925824165344238
  0
3DFACE
  8
0
 10
2.6053965091705322
 20
3.5658395290374756
 30
0.05862903594970703
 11
2.6048781871795654
 21
3.571101665496826
 31
0.05862903594970703
 12
2.5952882766723633
 22
3.571101665496826
 32
0.03925824165344238
 13
2.5959906578063965
 23
3.5639686584472656
 33
0.03925824165344238
  0
3DFACE
  8
0
 10
2.6048781871795654
 20
3.571101665496826
 30
0.05862903594970703
 11
2.6053965091705322
 21
3.5763638019561768
 31
0.05862903594970703
 12
2.5959906578063965
 22
3.5782346725463867
 32
0.03925824165344238
 13
2.5952882766723633
 23
3.571101665496826
 33
0.03925824165344238
  0
3DFACE
  8
0
 10
2.6053965091705322
 20
3.5763638019561768
 30
0.05862903594970703
 11
2.606931447982788
 21
3.581423759460449
 31
0.05862903594970703
 12
2.598071575164795
 22
3.5850937366485596
 32
0.03925824165344238
 13
2.5959906578063965
 23
3.5782346725463867
 33
0.03925824165344238
  0
3DFACE
  8
0
 10
2.606931447982788
 20
3.581423759460449
 30
0.05862903594970703
 11
2.609423875808716
 21
3.586087226867676
 31
0.05862903594970703
 12
2.601450204849243
 22
3.5914149284362793
 32
0.03925824165344238
 13
2.598071575164795
 23
3.5850937366485596
 33
0.03925824165344238
  0
3DFACE
  8
0
 10
2.609423875808716
 20
3.586087226867676
 30
0.05862903594970703
 11
2.612778425216675
 21
3.590174436569214
 31
0.05862903594970703
 12
2.605997323989868
 22
3.5969555377960205
 32
0.03925824165344238
 13
2.601450204849243
 23
3.5914149284362793
 33
0.03925824165344238
  0
3DFACE
  8
0
 10
2.612778425216675
 20
3.590174436569214
 30
0.05862903594970703
 11
2.616865873336792
 21
3.5935287475585938
 31
0.05862903594970703
 12
2.6115379333496094
 22
3.6015026569366455
 32
0.03925824165344238
 13
2.605997323989868
 23
3.5969555377960205
 33
0.03925824165344238
  0
3DFACE
  8
0
 10
2.616865873336792
 20
3.5935287475585938
 30
0.05862903594970703
 11
2.6215291023254395
 21
3.5960214138031006
 31
0.05862903594970703
 12
2.617859125137329
 22
3.6048812866210938
 32
0.03925824165344238
 13
2.6115379333496094
 23
3.6015026569366455
 33
0.03925824165344238
  0
3DFACE
  8
0
 10
2.6215291023254395
 20
3.5960214138031006
 30
0.05862903594970703
 11
2.626589059829712
 21
3.5975563526153564
 31
0.05862903594970703
 12
2.624718189239502
 22
3.606961965560913
 32
0.03925824165344238
 13
2.617859125137329
 23
3.6048812866210938
 33
0.03925824165344238
  0
3DFACE
  8
0
 10
2.626589059829712
 20
3.5975563526153564
 30
0.05862903594970703
 11
2.6318511962890625
 21
3.5980746746063232
 31
0.05862903594970703
 12
2.6318511962890625
 22
3.6076645851135254
 32
0.03925824165344238
 13
2.624718189239502
 23
3.606961965560913
 33
0.03925824165344238
  0
3DFACE
  8
0
 10
2.6318511962890625
 20
3.5980746746063232
 30
0.05862903594970703
 11
2.637113332748413
 21
3.5975563526153564
 31
0.05862903594970703
 12
2.638984203338623
 22
3.606961965560913
 32
0.03925824165344238
 13
2.6318511962890625
 23
3.6076645851135254
 33
0.03925824165344238
  0
3DFACE
  8
0
 10
2.637113332748413
 20
3.5975563526153564
 30
0.05862903594970703
 11
2.6421732902526855
 21
3.5960214138031006
 31
0.05862903594970703
 12
2.645843267440796
 22
3.6048812866210938
 32
0.03925824165344238
 13
2.638984203338623
 23
3.606961965560913
 33
0.03925824165344238
  0
3DFACE
  8
0
 10
2.6421732902526855
 20
3.5960214138031006
 30
0.05862903594970703
 11
2.646836519241333
 21
3.5935287475585938
 31
0.05862903594970703
 12
2.6521644592285156
 22
3.6015024185180664
 32
0.03925824165344238
 13
2.645843267440796
 23
3.6048812866210938
 33
0.03925824165344238
  0
3DFACE
  8
0
 10
2.646836519241333
 20
3.5935287475585938
 30
0.05862903594970703
 11
2.65092396736145
 21
3.590174436569214
 31
0.05862903594970703
 12
2.657705068588257
 22
3.5969555377960205
 32
0.03925824165344238
 13
2.6521644592285156
 23
3.6015024185180664
 33
0.03925824165344238
  0
3DFACE
  8
0
 10
1.6401063203811646
 20
5.151979446411133
 30
0.075286865234375
 11
1.640106439590454
 21
5.151979446411133
 31
0.7394255995750427
 12
1.6444590091705322
 22
5.1466755867004395
 32
0.7394255995750427
 13
1.6444590091705322
 23
5.146676063537598
 33
0.075286865234375
  0
3DFACE
  8
0
 10
1.6444590091705322
 20
5.146676063537598
 30
0.075286865234375
 11
1.6444590091705322
 21
5.1466755867004395
 31
0.7394255995750427
 12
1.647693395614624
 22
5.140624523162842
 32
0.7394255995750427
 13
1.647693395614624
 23
5.140625
 33
0.075286865234375
  0
3DFACE
  8
0
 10
1.647693395614624
 20
5.140625
 30
0.075286865234375
 11
1.647693395614624
 21
5.140624523162842
 31
0.7394255995750427
 12
1.6496851444244385
 22
5.134058952331543
 32
0.7394255995750427
 13
1.6496851444244385
 23
5.134058952331543
 33
0.075286865234375
  0
3DFACE
  8
0
 10
1.6496851444244385
 20
5.134058952331543
 30
0.075286865234375
 11
1.6496851444244385
 21
5.134058952331543
 31
0.7394255995750427
 12
1.6503576040267944
 22
5.127230644226074
 32
0.7394255995750427
 13
1.6503576040267944
 23
5.127230644226074
 33
0.075286865234375
  0
3DFACE
  8
0
 10
1.6503576040267944
 20
5.127230644226074
 30
0.075286865234375
 11
1.6503576040267944
 21
5.127230644226074
 31
0.7394255995750427
 12
1.649685025215149
 22
5.120402812957764
 32
0.7394255995750427
 13
1.6496851444244385
 23
5.120402812957764
 33
0.075286865234375
  0
3DFACE
  8
0
 10
1.6496851444244385
 20
5.120402812957764
 30
0.075286865234375
 11
1.649685025215149
 21
5.120402812957764
 31
0.7394255995750427
 12
1.647693395614624
 22
5.113836765289307
 32
0.7394255995750427
 13
1.647693395614624
 23
5.113836765289307
 33
0.075286865234375
  0
3DFACE
  8
0
 10
1.647693395614624
 20
5.113836765289307
 30
0.075286865234375
 11
1.647693395614624
 21
5.113836765289307
 31
0.7394255995750427
 12
1.6444590091705322
 22
5.107785701751709
 32
0.7394255995750427
 13
1.6444590091705322
 23
5.107786178588867
 33
0.075286865234375
  0
3DFACE
  8
0
 10
1.6444590091705322
 20
5.107786178588867
 30
0.075286865234375
 11
1.6444590091705322
 21
5.107785701751709
 31
0.7394255995750427
 12
1.6401063203811646
 22
5.102482318878174
 32
0.7394255995750427
 13
1.6401063203811646
 23
5.102482318878174
 33
0.075286865234375
  0
3DFACE
  8
0
 10
1.6401063203811646
 20
5.102482318878174
 30
0.075286865234375
 11
1.6401063203811646
 21
5.102482318878174
 31
0.7394255995750427
 12
1.6348025798797607
 22
5.0981292724609375
 32
0.7394255995750427
 13
1.6348025798797607
 23
5.0981292724609375
 33
0.075286865234375
  0
3DFACE
  8
0
 10
1.6348025798797607
 20
5.0981292724609375
 30
0.075286865234375
 11
1.6348025798797607
 21
5.0981292724609375
 31
0.7394255995750427
 12
1.628751516342163
 22
5.094894886016846
 32
0.7394255995750427
 13
1.628751516342163
 23
5.094894886016846
 33
0.075286865234375
  0
3DFACE
  8
0
 10
1.628751516342163
 20
5.094894886016846
 30
0.075286865234375
 11
1.628751516342163
 21
5.094894886016846
 31
0.7394255995750427
 12
1.6221857070922852
 22
5.0929036140441895
 32
0.7394255995750427
 13
1.6221857070922852
 23
5.0929036140441895
 33
0.075286865234375
  0
3DFACE
  8
0
 10
1.6221857070922852
 20
5.0929036140441895
 30
0.075286865234375
 11
1.6221857070922852
 21
5.0929036140441895
 31
0.7394255995750427
 12
1.6153576374053955
 22
5.092230796813965
 32
0.7394255995750427
 13
1.6153576374053955
 23
5.092230796813965
 33
0.075286865234375
  0
3DFACE
  8
0
 10
1.6153576374053955
 20
5.092230796813965
 30
0.075286865234375
 11
1.6153576374053955
 21
5.092230796813965
 31
0.7394255995750427
 12
1.6085294485092163
 22
5.092903137207031
 32
0.7394255995750427
 13
1.6085293292999268
 23
5.0929036140441895
 33
0.075286865234375
  0
3DFACE
  8
0
 10
1.6085293292999268
 20
5.0929036140441895
 30
0.075286865234375
 11
1.6085294485092163
 21
5.092903137207031
 31
0.7394255995750427
 12
1.601963758468628
 22
5.094894886016846
 32
0.7394255995750427
 13
1.6019636392593384
 23
5.094894886016846
 33
0.075286865234375
  0
3DFACE
  8
0
 10
1.6019636392593384
 20
5.094894886016846
 30
0.075286865234375
 11
1.601963758468628
 21
5.094894886016846
 31
0.7394255995750427
 12
1.5959126949310303
 22
5.0981292724609375
 32
0.7394255995750427
 13
1.5959125757217407
 23
5.0981292724609375
 33
0.075286865234375
  0
3DFACE
  8
0
 10
1.5959125757217407
 20
5.0981292724609375
 30
0.075286865234375
 11
1.5959126949310303
 21
5.0981292724609375
 31
0.7394255995750427
 12
1.590608835220337
 22
5.102481842041016
 32
0.7394255995750427
 13
1.590608835220337
 23
5.102482318878174
 33
0.075286865234375
  0
3DFACE
  8
0
 10
1.590608835220337
 20
5.102482318878174
 30
0.075286865234375
 11
1.590608835220337
 21
5.102481842041016
 31
0.7394255995750427
 12
1.5862562656402588
 22
5.107785701751709
 32
0.7394255995750427
 13
1.5862561464309692
 23
5.107786178588867
 33
0.075286865234375
  0
3DFACE
  8
0
 10
1.5862561464309692
 20
5.107786178588867
 30
0.075286865234375
 11
1.5862562656402588
 21
5.107785701751709
 31
0.7394255995750427
 12
1.583021879196167
 22
5.113836765289307
 32
0.7394255995750427
 13
1.5830217599868774
 23
5.113837242126465
 33
0.075286865234375
  0
3DFACE
  8
0
 10
1.5830217599868774
 20
5.113837242126465
 30
0.075286865234375
 11
1.583021879196167
 21
5.113836765289307
 31
0.7394255995750427
 12
1.5810301303863525
 22
5.120402812957764
 32
0.7394255995750427
 13
1.5810301303863525
 23
5.120402812957764
 33
0.075286865234375
  0
3DFACE
  8
0
 10
1.5810301303863525
 20
5.120402812957764
 30
0.075286865234375
 11
1.5810301303863525
 21
5.120402812957764
 31
0.7394255995750427
 12
1.580357551574707
 22
5.127230644226074
 32
0.7394255995750427
 13
1.580357551574707
 23
5.127231121063232
 33
0.075286865234375
  0
3DFACE
  8
0
 10
1.580357551574707
 20
5.127231121063232
 30
0.075286865234375
 11
1.580357551574707
 21
5.127230644226074
 31
0.7394255995750427
 12
1.5810301303863525
 22
5.134058952331543
 32
0.7394255995750427
 13
1.5810301303863525
 23
5.134058952331543
 33
0.075286865234375
  0
3DFACE
  8
0
 10
1.5810301303863525
 20
5.134058952331543
 30
0.075286865234375
 11
1.5810301303863525
 21
5.134058952331543
 31
0.7394255995750427
 12
1.5830217599868774
 22
5.140624523162842
 32
0.7394255995750427
 13
1.583021879196167
 23
5.140625
 33
0.075286865234375
  0
3DFACE
  8
0
 10
1.583021879196167
 20
5.140625
 30
0.075286865234375
 11
1.5830217599868774
 21
5.140624523162842
 31
0.7394255995750427
 12
1.5862560272216797
 22
5.1466755867004395
 32
0.7394255995750427
 13
1.5862561464309692
 23
5.146676063537598
 33
0.075286865234375
  0
3DFACE
  8
0
 10
1.5862561464309692
 20
5.146676063537598
 30
0.075286865234375
 11
1.5862560272216797
 21
5.1466755867004395
 31
0.7394255995750427
 12
1.5906087160110474
 22
5.151979446411133
 32
0.7394255995750427
 13
1.590608835220337
 23
5.151979446411133
 33
0.075286865234375
  0
3DFACE
  8
0
 10
1.590608835220337
 20
5.151979446411133
 30
0.075286865234375
 11
1.5906087160110474
 21
5.151979446411133
 31
0.7394255995750427
 12
1.5959124565124512
 22
5.156332015991211
 32
0.7394255995750427
 13
1.5959126949310303
 23
5.156332492828369
 33
0.075286865234375
  0
3DFACE
  8
0
 10
1.5959126949310303
 20
5.156332492828369
 30
0.075286865234375
 11
1.5959124565124512
 21
5.156332015991211
 31
0.7394255995750427
 12
1.6019635200500488
 22
5.159566402435303
 32
0.7394255995750427
 13
1.601963758468628
 23
5.159566879272461
 33
0.075286865234375
  0
3DFACE
  8
0
 10
1.601963758468628
 20
5.159566879272461
 30
0.075286865234375
 11
1.6019635200500488
 21
5.159566402435303
 31
0.7394255995750427
 12
1.6085292100906372
 22
5.161558151245117
 32
0.7394255995750427
 13
1.6085294485092163
 23
5.161558151245117
 33
0.075286865234375
  0
3DFACE
  8
0
 10
1.6085294485092163
 20
5.161558151245117
 30
0.075286865234375
 11
1.6085292100906372
 21
5.161558151245117
 31
0.7394255995750427
 12
1.6153573989868164
 22
5.162230968475342
 32
0.7394255995750427
 13
1.6153576374053955
 23
5.162230968475342
 33
0.075286865234375
  0
3DFACE
  8
0
 10
1.6153576374053955
 20
5.162230968475342
 30
0.075286865234375
 11
1.6153573989868164
 21
5.162230968475342
 31
0.7394255995750427
 12
1.622185468673706
 22
5.161558151245117
 32
0.7394255995750427
 13
1.6221858263015747
 23
5.161558151245117
 33
0.075286865234375
  0
3DFACE
  8
0
 10
1.6221858263015747
 20
5.161558151245117
 30
0.075286865234375
 11
1.622185468673706
 21
5.161558151245117
 31
0.7394255995750427
 12
1.628751277923584
 22
5.159566879272461
 32
0.7394255995750427
 13
1.628751516342163
 23
5.159566879272461
 33
0.075286865234375
  0
3DFACE
  8
0
 10
1.628751516342163
 20
5.159566879272461
 30
0.075286865234375
 11
1.628751277923584
 21
5.159566879272461
 31
0.7394255995750427
 12
1.6348023414611816
 22
5.156332492828369
 32
0.7394255995750427
 13
1.6348025798797607
 23
5.156332015991211
 33
0.075286865234375
  0
3DFACE
  8
0
 10
1.640106439590454
 20
5.151979446411133
 30
0.7394255995750427
 11
1.6401063203811646
 21
5.151979446411133
 31
0.075286865234375
 12
1.6348025798797607
 22
5.156332015991211
 32
0.075286865234375
 13
1.6348023414611816
 23
5.156332492828369
 33
0.7394255995750427
  0
3DFACE
  8
0
 10
1.6401063203811646
 20
5.151979446411133
 30
0.075286865234375
 11
1.6444590091705322
 21
5.146676063537598
 31
0.075286865234375
 12
1.637784719467163
 22
5.142216205596924
 32
0.075286865234375
 13
1.6344304084777832
 23
5.146303653717041
 33
0.075286865234375
  0
3DFACE
  8
0
 10
1.6444590091705322
 20
5.146676063537598
 30
0.075286865234375
 11
1.647693395614624
 21
5.140625
 31
0.075286865234375
 12
1.64027738571167
 22
5.1375532150268555
 32
0.075286865234375
 13
1.637784719467163
 23
5.142216205596924
 33
0.075286865234375
  0
3DFACE
  8
0
 10
1.647693395614624
 20
5.140625
 30
0.075286865234375
 11
1.6496851444244385
 21
5.134058952331543
 31
0.075286865234375
 12
1.6418123245239258
 22
5.132493019104004
 32
0.075286865234375
 13
1.64027738571167
 23
5.1375532150268555
 33
0.075286865234375
  0
3DFACE
  8
0
 10
1.6496851444244385
 20
5.134058952331543
 30
0.075286865234375
 11
1.6503576040267944
 21
5.127230644226074
 31
0.075286865234375
 12
1.642330527305603
 22
5.127230644226074
 32
0.075286865234375
 13
1.6418123245239258
 23
5.132493019104004
 33
0.075286865234375
  0
3DFACE
  8
0
 10
1.6503576040267944
 20
5.127230644226074
 30
0.075286865234375
 11
1.6496851444244385
 21
5.120402812957764
 31
0.075286865234375
 12
1.6418123245239258
 22
5.121968746185303
 32
0.075286865234375
 13
1.642330527305603
 23
5.127230644226074
 33
0.075286865234375
  0
3DFACE
  8
0
 10
1.6496851444244385
 20
5.120402812957764
 30
0.075286865234375
 11
1.647693395614624
 21
5.113836765289307
 31
0.075286865234375
 12
1.64027738571167
 22
5.116909027099609
 32
0.075286865234375
 13
1.6418123245239258
 23
5.121968746185303
 33
0.075286865234375
  0
3DFACE
  8
0
 10
1.647693395614624
 20
5.113836765289307
 30
0.075286865234375
 11
1.6444590091705322
 21
5.107786178588867
 31
0.075286865234375
 12
1.637784719467163
 22
5.112245559692383
 32
0.075286865234375
 13
1.64027738571167
 23
5.116909027099609
 33
0.075286865234375
  0
3DFACE
  8
0
 10
1.6444590091705322
 20
5.107786178588867
 30
0.075286865234375
 11
1.6401063203811646
 21
5.102482318878174
 31
0.075286865234375
 12
1.6344304084777832
 22
5.108158111572266
 32
0.075286865234375
 13
1.637784719467163
 23
5.112245559692383
 33
0.075286865234375
  0
3DFACE
  8
0
 10
1.6401063203811646
 20
5.102482318878174
 30
0.075286865234375
 11
1.6348025798797607
 21
5.0981292724609375
 31
0.075286865234375
 12
1.630342960357666
 22
5.104803562164307
 32
0.075286865234375
 13
1.6344304084777832
 23
5.108158111572266
 33
0.075286865234375
  0
3DFACE
  8
0
 10
1.6348025798797607
 20
5.0981292724609375
 30
0.075286865234375
 11
1.628751516342163
 21
5.094894886016846
 31
0.075286865234375
 12
1.6256797313690186
 22
5.102311134338379
 32
0.075286865234375
 13
1.630342960357666
 23
5.104803562164307
 33
0.075286865234375
  0
3DFACE
  8
0
 10
1.628751516342163
 20
5.094894886016846
 30
0.075286865234375
 11
1.6221857070922852
 21
5.0929036140441895
 31
0.075286865234375
 12
1.620619773864746
 22
5.100776195526123
 32
0.075286865234375
 13
1.6256797313690186
 23
5.102311134338379
 33
0.075286865234375
  0
3DFACE
  8
0
 10
1.6221857070922852
 20
5.0929036140441895
 30
0.075286865234375
 11
1.6153576374053955
 21
5.092230796813965
 31
0.075286865234375
 12
1.6153576374053955
 22
5.100257873535156
 32
0.075286865234375
 13
1.620619773864746
 23
5.100776195526123
 33
0.075286865234375
  0
3DFACE
  8
0
 10
1.6153576374053955
 20
5.092230796813965
 30
0.075286865234375
 11
1.6085293292999268
 21
5.0929036140441895
 31
0.075286865234375
 12
1.6100953817367554
 22
5.100776195526123
 32
0.075286865234375
 13
1.6153576374053955
 23
5.100257873535156
 33
0.075286865234375
  0
3DFACE
  8
0
 10
1.6085293292999268
 20
5.0929036140441895
 30
0.075286865234375
 11
1.6019636392593384
 21
5.094894886016846
 31
0.075286865234375
 12
1.6050355434417725
 22
5.102311134338379
 32
0.075286865234375
 13
1.6100953817367554
 23
5.100776195526123
 33
0.075286865234375
  0
3DFACE
  8
0
 10
1.6019636392593384
 20
5.094894886016846
 30
0.075286865234375
 11
1.5959125757217407
 21
5.0981292724609375
 31
0.075286865234375
 12
1.6003721952438354
 22
5.104803562164307
 32
0.075286865234375
 13
1.6050355434417725
 23
5.102311134338379
 33
0.075286865234375
  0
3DFACE
  8
0
 10
1.5959125757217407
 20
5.0981292724609375
 30
0.075286865234375
 11
1.590608835220337
 21
5.102482318878174
 31
0.075286865234375
 12
1.5962848663330078
 22
5.108158111572266
 32
0.075286865234375
 13
1.6003721952438354
 23
5.104803562164307
 33
0.075286865234375
  0
3DFACE
  8
0
 10
1.590608835220337
 20
5.102482318878174
 30
0.075286865234375
 11
1.5862561464309692
 21
5.107786178588867
 31
0.075286865234375
 12
1.5929303169250488
 22
5.112245559692383
 32
0.075286865234375
 13
1.5962848663330078
 23
5.108158111572266
 33
0.075286865234375
  0
3DFACE
  8
0
 10
1.5862561464309692
 20
5.107786178588867
 30
0.075286865234375
 11
1.5830217599868774
 21
5.113837242126465
 31
0.075286865234375
 12
1.5904377698898315
 22
5.116909027099609
 32
0.075286865234375
 13
1.5929303169250488
 23
5.112245559692383
 33
0.075286865234375
  0
3DFACE
  8
0
 10
1.5830217599868774
 20
5.113837242126465
 30
0.075286865234375
 11
1.5810301303863525
 21
5.120402812957764
 31
0.075286865234375
 12
1.5889029502868652
 22
5.121968746185303
 32
0.075286865234375
 13
1.5904377698898315
 23
5.116909027099609
 33
0.075286865234375
  0
3DFACE
  8
0
 10
1.5810301303863525
 20
5.120402812957764
 30
0.075286865234375
 11
1.580357551574707
 21
5.127231121063232
 31
0.075286865234375
 12
1.5883846282958984
 22
5.127231121063232
 32
0.075286865234375
 13
1.5889029502868652
 23
5.121968746185303
 33
0.075286865234375
  0
3DFACE
  8
0
 10
1.580357551574707
 20
5.127231121063232
 30
0.075286865234375
 11
1.5810301303863525
 21
5.134058952331543
 31
0.075286865234375
 12
1.5889029502868652
 22
5.132493019104004
 32
0.075286865234375
 13
1.5883846282958984
 23
5.127231121063232
 33
0.075286865234375
  0
3DFACE
  8
0
 10
1.5810301303863525
 20
5.134058952331543
 30
0.075286865234375
 11
1.583021879196167
 21
5.140625
 31
0.075286865234375
 12
1.590437889099121
 22
5.1375532150268555
 32
0.075286865234375
 13
1.5889029502868652
 23
5.132493019104004
 33
0.075286865234375
  0
3DFACE
  8
0
 10
1.583021879196167
 20
5.140625
 30
0.075286865234375
 11
1.5862561464309692
 21
5.146676063537598
 31
0.075286865234375
 12
1.5929303169250488
 22
5.142216205596924
 32
0.075286865234375
 13
1.590437889099121
 23
5.1375532150268555
 33
0.075286865234375
  0
3DFACE
  8
0
 10
1.5862561464309692
 20
5.146676063537598
 30
0.075286865234375
 11
1.590608835220337
 21
5.151979446411133
 31
0.075286865234375
 12
1.5962848663330078
 22
5.146303653717041
 32
0.075286865234375
 13
1.5929303169250488
 23
5.142216205596924
 33
0.075286865234375
  0
3DFACE
  8
0
 10
1.590608835220337
 20
5.151979446411133
 30
0.075286865234375
 11
1.5959126949310303
 21
5.156332492828369
 31
0.075286865234375
 12
1.6003721952438354
 22
5.149658203125
 32
0.075286865234375
 13
1.5962848663330078
 23
5.146303653717041
 33
0.075286865234375
  0
3DFACE
  8
0
 10
1.5959126949310303
 20
5.156332492828369
 30
0.075286865234375
 11
1.601963758468628
 21
5.159566879272461
 31
0.075286865234375
 12
1.6050355434417725
 22
5.152150630950928
 32
0.075286865234375
 13
1.6003721952438354
 23
5.149658203125
 33
0.075286865234375
  0
3DFACE
  8
0
 10
1.601963758468628
 20
5.159566879272461
 30
0.075286865234375
 11
1.6085294485092163
 21
5.161558151245117
 31
0.075286865234375
 12
1.610095500946045
 22
5.153685569763184
 32
0.075286865234375
 13
1.6050355434417725
 23
5.152150630950928
 33
0.075286865234375
  0
3DFACE
  8
0
 10
1.6085294485092163
 20
5.161558151245117
 30
0.075286865234375
 11
1.6153576374053955
 21
5.162230968475342
 31
0.075286865234375
 12
1.6153576374053955
 22
5.15420389175415
 32
0.075286865234375
 13
1.610095500946045
 23
5.153685569763184
 33
0.075286865234375
  0
3DFACE
  8
0
 10
1.6153576374053955
 20
5.162230968475342
 30
0.075286865234375
 11
1.6221858263015747
 21
5.161558151245117
 31
0.075286865234375
 12
1.620619773864746
 22
5.153685569763184
 32
0.075286865234375
 13
1.6153576374053955
 23
5.15420389175415
 33
0.075286865234375
  0
3DFACE
  8
0
 10
1.6221858263015747
 20
5.161558151245117
 30
0.075286865234375
 11
1.628751516342163
 21
5.159566879272461
 31
0.075286865234375
 12
1.6256797313690186
 22
5.152150630950928
 32
0.075286865234375
 13
1.620619773864746
 23
5.153685569763184
 33
0.075286865234375
  0
3DFACE
  8
0
 10
1.628751516342163
 20
5.159566879272461
 30
0.075286865234375
 11
1.6348025798797607
 21
5.156332015991211
 31
0.075286865234375
 12
1.630342960357666
 22
5.149658203125
 32
0.075286865234375
 13
1.6256797313690186
 23
5.152150630950928
 33
0.075286865234375
  0
3DFACE
  8
0
 10
1.6348025798797607
 20
5.156332015991211
 30
0.075286865234375
 11
1.6401063203811646
 21
5.151979446411133
 31
0.075286865234375
 12
1.6344304084777832
 22
5.146303653717041
 32
0.075286865234375
 13
1.630342960357666
 23
5.149658203125
 33
0.075286865234375
  0
3DFACE
  8
0
 10
1.6344304084777832
 20
5.146303653717041
 30
0.075286865234375
 11
1.637784719467163
 21
5.142216205596924
 31
0.075286865234375
 12
1.637784719467163
 22
5.142216205596924
 32
0.05862903594970703
 13
1.6344304084777832
 23
5.146303653717041
 33
0.05862903594970703
  0
3DFACE
  8
0
 10
1.637784719467163
 20
5.142216205596924
 30
0.075286865234375
 11
1.64027738571167
 21
5.1375532150268555
 31
0.075286865234375
 12
1.64027738571167
 22
5.1375532150268555
 32
0.05862903594970703
 13
1.637784719467163
 23
5.142216205596924
 33
0.05862903594970703
  0
3DFACE
  8
0
 10
1.64027738571167
 20
5.1375532150268555
 30
0.075286865234375
 11
1.6418123245239258
 21
5.132493019104004
 31
0.075286865234375
 12
1.6418123245239258
 22
5.132493019104004
 32
0.05862903594970703
 13
1.64027738571167
 23
5.1375532150268555
 33
0.05862903594970703
  0
3DFACE
  8
0
 10
1.6418123245239258
 20
5.132493019104004
 30
0.075286865234375
 11
1.642330527305603
 21
5.127230644226074
 31
0.075286865234375
 12
1.642330527305603
 22
5.127230644226074
 32
0.05862903594970703
 13
1.6418123245239258
 23
5.132493019104004
 33
0.05862903594970703
  0
3DFACE
  8
0
 10
1.642330527305603
 20
5.127230644226074
 30
0.075286865234375
 11
1.6418123245239258
 21
5.121968746185303
 31
0.075286865234375
 12
1.6418123245239258
 22
5.121968746185303
 32
0.05862903594970703
 13
1.642330527305603
 23
5.127230644226074
 33
0.05862903594970703
  0
3DFACE
  8
0
 10
1.6418123245239258
 20
5.121968746185303
 30
0.075286865234375
 11
1.64027738571167
 21
5.116909027099609
 31
0.075286865234375
 12
1.64027738571167
 22
5.116909027099609
 32
0.05862903594970703
 13
1.6418123245239258
 23
5.121968746185303
 33
0.05862903594970703
  0
3DFACE
  8
0
 10
1.64027738571167
 20
5.116909027099609
 30
0.075286865234375
 11
1.637784719467163
 21
5.112245559692383
 31
0.075286865234375
 12
1.637784719467163
 22
5.112245559692383
 32
0.05862903594970703
 13
1.64027738571167
 23
5.116909027099609
 33
0.05862903594970703
  0
3DFACE
  8
0
 10
1.637784719467163
 20
5.112245559692383
 30
0.075286865234375
 11
1.6344304084777832
 21
5.108158111572266
 31
0.075286865234375
 12
1.6344304084777832
 22
5.108158111572266
 32
0.05862903594970703
 13
1.637784719467163
 23
5.112245559692383
 33
0.05862903594970703
  0
3DFACE
  8
0
 10
1.6344304084777832
 20
5.108158111572266
 30
0.075286865234375
 11
1.630342960357666
 21
5.104803562164307
 31
0.075286865234375
 12
1.630342960357666
 22
5.104803562164307
 32
0.05862903594970703
 13
1.6344304084777832
 23
5.108158111572266
 33
0.05862903594970703
  0
3DFACE
  8
0
 10
1.630342960357666
 20
5.104803562164307
 30
0.075286865234375
 11
1.6256797313690186
 21
5.102311134338379
 31
0.075286865234375
 12
1.6256797313690186
 22
5.102311134338379
 32
0.05862903594970703
 13
1.630342960357666
 23
5.104803562164307
 33
0.05862903594970703
  0
3DFACE
  8
0
 10
1.6256797313690186
 20
5.102311134338379
 30
0.075286865234375
 11
1.620619773864746
 21
5.100776195526123
 31
0.075286865234375
 12
1.620619773864746
 22
5.100776195526123
 32
0.05862903594970703
 13
1.6256797313690186
 23
5.102311134338379
 33
0.05862903594970703
  0
3DFACE
  8
0
 10
1.620619773864746
 20
5.100776195526123
 30
0.075286865234375
 11
1.6153576374053955
 21
5.100257873535156
 31
0.075286865234375
 12
1.6153576374053955
 22
5.100257873535156
 32
0.05862903594970703
 13
1.620619773864746
 23
5.100776195526123
 33
0.05862903594970703
  0
3DFACE
  8
0
 10
1.6153576374053955
 20
5.100257873535156
 30
0.075286865234375
 11
1.6100953817367554
 21
5.100776195526123
 31
0.075286865234375
 12
1.6100953817367554
 22
5.100776195526123
 32
0.05862903594970703
 13
1.6153576374053955
 23
5.100257873535156
 33
0.05862903594970703
  0
3DFACE
  8
0
 10
1.6100953817367554
 20
5.100776195526123
 30
0.075286865234375
 11
1.6050355434417725
 21
5.102311134338379
 31
0.075286865234375
 12
1.6050355434417725
 22
5.102311134338379
 32
0.05862903594970703
 13
1.6100953817367554
 23
5.100776195526123
 33
0.05862903594970703
  0
3DFACE
  8
0
 10
1.6050355434417725
 20
5.102311134338379
 30
0.075286865234375
 11
1.6003721952438354
 21
5.104803562164307
 31
0.075286865234375
 12
1.6003721952438354
 22
5.104803562164307
 32
0.05862903594970703
 13
1.6050355434417725
 23
5.102311134338379
 33
0.05862903594970703
  0
3DFACE
  8
0
 10
1.6003721952438354
 20
5.104803562164307
 30
0.075286865234375
 11
1.5962848663330078
 21
5.108158111572266
 31
0.075286865234375
 12
1.5962848663330078
 22
5.108158111572266
 32
0.05862903594970703
 13
1.6003721952438354
 23
5.104803562164307
 33
0.05862903594970703
  0
3DFACE
  8
0
 10
1.5962848663330078
 20
5.108158111572266
 30
0.075286865234375
 11
1.5929303169250488
 21
5.112245559692383
 31
0.075286865234375
 12
1.5929303169250488
 22
5.112245559692383
 32
0.05862903594970703
 13
1.5962848663330078
 23
5.108158111572266
 33
0.05862903594970703
  0
3DFACE
  8
0
 10
1.5929303169250488
 20
5.112245559692383
 30
0.075286865234375
 11
1.5904377698898315
 21
5.116909027099609
 31
0.075286865234375
 12
1.5904377698898315
 22
5.116909027099609
 32
0.05862903594970703
 13
1.5929303169250488
 23
5.112245559692383
 33
0.05862903594970703
  0
3DFACE
  8
0
 10
1.5904377698898315
 20
5.116909027099609
 30
0.075286865234375
 11
1.5889029502868652
 21
5.121968746185303
 31
0.075286865234375
 12
1.5889029502868652
 22
5.121968746185303
 32
0.05862903594970703
 13
1.5904377698898315
 23
5.116909027099609
 33
0.05862903594970703
  0
3DFACE
  8
0
 10
1.5889029502868652
 20
5.121968746185303
 30
0.075286865234375
 11
1.5883846282958984
 21
5.127231121063232
 31
0.075286865234375
 12
1.5883846282958984
 22
5.127231121063232
 32
0.05862903594970703
 13
1.5889029502868652
 23
5.121968746185303
 33
0.05862903594970703
  0
3DFACE
  8
0
 10
1.5883846282958984
 20
5.127231121063232
 30
0.075286865234375
 11
1.5889029502868652
 21
5.132493019104004
 31
0.075286865234375
 12
1.5889029502868652
 22
5.132493019104004
 32
0.05862903594970703
 13
1.5883846282958984
 23
5.127231121063232
 33
0.05862903594970703
  0
3DFACE
  8
0
 10
1.5889029502868652
 20
5.132493019104004
 30
0.075286865234375
 11
1.590437889099121
 21
5.1375532150268555
 31
0.075286865234375
 12
1.590437889099121
 22
5.1375532150268555
 32
0.05862903594970703
 13
1.5889029502868652
 23
5.132493019104004
 33
0.05862903594970703
  0
3DFACE
  8
0
 10
1.590437889099121
 20
5.1375532150268555
 30
0.075286865234375
 11
1.5929303169250488
 21
5.142216205596924
 31
0.075286865234375
 12
1.5929303169250488
 22
5.142216205596924
 32
0.05862903594970703
 13
1.590437889099121
 23
5.1375532150268555
 33
0.05862903594970703
  0
3DFACE
  8
0
 10
1.5929303169250488
 20
5.142216205596924
 30
0.075286865234375
 11
1.5962848663330078
 21
5.146303653717041
 31
0.075286865234375
 12
1.5962848663330078
 22
5.146303653717041
 32
0.05862903594970703
 13
1.5929303169250488
 23
5.142216205596924
 33
0.05862903594970703
  0
3DFACE
  8
0
 10
1.5962848663330078
 20
5.146303653717041
 30
0.075286865234375
 11
1.6003721952438354
 21
5.149658203125
 31
0.075286865234375
 12
1.6003721952438354
 22
5.149658203125
 32
0.05862903594970703
 13
1.5962848663330078
 23
5.146303653717041
 33
0.05862903594970703
  0
3DFACE
  8
0
 10
1.6003721952438354
 20
5.149658203125
 30
0.075286865234375
 11
1.6050355434417725
 21
5.152150630950928
 31
0.075286865234375
 12
1.6050355434417725
 22
5.152150630950928
 32
0.05862903594970703
 13
1.6003721952438354
 23
5.149658203125
 33
0.05862903594970703
  0
3DFACE
  8
0
 10
1.6050355434417725
 20
5.152150630950928
 30
0.075286865234375
 11
1.610095500946045
 21
5.153685569763184
 31
0.075286865234375
 12
1.610095500946045
 22
5.153685569763184
 32
0.05862903594970703
 13
1.6050355434417725
 23
5.152150630950928
 33
0.05862903594970703
  0
3DFACE
  8
0
 10
1.610095500946045
 20
5.153685569763184
 30
0.075286865234375
 11
1.6153576374053955
 21
5.15420389175415
 31
0.075286865234375
 12
1.6153576374053955
 22
5.15420389175415
 32
0.05862903594970703
 13
1.610095500946045
 23
5.153685569763184
 33
0.05862903594970703
  0
3DFACE
  8
0
 10
1.6153576374053955
 20
5.15420389175415
 30
0.075286865234375
 11
1.620619773864746
 21
5.153685569763184
 31
0.075286865234375
 12
1.620619773864746
 22
5.153685569763184
 32
0.05862903594970703
 13
1.6153576374053955
 23
5.15420389175415
 33
0.05862903594970703
  0
3DFACE
  8
0
 10
1.620619773864746
 20
5.153685569763184
 30
0.075286865234375
 11
1.6256797313690186
 21
5.152150630950928
 31
0.075286865234375
 12
1.6256797313690186
 22
5.152150630950928
 32
0.05862903594970703
 13
1.620619773864746
 23
5.153685569763184
 33
0.05862903594970703
  0
3DFACE
  8
0
 10
1.6256797313690186
 20
5.152150630950928
 30
0.075286865234375
 11
1.630342960357666
 21
5.149658203125
 31
0.075286865234375
 12
1.630342960357666
 22
5.149658203125
 32
0.05862903594970703
 13
1.6256797313690186
 23
5.152150630950928
 33
0.05862903594970703
  0
3DFACE
  8
0
 10
1.630342960357666
 20
5.149658203125
 30
0.075286865234375
 11
1.6344304084777832
 21
5.146303653717041
 31
0.075286865234375
 12
1.6344304084777832
 22
5.146303653717041
 32
0.05862903594970703
 13
1.630342960357666
 23
5.149658203125
 33
0.05862903594970703
  0
3DFACE
  8
0
 10
1.6344304084777832
 20
5.146303653717041
 30
0.05862903594970703
 11
1.637784719467163
 21
5.142216205596924
 31
0.05862903594970703
 12
1.6457585096359253
 22
5.147543907165527
 32
0.03925824165344238
 13
1.6412115097045898
 23
5.153084754943848
 33
0.03925824165344238
  0
3DFACE
  8
0
 10
1.637784719467163
 20
5.142216205596924
 30
0.05862903594970703
 11
1.64027738571167
 21
5.1375532150268555
 31
0.05862903594970703
 12
1.649137258529663
 22
5.141222953796387
 32
0.03925824165344238
 13
1.6457585096359253
 23
5.147543907165527
 33
0.03925824165344238
  0
3DFACE
  8
0
 10
1.64027738571167
 20
5.1375532150268555
 30
0.05862903594970703
 11
1.6418123245239258
 21
5.132493019104004
 31
0.05862903594970703
 12
1.6512179374694824
 22
5.134364128112793
 32
0.03925824165344238
 13
1.649137258529663
 23
5.141222953796387
 33
0.03925824165344238
  0
3DFACE
  8
0
 10
1.6418123245239258
 20
5.132493019104004
 30
0.05862903594970703
 11
1.642330527305603
 21
5.127230644226074
 31
0.05862903594970703
 12
1.6519204378128052
 22
5.127230644226074
 32
0.03925824165344238
 13
1.6512179374694824
 23
5.134364128112793
 33
0.03925824165344238
  0
3DFACE
  8
0
 10
1.642330527305603
 20
5.127230644226074
 30
0.05862903594970703
 11
1.6418123245239258
 21
5.121968746185303
 31
0.05862903594970703
 12
1.6512179374694824
 22
5.120097637176514
 32
0.03925824165344238
 13
1.6519204378128052
 23
5.127230644226074
 33
0.03925824165344238
  0
3DFACE
  8
0
 10
1.6418123245239258
 20
5.121968746185303
 30
0.05862903594970703
 11
1.64027738571167
 21
5.116909027099609
 31
0.05862903594970703
 12
1.649137258529663
 22
5.11323881149292
 32
0.03925824165344238
 13
1.6512179374694824
 23
5.120097637176514
 33
0.03925824165344238
  0
3DFACE
  8
0
 10
1.64027738571167
 20
5.116909027099609
 30
0.05862903594970703
 11
1.637784719467163
 21
5.112245559692383
 31
0.05862903594970703
 12
1.6457585096359253
 22
5.106917381286621
 32
0.03925824165344238
 13
1.649137258529663
 23
5.11323881149292
 33
0.03925824165344238
  0
3DFACE
  8
0
 10
1.637784719467163
 20
5.112245559692383
 30
0.05862903594970703
 11
1.6344304084777832
 21
5.108158111572266
 31
0.05862903594970703
 12
1.6412115097045898
 22
5.101377010345459
 32
0.03925824165344238
 13
1.6457585096359253
 23
5.106917381286621
 33
0.03925824165344238
  0
3DFACE
  8
0
 10
1.6344304084777832
 20
5.108158111572266
 30
0.05862903594970703
 11
1.630342960357666
 21
5.104803562164307
 31
0.05862903594970703
 12
1.6356709003448486
 22
5.096829891204834
 32
0.03925824165344238
 13
1.6412115097045898
 23
5.101377010345459
 33
0.03925824165344238
  0
3DFACE
  8
0
 10
1.630342960357666
 20
5.104803562164307
 30
0.05862903594970703
 11
1.6256797313690186
 21
5.102311134338379
 31
0.05862903594970703
 12
1.6293495893478394
 22
5.093451023101807
 32
0.03925824165344238
 13
1.6356709003448486
 23
5.096829891204834
 33
0.03925824165344238
  0
3DFACE
  8
0
 10
1.6256797313690186
 20
5.102311134338379
 30
0.05862903594970703
 11
1.620619773864746
 21
5.100776195526123
 31
0.05862903594970703
 12
1.622490644454956
 22
5.091370582580566
 32
0.03925824165344238
 13
1.6293495893478394
 23
5.093451023101807
 33
0.03925824165344238
  0
3DFACE
  8
0
 10
1.620619773864746
 20
5.100776195526123
 30
0.05862903594970703
 11
1.6153576374053955
 21
5.100257873535156
 31
0.05862903594970703
 12
1.6153576374053955
 22
5.090668201446533
 32
0.03925824165344238
 13
1.622490644454956
 23
5.091370582580566
 33
0.03925824165344238
  0
3DFACE
  8
0
 10
1.6153576374053955
 20
5.100257873535156
 30
0.05862903594970703
 11
1.6100953817367554
 21
5.100776195526123
 31
0.05862903594970703
 12
1.6082245111465454
 22
5.091370582580566
 32
0.03925824165344238
 13
1.6153576374053955
 23
5.090668201446533
 33
0.03925824165344238
  0
3DFACE
  8
0
 10
1.6100953817367554
 20
5.100776195526123
 30
0.05862903594970703
 11
1.6050355434417725
 21
5.102311134338379
 31
0.05862903594970703
 12
1.601365566253662
 22
5.093451023101807
 32
0.03925824165344238
 13
1.6082245111465454
 23
5.091370582580566
 33
0.03925824165344238
  0
3DFACE
  8
0
 10
1.6050355434417725
 20
5.102311134338379
 30
0.05862903594970703
 11
1.6003721952438354
 21
5.104803562164307
 31
0.05862903594970703
 12
1.5950443744659424
 22
5.096829891204834
 32
0.03925824165344238
 13
1.601365566253662
 23
5.093451023101807
 33
0.03925824165344238
  0
3DFACE
  8
0
 10
1.6003721952438354
 20
5.104803562164307
 30
0.05862903594970703
 11
1.5962848663330078
 21
5.108158111572266
 31
0.05862903594970703
 12
1.5895037651062012
 22
5.101377010345459
 32
0.03925824165344238
 13
1.5950443744659424
 23
5.096829891204834
 33
0.03925824165344238
  0
3DFACE
  8
0
 10
1.5962848663330078
 20
5.108158111572266
 30
0.05862903594970703
 11
1.5929303169250488
 21
5.112245559692383
 31
0.05862903594970703
 12
1.5849566459655762
 22
5.106917858123779
 32
0.03925824165344238
 13
1.5895037651062012
 23
5.101377010345459
 33
0.03925824165344238
  0
3DFACE
  8
0
 10
1.5929303169250488
 20
5.112245559692383
 30
0.05862903594970703
 11
1.5904377698898315
 21
5.116909027099609
 31
0.05862903594970703
 12
1.5815777778625488
 22
5.11323881149292
 32
0.03925824165344238
 13
1.5849566459655762
 23
5.106917858123779
 33
0.03925824165344238
  0
3DFACE
  8
0
 10
1.5904377698898315
 20
5.116909027099609
 30
0.05862903594970703
 11
1.5889029502868652
 21
5.121968746185303
 31
0.05862903594970703
 12
1.579497218132019
 22
5.120097637176514
 32
0.03925824165344238
 13
1.5815777778625488
 23
5.11323881149292
 33
0.03925824165344238
  0
3DFACE
  8
0
 10
1.5889029502868652
 20
5.121968746185303
 30
0.05862903594970703
 11
1.5883846282958984
 21
5.127231121063232
 31
0.05862903594970703
 12
1.5787947177886963
 22
5.127231121063232
 32
0.03925824165344238
 13
1.579497218132019
 23
5.120097637176514
 33
0.03925824165344238
  0
3DFACE
  8
0
 10
1.5883846282958984
 20
5.127231121063232
 30
0.05862903594970703
 11
1.5889029502868652
 21
5.132493019104004
 31
0.05862903594970703
 12
1.579497218132019
 22
5.134364128112793
 32
0.03925824165344238
 13
1.5787947177886963
 23
5.127231121063232
 33
0.03925824165344238
  0
3DFACE
  8
0
 10
1.5889029502868652
 20
5.132493019104004
 30
0.05862903594970703
 11
1.590437889099121
 21
5.1375532150268555
 31
0.05862903594970703
 12
1.5815778970718384
 22
5.141222953796387
 32
0.03925824165344238
 13
1.579497218132019
 23
5.134364128112793
 33
0.03925824165344238
  0
3DFACE
  8
0
 10
1.590437889099121
 20
5.1375532150268555
 30
0.05862903594970703
 11
1.5929303169250488
 21
5.142216205596924
 31
0.05862903594970703
 12
1.5849566459655762
 22
5.1475443840026855
 32
0.03925824165344238
 13
1.5815778970718384
 23
5.141222953796387
 33
0.03925824165344238
  0
3DFACE
  8
0
 10
1.5929303169250488
 20
5.142216205596924
 30
0.05862903594970703
 11
1.5962848663330078
 21
5.146303653717041
 31
0.05862903594970703
 12
1.5895037651062012
 22
5.153084754943848
 32
0.03925824165344238
 13
1.5849566459655762
 23
5.1475443840026855
 33
0.03925824165344238
  0
3DFACE
  8
0
 10
1.5962848663330078
 20
5.146303653717041
 30
0.05862903594970703
 11
1.6003721952438354
 21
5.149658203125
 31
0.05862903594970703
 12
1.5950443744659424
 22
5.157631874084473
 32
0.03925824165344238
 13
1.5895037651062012
 23
5.153084754943848
 33
0.03925824165344238
  0
3DFACE
  8
0
 10
1.6003721952438354
 20
5.149658203125
 30
0.05862903594970703
 11
1.6050355434417725
 21
5.152150630950928
 31
0.05862903594970703
 12
1.601365566253662
 22
5.1610107421875
 32
0.03925824165344238
 13
1.5950443744659424
 23
5.157631874084473
 33
0.03925824165344238
  0
3DFACE
  8
0
 10
1.6050355434417725
 20
5.152150630950928
 30
0.05862903594970703
 11
1.610095500946045
 21
5.153685569763184
 31
0.05862903594970703
 12
1.608224630355835
 22
5.16309118270874
 32
0.03925824165344238
 13
1.601365566253662
 23
5.1610107421875
 33
0.03925824165344238
  0
3DFACE
  8
0
 10
1.610095500946045
 20
5.153685569763184
 30
0.05862903594970703
 11
1.6153576374053955
 21
5.15420389175415
 31
0.05862903594970703
 12
1.6153576374053955
 22
5.163793563842773
 32
0.03925824165344238
 13
1.608224630355835
 23
5.16309118270874
 33
0.03925824165344238
  0
3DFACE
  8
0
 10
1.6153576374053955
 20
5.15420389175415
 30
0.05862903594970703
 11
1.620619773864746
 21
5.153685569763184
 31
0.05862903594970703
 12
1.622490644454956
 22
5.16309118270874
 32
0.03925824165344238
 13
1.6153576374053955
 23
5.163793563842773
 33
0.03925824165344238
  0
3DFACE
  8
0
 10
1.620619773864746
 20
5.153685569763184
 30
0.05862903594970703
 11
1.6256797313690186
 21
5.152150630950928
 31
0.05862903594970703
 12
1.629349708557129
 22
5.1610107421875
 32
0.03925824165344238
 13
1.622490644454956
 23
5.16309118270874
 33
0.03925824165344238
  0
3DFACE
  8
0
 10
1.6256797313690186
 20
5.152150630950928
 30
0.05862903594970703
 11
1.630342960357666
 21
5.149658203125
 31
0.05862903594970703
 12
1.6356709003448486
 22
5.157631874084473
 32
0.03925824165344238
 13
1.629349708557129
 23
5.1610107421875
 33
0.03925824165344238
  0
3DFACE
  8
0
 10
1.630342960357666
 20
5.149658203125
 30
0.05862903594970703
 11
1.6344304084777832
 21
5.146303653717041
 31
0.05862903594970703
 12
1.6412115097045898
 22
5.153084754943848
 32
0.03925824165344238
 13
1.6356709003448486
 23
5.157631874084473
 33
0.03925824165344238
  0
3DFACE
  8
0
 10
1.6401063203811646
 20
5.723014831542969
 30
0.075286865234375
 11
1.640106439590454
 21
5.723014831542969
 31
0.7394255995750427
 12
1.6444590091705322
 22
5.717711448669434
 32
0.7394255995750427
 13
1.6444590091705322
 23
5.717711448669434
 33
0.075286865234375
  0
3DFACE
  8
0
 10
1.6444590091705322
 20
5.717711448669434
 30
0.075286865234375
 11
1.6444590091705322
 21
5.717711448669434
 31
0.7394255995750427
 12
1.647693395614624
 22
5.711660385131836
 32
0.7394255995750427
 13
1.647693395614624
 23
5.711660385131836
 33
0.075286865234375
  0
3DFACE
  8
0
 10
1.647693395614624
 20
5.711660385131836
 30
0.075286865234375
 11
1.647693395614624
 21
5.711660385131836
 31
0.7394255995750427
 12
1.6496851444244385
 22
5.705094337463379
 32
0.7394255995750427
 13
1.6496851444244385
 23
5.705094337463379
 33
0.075286865234375
  0
3DFACE
  8
0
 10
1.6496851444244385
 20
5.705094337463379
 30
0.075286865234375
 11
1.6496851444244385
 21
5.705094337463379
 31
0.7394255995750427
 12
1.6503576040267944
 22
5.69826602935791
 32
0.7394255995750427
 13
1.6503576040267944
 23
5.69826602935791
 33
0.075286865234375
  0
3DFACE
  8
0
 10
1.6503576040267944
 20
5.69826602935791
 30
0.075286865234375
 11
1.6503576040267944
 21
5.69826602935791
 31
0.7394255995750427
 12
1.649685025215149
 22
5.6914381980896
 32
0.7394255995750427
 13
1.6496851444244385
 23
5.6914381980896
 33
0.075286865234375
  0
3DFACE
  8
0
 10
1.6496851444244385
 20
5.6914381980896
 30
0.075286865234375
 11
1.649685025215149
 21
5.6914381980896
 31
0.7394255995750427
 12
1.647693395614624
 22
5.684872150421143
 32
0.7394255995750427
 13
1.647693395614624
 23
5.684872627258301
 33
0.075286865234375
  0
3DFACE
  8
0
 10
1.647693395614624
 20
5.684872627258301
 30
0.075286865234375
 11
1.647693395614624
 21
5.684872150421143
 31
0.7394255995750427
 12
1.6444590091705322
 22
5.678821563720703
 32
0.7394255995750427
 13
1.6444590091705322
 23
5.678821563720703
 33
0.075286865234375
  0
3DFACE
  8
0
 10
1.6444590091705322
 20
5.678821563720703
 30
0.075286865234375
 11
1.6444590091705322
 21
5.678821563720703
 31
0.7394255995750427
 12
1.6401063203811646
 22
5.673517227172852
 32
0.7394255995750427
 13
1.6401063203811646
 23
5.673517227172852
 33
0.075286865234375
  0
3DFACE
  8
0
 10
1.6401063203811646
 20
5.673517227172852
 30
0.075286865234375
 11
1.6401063203811646
 21
5.673517227172852
 31
0.7394255995750427
 12
1.6348025798797607
 22
5.669164657592773
 32
0.7394255995750427
 13
1.6348025798797607
 23
5.669164657592773
 33
0.075286865234375
  0
3DFACE
  8
0
 10
1.6348025798797607
 20
5.669164657592773
 30
0.075286865234375
 11
1.6348025798797607
 21
5.669164657592773
 31
0.7394255995750427
 12
1.628751516342163
 22
5.66593074798584
 32
0.7394255995750427
 13
1.628751516342163
 23
5.66593074798584
 33
0.075286865234375
  0
3DFACE
  8
0
 10
1.628751516342163
 20
5.66593074798584
 30
0.075286865234375
 11
1.628751516342163
 21
5.66593074798584
 31
0.7394255995750427
 12
1.6221857070922852
 22
5.663938522338867
 32
0.7394255995750427
 13
1.6221857070922852
 23
5.663938522338867
 33
0.075286865234375
  0
3DFACE
  8
0
 10
1.6221857070922852
 20
5.663938522338867
 30
0.075286865234375
 11
1.6221857070922852
 21
5.663938522338867
 31
0.7394255995750427
 12
1.6153576374053955
 22
5.663266181945801
 32
0.7394255995750427
 13
1.6153576374053955
 23
5.663266181945801
 33
0.075286865234375
  0
3DFACE
  8
0
 10
1.6153576374053955
 20
5.663266181945801
 30
0.075286865234375
 11
1.6153576374053955
 21
5.663266181945801
 31
0.7394255995750427
 12
1.6085294485092163
 22
5.663938522338867
 32
0.7394255995750427
 13
1.6085293292999268
 23
5.663938522338867
 33
0.075286865234375
  0
3DFACE
  8
0
 10
1.6085293292999268
 20
5.663938522338867
 30
0.075286865234375
 11
1.6085294485092163
 21
5.663938522338867
 31
0.7394255995750427
 12
1.601963758468628
 22
5.66593074798584
 32
0.7394255995750427
 13
1.6019636392593384
 23
5.66593074798584
 33
0.075286865234375
  0
3DFACE
  8
0
 10
1.6019636392593384
 20
5.66593074798584
 30
0.075286865234375
 11
1.601963758468628
 21
5.66593074798584
 31
0.7394255995750427
 12
1.5959126949310303
 22
5.669164657592773
 32
0.7394255995750427
 13
1.5959125757217407
 23
5.669164657592773
 33
0.075286865234375
  0
3DFACE
  8
0
 10
1.5959125757217407
 20
5.669164657592773
 30
0.075286865234375
 11
1.5959126949310303
 21
5.669164657592773
 31
0.7394255995750427
 12
1.590608835220337
 22
5.673517227172852
 32
0.7394255995750427
 13
1.590608835220337
 23
5.67351770401001
 33
0.075286865234375
  0
3DFACE
  8
0
 10
1.590608835220337
 20
5.67351770401001
 30
0.075286865234375
 11
1.590608835220337
 21
5.673517227172852
 31
0.7394255995750427
 12
1.5862562656402588
 22
5.678821086883545
 32
0.7394255995750427
 13
1.5862561464309692
 23
5.678821563720703
 33
0.075286865234375
  0
3DFACE
  8
0
 10
1.5862561464309692
 20
5.678821563720703
 30
0.075286865234375
 11
1.5862562656402588
 21
5.678821086883545
 31
0.7394255995750427
 12
1.583021879196167
 22
5.684872150421143
 32
0.7394255995750427
 13
1.5830217599868774
 23
5.684872627258301
 33
0.075286865234375
  0
3DFACE
  8
0
 10
1.5830217599868774
 20
5.684872627258301
 30
0.075286865234375
 11
1.583021879196167
 21
5.684872150421143
 31
0.7394255995750427
 12
1.5810301303863525
 22
5.691437721252441
 32
0.7394255995750427
 13
1.5810301303863525
 23
5.6914381980896
 33
0.075286865234375
  0
3DFACE
  8
0
 10
1.5810301303863525
 20
5.6914381980896
 30
0.075286865234375
 11
1.5810301303863525
 21
5.691437721252441
 31
0.7394255995750427
 12
1.580357551574707
 22
5.69826602935791
 32
0.7394255995750427
 13
1.580357551574707
 23
5.69826602935791
 33
0.075286865234375
  0
3DFACE
  8
0
 10
1.580357551574707
 20
5.69826602935791
 30
0.075286865234375
 11
1.580357551574707
 21
5.69826602935791
 31
0.7394255995750427
 12
1.5810301303863525
 22
5.705094337463379
 32
0.7394255995750427
 13
1.5810301303863525
 23
5.705094337463379
 33
0.075286865234375
  0
3DFACE
  8
0
 10
1.5810301303863525
 20
5.705094337463379
 30
0.075286865234375
 11
1.5810301303863525
 21
5.705094337463379
 31
0.7394255995750427
 12
1.5830217599868774
 22
5.711659908294678
 32
0.7394255995750427
 13
1.583021879196167
 23
5.711660385131836
 33
0.075286865234375
  0
3DFACE
  8
0
 10
1.583021879196167
 20
5.711660385131836
 30
0.075286865234375
 11
1.5830217599868774
 21
5.711659908294678
 31
0.7394255995750427
 12
1.5862560272216797
 22
5.717710971832275
 32
0.7394255995750427
 13
1.5862561464309692
 23
5.717711448669434
 33
0.075286865234375
  0
3DFACE
  8
0
 10
1.5862561464309692
 20
5.717711448669434
 30
0.075286865234375
 11
1.5862560272216797
 21
5.717710971832275
 31
0.7394255995750427
 12
1.5906087160110474
 22
5.723014831542969
 32
0.7394255995750427
 13
1.590608835220337
 23
5.723014831542969
 33
0.075286865234375
  0
3DFACE
  8
0
 10
1.590608835220337
 20
5.723014831542969
 30
0.075286865234375
 11
1.5906087160110474
 21
5.723014831542969
 31
0.7394255995750427
 12
1.5959124565124512
 22
5.727367401123047
 32
0.7394255995750427
 13
1.5959126949310303
 23
5.727367877960205
 33
0.075286865234375
  0
3DFACE
  8
0
 10
1.5959126949310303
 20
5.727367877960205
 30
0.075286865234375
 11
1.5959124565124512
 21
5.727367401123047
 31
0.7394255995750427
 12
1.6019635200500488
 22
5.730602264404297
 32
0.7394255995750427
 13
1.601963758468628
 23
5.730602264404297
 33
0.075286865234375
  0
3DFACE
  8
0
 10
1.601963758468628
 20
5.730602264404297
 30
0.075286865234375
 11
1.6019635200500488
 21
5.730602264404297
 31
0.7394255995750427
 12
1.6085292100906372
 22
5.732593536376953
 32
0.7394255995750427
 13
1.6085294485092163
 23
5.732593536376953
 33
0.075286865234375
  0
3DFACE
  8
0
 10
1.6085294485092163
 20
5.732593536376953
 30
0.075286865234375
 11
1.6085292100906372
 21
5.732593536376953
 31
0.7394255995750427
 12
1.6153573989868164
 22
5.733266353607178
 32
0.7394255995750427
 13
1.6153576374053955
 23
5.733266353607178
 33
0.075286865234375
  0
3DFACE
  8
0
 10
1.6153576374053955
 20
5.733266353607178
 30
0.075286865234375
 11
1.6153573989868164
 21
5.733266353607178
 31
0.7394255995750427
 12
1.622185468673706
 22
5.732593536376953
 32
0.7394255995750427
 13
1.6221858263015747
 23
5.732593536376953
 33
0.075286865234375
  0
3DFACE
  8
0
 10
1.6221858263015747
 20
5.732593536376953
 30
0.075286865234375
 11
1.622185468673706
 21
5.732593536376953
 31
0.7394255995750427
 12
1.628751277923584
 22
5.730602264404297
 32
0.7394255995750427
 13
1.628751516342163
 23
5.730602264404297
 33
0.075286865234375
  0
3DFACE
  8
0
 10
1.628751516342163
 20
5.730602264404297
 30
0.075286865234375
 11
1.628751277923584
 21
5.730602264404297
 31
0.7394255995750427
 12
1.6348023414611816
 22
5.727367877960205
 32
0.7394255995750427
 13
1.6348025798797607
 23
5.727367401123047
 33
0.075286865234375
  0
3DFACE
  8
0
 10
1.640106439590454
 20
5.723014831542969
 30
0.7394255995750427
 11
1.6401063203811646
 21
5.723014831542969
 31
0.075286865234375
 12
1.6348025798797607
 22
5.727367401123047
 32
0.075286865234375
 13
1.6348023414611816
 23
5.727367877960205
 33
0.7394255995750427
  0
3DFACE
  8
0
 10
1.6401063203811646
 20
5.723014831542969
 30
0.075286865234375
 11
1.6444590091705322
 21
5.717711448669434
 31
0.075286865234375
 12
1.637784719467163
 22
5.71325159072876
 32
0.075286865234375
 13
1.6344304084777832
 23
5.717339038848877
 33
0.075286865234375
  0
3DFACE
  8
0
 10
1.6444590091705322
 20
5.717711448669434
 30
0.075286865234375
 11
1.647693395614624
 21
5.711660385131836
 31
0.075286865234375
 12
1.64027738571167
 22
5.708588600158691
 32
0.075286865234375
 13
1.637784719467163
 23
5.71325159072876
 33
0.075286865234375
  0
3DFACE
  8
0
 10
1.647693395614624
 20
5.711660385131836
 30
0.075286865234375
 11
1.6496851444244385
 21
5.705094337463379
 31
0.075286865234375
 12
1.6418123245239258
 22
5.70352840423584
 32
0.075286865234375
 13
1.64027738571167
 23
5.708588600158691
 33
0.075286865234375
  0
3DFACE
  8
0
 10
1.6496851444244385
 20
5.705094337463379
 30
0.075286865234375
 11
1.6503576040267944
 21
5.69826602935791
 31
0.075286865234375
 12
1.642330527305603
 22
5.69826602935791
 32
0.075286865234375
 13
1.6418123245239258
 23
5.70352840423584
 33
0.075286865234375
  0
3DFACE
  8
0
 10
1.6503576040267944
 20
5.69826602935791
 30
0.075286865234375
 11
1.6496851444244385
 21
5.6914381980896
 31
0.075286865234375
 12
1.6418123245239258
 22
5.693004131317139
 32
0.075286865234375
 13
1.642330527305603
 23
5.69826602935791
 33
0.075286865234375
  0
3DFACE
  8
0
 10
1.6496851444244385
 20
5.6914381980896
 30
0.075286865234375
 11
1.647693395614624
 21
5.684872627258301
 31
0.075286865234375
 12
1.64027738571167
 22
5.687944412231445
 32
0.075286865234375
 13
1.6418123245239258
 23
5.693004131317139
 33
0.075286865234375
  0
3DFACE
  8
0
 10
1.647693395614624
 20
5.684872627258301
 30
0.075286865234375
 11
1.6444590091705322
 21
5.678821563720703
 31
0.075286865234375
 12
1.637784719467163
 22
5.683280944824219
 32
0.075286865234375
 13
1.64027738571167
 23
5.687944412231445
 33
0.075286865234375
  0
3DFACE
  8
0
 10
1.6444590091705322
 20
5.678821563720703
 30
0.075286865234375
 11
1.6401063203811646
 21
5.673517227172852
 31
0.075286865234375
 12
1.6344304084777832
 22
5.679193496704102
 32
0.075286865234375
 13
1.637784719467163
 23
5.683280944824219
 33
0.075286865234375
  0
3DFACE
  8
0
 10
1.6401063203811646
 20
5.673517227172852
 30
0.075286865234375
 11
1.6348025798797607
 21
5.669164657592773
 31
0.075286865234375
 12
1.630342960357666
 22
5.675838947296143
 32
0.075286865234375
 13
1.6344304084777832
 23
5.679193496704102
 33
0.075286865234375
  0
3DFACE
  8
0
 10
1.6348025798797607
 20
5.669164657592773
 30
0.075286865234375
 11
1.628751516342163
 21
5.66593074798584
 31
0.075286865234375
 12
1.6256797313690186
 22
5.673346519470215
 32
0.075286865234375
 13
1.630342960357666
 23
5.675838947296143
 33
0.075286865234375
  0
3DFACE
  8
0
 10
1.628751516342163
 20
5.66593074798584
 30
0.075286865234375
 11
1.6221857070922852
 21
5.663938522338867
 31
0.075286865234375
 12
1.620619773864746
 22
5.671811580657959
 32
0.075286865234375
 13
1.6256797313690186
 23
5.673346519470215
 33
0.075286865234375
  0
3DFACE
  8
0
 10
1.6221857070922852
 20
5.663938522338867
 30
0.075286865234375
 11
1.6153576374053955
 21
5.663266181945801
 31
0.075286865234375
 12
1.6153576374053955
 22
5.671293258666992
 32
0.075286865234375
 13
1.620619773864746
 23
5.671811580657959
 33
0.075286865234375
  0
3DFACE
  8
0
 10
1.6153576374053955
 20
5.663266181945801
 30
0.075286865234375
 11
1.6085293292999268
 21
5.663938522338867
 31
0.075286865234375
 12
1.6100953817367554
 22
5.671811580657959
 32
0.075286865234375
 13
1.6153576374053955
 23
5.671293258666992
 33
0.075286865234375
  0
3DFACE
  8
0
 10
1.6085293292999268
 20
5.663938522338867
 30
0.075286865234375
 11
1.6019636392593384
 21
5.66593074798584
 31
0.075286865234375
 12
1.6050355434417725
 22
5.673346519470215
 32
0.075286865234375
 13
1.6100953817367554
 23
5.671811580657959
 33
0.075286865234375
  0
3DFACE
  8
0
 10
1.6019636392593384
 20
5.66593074798584
 30
0.075286865234375
 11
1.5959125757217407
 21
5.669164657592773
 31
0.075286865234375
 12
1.6003721952438354
 22
5.675838947296143
 32
0.075286865234375
 13
1.6050355434417725
 23
5.673346519470215
 33
0.075286865234375
  0
3DFACE
  8
0
 10
1.5959125757217407
 20
5.669164657592773
 30
0.075286865234375
 11
1.590608835220337
 21
5.67351770401001
 31
0.075286865234375
 12
1.5962848663330078
 22
5.679193496704102
 32
0.075286865234375
 13
1.6003721952438354
 23
5.675838947296143
 33
0.075286865234375
  0
3DFACE
  8
0
 10
1.590608835220337
 20
5.67351770401001
 30
0.075286865234375
 11
1.5862561464309692
 21
5.678821563720703
 31
0.075286865234375
 12
1.5929303169250488
 22
5.683280944824219
 32
0.075286865234375
 13
1.5962848663330078
 23
5.679193496704102
 33
0.075286865234375
  0
3DFACE
  8
0
 10
1.5862561464309692
 20
5.678821563720703
 30
0.075286865234375
 11
1.5830217599868774
 21
5.684872627258301
 31
0.075286865234375
 12
1.5904377698898315
 22
5.687944412231445
 32
0.075286865234375
 13
1.5929303169250488
 23
5.683280944824219
 33
0.075286865234375
  0
3DFACE
  8
0
 10
1.5830217599868774
 20
5.684872627258301
 30
0.075286865234375
 11
1.5810301303863525
 21
5.6914381980896
 31
0.075286865234375
 12
1.5889029502868652
 22
5.693004131317139
 32
0.075286865234375
 13
1.5904377698898315
 23
5.687944412231445
 33
0.075286865234375
  0
3DFACE
  8
0
 10
1.5810301303863525
 20
5.6914381980896
 30
0.075286865234375
 11
1.580357551574707
 21
5.69826602935791
 31
0.075286865234375
 12
1.5883846282958984
 22
5.69826602935791
 32
0.075286865234375
 13
1.5889029502868652
 23
5.693004131317139
 33
0.075286865234375
  0
3DFACE
  8
0
 10
1.580357551574707
 20
5.69826602935791
 30
0.075286865234375
 11
1.5810301303863525
 21
5.705094337463379
 31
0.075286865234375
 12
1.5889029502868652
 22
5.70352840423584
 32
0.075286865234375
 13
1.5883846282958984
 23
5.69826602935791
 33
0.075286865234375
  0
3DFACE
  8
0
 10
1.5810301303863525
 20
5.705094337463379
 30
0.075286865234375
 11
1.583021879196167
 21
5.711660385131836
 31
0.075286865234375
 12
1.590437889099121
 22
5.708588600158691
 32
0.075286865234375
 13
1.5889029502868652
 23
5.70352840423584
 33
0.075286865234375
  0
3DFACE
  8
0
 10
1.583021879196167
 20
5.711660385131836
 30
0.075286865234375
 11
1.5862561464309692
 21
5.717711448669434
 31
0.075286865234375
 12
1.5929303169250488
 22
5.71325159072876
 32
0.075286865234375
 13
1.590437889099121
 23
5.708588600158691
 33
0.075286865234375
  0
3DFACE
  8
0
 10
1.5862561464309692
 20
5.717711448669434
 30
0.075286865234375
 11
1.590608835220337
 21
5.723014831542969
 31
0.075286865234375
 12
1.5962848663330078
 22
5.717339038848877
 32
0.075286865234375
 13
1.5929303169250488
 23
5.71325159072876
 33
0.075286865234375
  0
3DFACE
  8
0
 10
1.590608835220337
 20
5.723014831542969
 30
0.075286865234375
 11
1.5959126949310303
 21
5.727367877960205
 31
0.075286865234375
 12
1.6003721952438354
 22
5.720693588256836
 32
0.075286865234375
 13
1.5962848663330078
 23
5.717339038848877
 33
0.075286865234375
  0
3DFACE
  8
0
 10
1.5959126949310303
 20
5.727367877960205
 30
0.075286865234375
 11
1.601963758468628
 21
5.730602264404297
 31
0.075286865234375
 12
1.6050355434417725
 22
5.723186016082764
 32
0.075286865234375
 13
1.6003721952438354
 23
5.720693588256836
 33
0.075286865234375
  0
3DFACE
  8
0
 10
1.601963758468628
 20
5.730602264404297
 30
0.075286865234375
 11
1.6085294485092163
 21
5.732593536376953
 31
0.075286865234375
 12
1.610095500946045
 22
5.7247209548950195
 32
0.075286865234375
 13
1.6050355434417725
 23
5.723186016082764
 33
0.075286865234375
  0
3DFACE
  8
0
 10
1.6085294485092163
 20
5.732593536376953
 30
0.075286865234375
 11
1.6153576374053955
 21
5.733266353607178
 31
0.075286865234375
 12
1.6153576374053955
 22
5.725239276885986
 32
0.075286865234375
 13
1.610095500946045
 23
5.7247209548950195
 33
0.075286865234375
  0
3DFACE
  8
0
 10
1.6153576374053955
 20
5.733266353607178
 30
0.075286865234375
 11
1.6221858263015747
 21
5.732593536376953
 31
0.075286865234375
 12
1.620619773864746
 22
5.7247209548950195
 32
0.075286865234375
 13
1.6153576374053955
 23
5.725239276885986
 33
0.075286865234375
  0
3DFACE
  8
0
 10
1.6221858263015747
 20
5.732593536376953
 30
0.075286865234375
 11
1.628751516342163
 21
5.730602264404297
 31
0.075286865234375
 12
1.6256797313690186
 22
5.723186016082764
 32
0.075286865234375
 13
1.620619773864746
 23
5.7247209548950195
 33
0.075286865234375
  0
3DFACE
  8
0
 10
1.628751516342163
 20
5.730602264404297
 30
0.075286865234375
 11
1.6348025798797607
 21
5.727367401123047
 31
0.075286865234375
 12
1.630342960357666
 22
5.720693588256836
 32
0.075286865234375
 13
1.6256797313690186
 23
5.723186016082764
 33
0.075286865234375
  0
3DFACE
  8
0
 10
1.6348025798797607
 20
5.727367401123047
 30
0.075286865234375
 11
1.6401063203811646
 21
5.723014831542969
 31
0.075286865234375
 12
1.6344304084777832
 22
5.717339038848877
 32
0.075286865234375
 13
1.630342960357666
 23
5.720693588256836
 33
0.075286865234375
  0
3DFACE
  8
0
 10
1.6344304084777832
 20
5.717339038848877
 30
0.075286865234375
 11
1.637784719467163
 21
5.71325159072876
 31
0.075286865234375
 12
1.637784719467163
 22
5.71325159072876
 32
0.05862903594970703
 13
1.6344304084777832
 23
5.717339038848877
 33
0.05862903594970703
  0
3DFACE
  8
0
 10
1.637784719467163
 20
5.71325159072876
 30
0.075286865234375
 11
1.64027738571167
 21
5.708588600158691
 31
0.075286865234375
 12
1.64027738571167
 22
5.708588600158691
 32
0.05862903594970703
 13
1.637784719467163
 23
5.71325159072876
 33
0.05862903594970703
  0
3DFACE
  8
0
 10
1.64027738571167
 20
5.708588600158691
 30
0.075286865234375
 11
1.6418123245239258
 21
5.70352840423584
 31
0.075286865234375
 12
1.6418123245239258
 22
5.70352840423584
 32
0.05862903594970703
 13
1.64027738571167
 23
5.708588600158691
 33
0.05862903594970703
  0
3DFACE
  8
0
 10
1.6418123245239258
 20
5.70352840423584
 30
0.075286865234375
 11
1.642330527305603
 21
5.69826602935791
 31
0.075286865234375
 12
1.642330527305603
 22
5.69826602935791
 32
0.05862903594970703
 13
1.6418123245239258
 23
5.70352840423584
 33
0.05862903594970703
  0
3DFACE
  8
0
 10
1.642330527305603
 20
5.69826602935791
 30
0.075286865234375
 11
1.6418123245239258
 21
5.693004131317139
 31
0.075286865234375
 12
1.6418123245239258
 22
5.693004131317139
 32
0.05862903594970703
 13
1.642330527305603
 23
5.69826602935791
 33
0.05862903594970703
  0
3DFACE
  8
0
 10
1.6418123245239258
 20
5.693004131317139
 30
0.075286865234375
 11
1.64027738571167
 21
5.687944412231445
 31
0.075286865234375
 12
1.64027738571167
 22
5.687944412231445
 32
0.05862903594970703
 13
1.6418123245239258
 23
5.693004131317139
 33
0.05862903594970703
  0
3DFACE
  8
0
 10
1.64027738571167
 20
5.687944412231445
 30
0.075286865234375
 11
1.637784719467163
 21
5.683280944824219
 31
0.075286865234375
 12
1.637784719467163
 22
5.683280944824219
 32
0.05862903594970703
 13
1.64027738571167
 23
5.687944412231445
 33
0.05862903594970703
  0
3DFACE
  8
0
 10
1.637784719467163
 20
5.683280944824219
 30
0.075286865234375
 11
1.6344304084777832
 21
5.679193496704102
 31
0.075286865234375
 12
1.6344304084777832
 22
5.679193496704102
 32
0.05862903594970703
 13
1.637784719467163
 23
5.683280944824219
 33
0.05862903594970703
  0
3DFACE
  8
0
 10
1.6344304084777832
 20
5.679193496704102
 30
0.075286865234375
 11
1.630342960357666
 21
5.675838947296143
 31
0.075286865234375
 12
1.630342960357666
 22
5.675838947296143
 32
0.05862903594970703
 13
1.6344304084777832
 23
5.679193496704102
 33
0.05862903594970703
  0
3DFACE
  8
0
 10
1.630342960357666
 20
5.675838947296143
 30
0.075286865234375
 11
1.6256797313690186
 21
5.673346519470215
 31
0.075286865234375
 12
1.6256797313690186
 22
5.673346519470215
 32
0.05862903594970703
 13
1.630342960357666
 23
5.675838947296143
 33
0.05862903594970703
  0
3DFACE
  8
0
 10
1.6256797313690186
 20
5.673346519470215
 30
0.075286865234375
 11
1.620619773864746
 21
5.671811580657959
 31
0.075286865234375
 12
1.620619773864746
 22
5.671811580657959
 32
0.05862903594970703
 13
1.6256797313690186
 23
5.673346519470215
 33
0.05862903594970703
  0
3DFACE
  8
0
 10
1.620619773864746
 20
5.671811580657959
 30
0.075286865234375
 11
1.6153576374053955
 21
5.671293258666992
 31
0.075286865234375
 12
1.6153576374053955
 22
5.671293258666992
 32
0.05862903594970703
 13
1.620619773864746
 23
5.671811580657959
 33
0.05862903594970703
  0
3DFACE
  8
0
 10
1.6153576374053955
 20
5.671293258666992
 30
0.075286865234375
 11
1.6100953817367554
 21
5.671811580657959
 31
0.075286865234375
 12
1.6100953817367554
 22
5.671811580657959
 32
0.05862903594970703
 13
1.6153576374053955
 23
5.671293258666992
 33
0.05862903594970703
  0
3DFACE
  8
0
 10
1.6100953817367554
 20
5.671811580657959
 30
0.075286865234375
 11
1.6050355434417725
 21
5.673346519470215
 31
0.075286865234375
 12
1.6050355434417725
 22
5.673346519470215
 32
0.05862903594970703
 13
1.6100953817367554
 23
5.671811580657959
 33
0.05862903594970703
  0
3DFACE
  8
0
 10
1.6050355434417725
 20
5.673346519470215
 30
0.075286865234375
 11
1.6003721952438354
 21
5.675838947296143
 31
0.075286865234375
 12
1.6003721952438354
 22
5.675838947296143
 32
0.05862903594970703
 13
1.6050355434417725
 23
5.673346519470215
 33
0.05862903594970703
  0
3DFACE
  8
0
 10
1.6003721952438354
 20
5.675838947296143
 30
0.075286865234375
 11
1.5962848663330078
 21
5.679193496704102
 31
0.075286865234375
 12
1.5962848663330078
 22
5.679193496704102
 32
0.05862903594970703
 13
1.6003721952438354
 23
5.675838947296143
 33
0.05862903594970703
  0
3DFACE
  8
0
 10
1.5962848663330078
 20
5.679193496704102
 30
0.075286865234375
 11
1.5929303169250488
 21
5.683280944824219
 31
0.075286865234375
 12
1.5929303169250488
 22
5.683280944824219
 32
0.05862903594970703
 13
1.5962848663330078
 23
5.679193496704102
 33
0.05862903594970703
  0
3DFACE
  8
0
 10
1.5929303169250488
 20
5.683280944824219
 30
0.075286865234375
 11
1.5904377698898315
 21
5.687944412231445
 31
0.075286865234375
 12
1.5904377698898315
 22
5.687944412231445
 32
0.05862903594970703
 13
1.5929303169250488
 23
5.683280944824219
 33
0.05862903594970703
  0
3DFACE
  8
0
 10
1.5904377698898315
 20
5.687944412231445
 30
0.075286865234375
 11
1.5889029502868652
 21
5.693004131317139
 31
0.075286865234375
 12
1.5889029502868652
 22
5.693004131317139
 32
0.05862903594970703
 13
1.5904377698898315
 23
5.687944412231445
 33
0.05862903594970703
  0
3DFACE
  8
0
 10
1.5889029502868652
 20
5.693004131317139
 30
0.075286865234375
 11
1.5883846282958984
 21
5.69826602935791
 31
0.075286865234375
 12
1.5883846282958984
 22
5.69826602935791
 32
0.05862903594970703
 13
1.5889029502868652
 23
5.693004131317139
 33
0.05862903594970703
  0
3DFACE
  8
0
 10
1.5883846282958984
 20
5.69826602935791
 30
0.075286865234375
 11
1.5889029502868652
 21
5.70352840423584
 31
0.075286865234375
 12
1.5889029502868652
 22
5.70352840423584
 32
0.05862903594970703
 13
1.5883846282958984
 23
5.69826602935791
 33
0.05862903594970703
  0
3DFACE
  8
0
 10
1.5889029502868652
 20
5.70352840423584
 30
0.075286865234375
 11
1.590437889099121
 21
5.708588600158691
 31
0.075286865234375
 12
1.590437889099121
 22
5.708588600158691
 32
0.05862903594970703
 13
1.5889029502868652
 23
5.70352840423584
 33
0.05862903594970703
  0
3DFACE
  8
0
 10
1.590437889099121
 20
5.708588600158691
 30
0.075286865234375
 11
1.5929303169250488
 21
5.71325159072876
 31
0.075286865234375
 12
1.5929303169250488
 22
5.71325159072876
 32
0.05862903594970703
 13
1.590437889099121
 23
5.708588600158691
 33
0.05862903594970703
  0
3DFACE
  8
0
 10
1.5929303169250488
 20
5.71325159072876
 30
0.075286865234375
 11
1.5962848663330078
 21
5.717339038848877
 31
0.075286865234375
 12
1.5962848663330078
 22
5.717339038848877
 32
0.05862903594970703
 13
1.5929303169250488
 23
5.71325159072876
 33
0.05862903594970703
  0
3DFACE
  8
0
 10
1.5962848663330078
 20
5.717339038848877
 30
0.075286865234375
 11
1.6003721952438354
 21
5.720693588256836
 31
0.075286865234375
 12
1.6003721952438354
 22
5.720693588256836
 32
0.05862903594970703
 13
1.5962848663330078
 23
5.717339038848877
 33
0.05862903594970703
  0
3DFACE
  8
0
 10
1.6003721952438354
 20
5.720693588256836
 30
0.075286865234375
 11
1.6050355434417725
 21
5.723186016082764
 31
0.075286865234375
 12
1.6050355434417725
 22
5.723186016082764
 32
0.05862903594970703
 13
1.6003721952438354
 23
5.720693588256836
 33
0.05862903594970703
  0
3DFACE
  8
0
 10
1.6050355434417725
 20
5.723186016082764
 30
0.075286865234375
 11
1.610095500946045
 21
5.7247209548950195
 31
0.075286865234375
 12
1.610095500946045
 22
5.7247209548950195
 32
0.05862903594970703
 13
1.6050355434417725
 23
5.723186016082764
 33
0.05862903594970703
  0
3DFACE
  8
0
 10
1.610095500946045
 20
5.7247209548950195
 30
0.075286865234375
 11
1.6153576374053955
 21
5.725239276885986
 31
0.075286865234375
 12
1.6153576374053955
 22
5.725239276885986
 32
0.05862903594970703
 13
1.610095500946045
 23
5.7247209548950195
 33
0.05862903594970703
  0
3DFACE
  8
0
 10
1.6153576374053955
 20
5.725239276885986
 30
0.075286865234375
 11
1.620619773864746
 21
5.7247209548950195
 31
0.075286865234375
 12
1.620619773864746
 22
5.7247209548950195
 32
0.05862903594970703
 13
1.6153576374053955
 23
5.725239276885986
 33
0.05862903594970703
  0
3DFACE
  8
0
 10
1.620619773864746
 20
5.7247209548950195
 30
0.075286865234375
 11
1.6256797313690186
 21
5.723186016082764
 31
0.075286865234375
 12
1.6256797313690186
 22
5.723186016082764
 32
0.05862903594970703
 13
1.620619773864746
 23
5.7247209548950195
 33
0.05862903594970703
  0
3DFACE
  8
0
 10
1.6256797313690186
 20
5.723186016082764
 30
0.075286865234375
 11
1.630342960357666
 21
5.720693588256836
 31
0.075286865234375
 12
1.630342960357666
 22
5.720693588256836
 32
0.05862903594970703
 13
1.6256797313690186
 23
5.723186016082764
 33
0.05862903594970703
  0
3DFACE
  8
0
 10
1.630342960357666
 20
5.720693588256836
 30
0.075286865234375
 11
1.6344304084777832
 21
5.717339038848877
 31
0.075286865234375
 12
1.6344304084777832
 22
5.717339038848877
 32
0.05862903594970703
 13
1.630342960357666
 23
5.720693588256836
 33
0.05862903594970703
  0
3DFACE
  8
0
 10
1.6344304084777832
 20
5.717339038848877
 30
0.05862903594970703
 11
1.637784719467163
 21
5.71325159072876
 31
0.05862903594970703
 12
1.6457585096359253
 22
5.718579292297363
 32
0.03925824165344238
 13
1.6412115097045898
 23
5.724120140075684
 33
0.03925824165344238
  0
3DFACE
  8
0
 10
1.637784719467163
 20
5.71325159072876
 30
0.05862903594970703
 11
1.64027738571167
 21
5.708588600158691
 31
0.05862903594970703
 12
1.649137258529663
 22
5.712258338928223
 32
0.03925824165344238
 13
1.6457585096359253
 23
5.718579292297363
 33
0.03925824165344238
  0
3DFACE
  8
0
 10
1.64027738571167
 20
5.708588600158691
 30
0.05862903594970703
 11
1.6418123245239258
 21
5.70352840423584
 31
0.05862903594970703
 12
1.6512179374694824
 22
5.705399513244629
 32
0.03925824165344238
 13
1.649137258529663
 23
5.712258338928223
 33
0.03925824165344238
  0
3DFACE
  8
0
 10
1.6418123245239258
 20
5.70352840423584
 30
0.05862903594970703
 11
1.642330527305603
 21
5.69826602935791
 31
0.05862903594970703
 12
1.6519204378128052
 22
5.69826602935791
 32
0.03925824165344238
 13
1.6512179374694824
 23
5.705399513244629
 33
0.03925824165344238
  0
3DFACE
  8
0
 10
1.642330527305603
 20
5.69826602935791
 30
0.05862903594970703
 11
1.6418123245239258
 21
5.693004131317139
 31
0.05862903594970703
 12
1.6512179374694824
 22
5.691133499145508
 32
0.03925824165344238
 13
1.6519204378128052
 23
5.69826602935791
 33
0.03925824165344238
  0
3DFACE
  8
0
 10
1.6418123245239258
 20
5.693004131317139
 30
0.05862903594970703
 11
1.64027738571167
 21
5.687944412231445
 31
0.05862903594970703
 12
1.649137258529663
 22
5.684274196624756
 32
0.03925824165344238
 13
1.6512179374694824
 23
5.691133499145508
 33
0.03925824165344238
  0
3DFACE
  8
0
 10
1.64027738571167
 20
5.687944412231445
 30
0.05862903594970703
 11
1.637784719467163
 21
5.683280944824219
 31
0.05862903594970703
 12
1.6457585096359253
 22
5.677952766418457
 32
0.03925824165344238
 13
1.649137258529663
 23
5.684274196624756
 33
0.03925824165344238
  0
3DFACE
  8
0
 10
1.637784719467163
 20
5.683280944824219
 30
0.05862903594970703
 11
1.6344304084777832
 21
5.679193496704102
 31
0.05862903594970703
 12
1.6412115097045898
 22
5.672412395477295
 32
0.03925824165344238
 13
1.6457585096359253
 23
5.677952766418457
 33
0.03925824165344238
  0
3DFACE
  8
0
 10
1.6344304084777832
 20
5.679193496704102
 30
0.05862903594970703
 11
1.630342960357666
 21
5.675838947296143
 31
0.05862903594970703
 12
1.6356709003448486
 22
5.66786527633667
 32
0.03925824165344238
 13
1.6412115097045898
 23
5.672412395477295
 33
0.03925824165344238
  0
3DFACE
  8
0
 10
1.630342960357666
 20
5.675838947296143
 30
0.05862903594970703
 11
1.6256797313690186
 21
5.673346519470215
 31
0.05862903594970703
 12
1.6293495893478394
 22
5.664486408233643
 32
0.03925824165344238
 13
1.6356709003448486
 23
5.66786527633667
 33
0.03925824165344238
  0
3DFACE
  8
0
 10
1.6256797313690186
 20
5.673346519470215
 30
0.05862903594970703
 11
1.620619773864746
 21
5.671811580657959
 31
0.05862903594970703
 12
1.622490644454956
 22
5.662405967712402
 32
0.03925824165344238
 13
1.6293495893478394
 23
5.664486408233643
 33
0.03925824165344238
  0
3DFACE
  8
0
 10
1.620619773864746
 20
5.671811580657959
 30
0.05862903594970703
 11
1.6153576374053955
 21
5.671293258666992
 31
0.05862903594970703
 12
1.6153576374053955
 22
5.661703109741211
 32
0.03925824165344238
 13
1.622490644454956
 23
5.662405967712402
 33
0.03925824165344238
  0
3DFACE
  8
0
 10
1.6153576374053955
 20
5.671293258666992
 30
0.05862903594970703
 11
1.6100953817367554
 21
5.671811580657959
 31
0.05862903594970703
 12
1.6082245111465454
 22
5.662405967712402
 32
0.03925824165344238
 13
1.6153576374053955
 23
5.661703109741211
 33
0.03925824165344238
  0
3DFACE
  8
0
 10
1.6100953817367554
 20
5.671811580657959
 30
0.05862903594970703
 11
1.6050355434417725
 21
5.673346519470215
 31
0.05862903594970703
 12
1.601365566253662
 22
5.664486408233643
 32
0.03925824165344238
 13
1.6082245111465454
 23
5.662405967712402
 33
0.03925824165344238
  0
3DFACE
  8
0
 10
1.6050355434417725
 20
5.673346519470215
 30
0.05862903594970703
 11
1.6003721952438354
 21
5.675838947296143
 31
0.05862903594970703
 12
1.5950443744659424
 22
5.66786527633667
 32
0.03925824165344238
 13
1.601365566253662
 23
5.664486408233643
 33
0.03925824165344238
  0
3DFACE
  8
0
 10
1.6003721952438354
 20
5.675838947296143
 30
0.05862903594970703
 11
1.5962848663330078
 21
5.679193496704102
 31
0.05862903594970703
 12
1.5895037651062012
 22
5.672412395477295
 32
0.03925824165344238
 13
1.5950443744659424
 23
5.66786527633667
 33
0.03925824165344238
  0
3DFACE
  8
0
 10
1.5962848663330078
 20
5.679193496704102
 30
0.05862903594970703
 11
1.5929303169250488
 21
5.683280944824219
 31
0.05862903594970703
 12
1.5849566459655762
 22
5.677952766418457
 32
0.03925824165344238
 13
1.5895037651062012
 23
5.672412395477295
 33
0.03925824165344238
  0
3DFACE
  8
0
 10
1.5929303169250488
 20
5.683280944824219
 30
0.05862903594970703
 11
1.5904377698898315
 21
5.687944412231445
 31
0.05862903594970703
 12
1.5815777778625488
 22
5.684274196624756
 32
0.03925824165344238
 13
1.5849566459655762
 23
5.677952766418457
 33
0.03925824165344238
  0
3DFACE
  8
0
 10
1.5904377698898315
 20
5.687944412231445
 30
0.05862903594970703
 11
1.5889029502868652
 21
5.693004131317139
 31
0.05862903594970703
 12
1.579497218132019
 22
5.691133499145508
 32
0.03925824165344238
 13
1.5815777778625488
 23
5.684274196624756
 33
0.03925824165344238
  0
3DFACE
  8
0
 10
1.5889029502868652
 20
5.693004131317139
 30
0.05862903594970703
 11
1.5883846282958984
 21
5.69826602935791
 31
0.05862903594970703
 12
1.5787947177886963
 22
5.69826602935791
 32
0.03925824165344238
 13
1.579497218132019
 23
5.691133499145508
 33
0.03925824165344238
  0
3DFACE
  8
0
 10
1.5883846282958984
 20
5.69826602935791
 30
0.05862903594970703
 11
1.5889029502868652
 21
5.70352840423584
 31
0.05862903594970703
 12
1.579497218132019
 22
5.705399513244629
 32
0.03925824165344238
 13
1.5787947177886963
 23
5.69826602935791
 33
0.03925824165344238
  0
3DFACE
  8
0
 10
1.5889029502868652
 20
5.70352840423584
 30
0.05862903594970703
 11
1.590437889099121
 21
5.708588600158691
 31
0.05862903594970703
 12
1.5815778970718384
 22
5.712258338928223
 32
0.03925824165344238
 13
1.579497218132019
 23
5.705399513244629
 33
0.03925824165344238
  0
3DFACE
  8
0
 10
1.590437889099121
 20
5.708588600158691
 30
0.05862903594970703
 11
1.5929303169250488
 21
5.71325159072876
 31
0.05862903594970703
 12
1.5849566459655762
 22
5.718579292297363
 32
0.03925824165344238
 13
1.5815778970718384
 23
5.712258338928223
 33
0.03925824165344238
  0
3DFACE
  8
0
 10
1.5929303169250488
 20
5.71325159072876
 30
0.05862903594970703
 11
1.5962848663330078
 21
5.717339038848877
 31
0.05862903594970703
 12
1.5895037651062012
 22
5.724120140075684
 32
0.03925824165344238
 13
1.5849566459655762
 23
5.718579292297363
 33
0.03925824165344238
  0
3DFACE
  8
0
 10
1.5962848663330078
 20
5.717339038848877
 30
0.05862903594970703
 11
1.6003721952438354
 21
5.720693588256836
 31
0.05862903594970703
 12
1.5950443744659424
 22
5.728667259216309
 32
0.03925824165344238
 13
1.5895037651062012
 23
5.724120140075684
 33
0.03925824165344238
  0
3DFACE
  8
0
 10
1.6003721952438354
 20
5.720693588256836
 30
0.05862903594970703
 11
1.6050355434417725
 21
5.723186016082764
 31
0.05862903594970703
 12
1.601365566253662
 22
5.732046127319336
 32
0.03925824165344238
 13
1.5950443744659424
 23
5.728667259216309
 33
0.03925824165344238
  0
3DFACE
  8
0
 10
1.6050355434417725
 20
5.723186016082764
 30
0.05862903594970703
 11
1.610095500946045
 21
5.7247209548950195
 31
0.05862903594970703
 12
1.608224630355835
 22
5.734126567840576
 32
0.03925824165344238
 13
1.601365566253662
 23
5.732046127319336
 33
0.03925824165344238
  0
3DFACE
  8
0
 10
1.610095500946045
 20
5.7247209548950195
 30
0.05862903594970703
 11
1.6153576374053955
 21
5.725239276885986
 31
0.05862903594970703
 12
1.6153576374053955
 22
5.734828948974609
 32
0.03925824165344238
 13
1.608224630355835
 23
5.734126567840576
 33
0.03925824165344238
  0
3DFACE
  8
0
 10
1.6153576374053955
 20
5.725239276885986
 30
0.05862903594970703
 11
1.620619773864746
 21
5.7247209548950195
 31
0.05862903594970703
 12
1.622490644454956
 22
5.734126567840576
 32
0.03925824165344238
 13
1.6153576374053955
 23
5.734828948974609
 33
0.03925824165344238
  0
3DFACE
  8
0
 10
1.620619773864746
 20
5.7247209548950195
 30
0.05862903594970703
 11
1.6256797313690186
 21
5.723186016082764
 31
0.05862903594970703
 12
1.629349708557129
 22
5.732046127319336
 32
0.03925824165344238
 13
1.622490644454956
 23
5.734126567840576
 33
0.03925824165344238
  0
3DFACE
  8
0
 10
1.6256797313690186
 20
5.723186016082764
 30
0.05862903594970703
 11
1.630342960357666
 21
5.720693588256836
 31
0.05862903594970703
 12
1.6356709003448486
 22
5.728667259216309
 32
0.03925824165344238
 13
1.629349708557129
 23
5.732046127319336
 33
0.03925824165344238
  0
3DFACE
  8
0
 10
1.630342960357666
 20
5.720693588256836
 30
0.05862903594970703
 11
1.6344304084777832
 21
5.717339038848877
 31
0.05862903594970703
 12
1.6412115097045898
 22
5.724120140075684
 32
0.03925824165344238
 13
1.6356709003448486
 23
5.728667259216309
 33
0.03925824165344238
  0
3DFACE
  8
0
 10
2.584841728210449
 20
3.5277810096740723
 30
0.7650007605552673
 11
2.584841728210449
 21
3.5277810096740723
 31
0.7400007843971252
 12
3.296132802963257
 22
3.5277810096740723
 32
0.7400007843971252
 13
3.296132802963257
 23
3.5277810096740723
 33
0.7650007605552673
  0
3DFACE
  8
0
 10
2.584841728210449
 20
4.0459303855896
 30
0.7650007605552673
 11
2.584841728210449
 21
3.5277810096740723
 31
0.7650007605552673
 12
3.296132802963257
 22
3.5277810096740723
 32
0.7650007605552673
 13
3.296132802963257
 23
4.0459303855896
 33
0.7650007605552673
  0
3DFACE
  8
0
 10
3.296132802963257
 20
4.0459303855896
 30
0.7650007605552673
 11
3.296132802963257
 21
3.5277810096740723
 31
0.7650007605552673
 12
3.296132802963257
 22
3.5277810096740723
 32
0.7400007843971252
 13
3.296132802963257
 23
4.045930862426758
 33
0.7400007843971252
  0
3DFACE
  8
0
 10
3.296132802963257
 20
4.045930862426758
 30
0.7400007843971252
 11
3.296132802963257
 21
3.5277810096740723
 31
0.7400007843971252
 12
2.584841728210449
 22
3.5277810096740723
 32
0.7400007843971252
 13
2.584841728210449
 23
4.045930862426758
 33
0.7400007843971252
  0
3DFACE
  8
0
 10
2.584841728210449
 20
3.5277810096740723
 30
0.7650007605552673
 11
2.584841728210449
 21
4.0459303855896
 31
0.7650007605552673
 12
2.584841728210449
 22
4.045930862426758
 32
0.7400007843971252
 13
2.584841728210449
 23
3.5277810096740723
 33
0.7400007843971252
  0
3DFACE
  8
0
 10
2.584841728210449
 20
4.045930862426758
 30
0.7400007843971252
 11
2.584841728210449
 21
4.0459303855896
 31
0.7650007605552673
 12
2.569303512573242
 22
4.224113941192627
 32
0.7650008201599121
 13
2.569303512573242
 23
4.224113941192627
 33
0.7400007843971252
  0
3DFACE
  8
0
 10
3.296132802963257
 20
4.045930862426758
 30
0.7400007843971252
 11
2.584841728210449
 21
4.045930862426758
 31
0.7400007843971252
 12
2.569303512573242
 22
4.224113941192627
 32
0.7400007843971252
 13
3.2697887420654297
 23
4.347628593444824
 33
0.7400007843971252
  0
3DFACE
  8
0
 10
3.296132802963257
 20
4.0459303855896
 30
0.7650007605552673
 11
3.296132802963257
 21
4.045930862426758
 31
0.7400007843971252
 12
3.2697887420654297
 22
4.347628593444824
 32
0.7400007843971252
 13
3.2697887420654297
 23
4.347628593444824
 33
0.7650008201599121
  0
3DFACE
  8
0
 10
2.584841728210449
 20
4.0459303855896
 30
0.7650007605552673
 11
3.296132802963257
 21
4.0459303855896
 31
0.7650007605552673
 12
3.2697887420654297
 22
4.347628593444824
 32
0.7650008201599121
 13
2.569303512573242
 23
4.224113941192627
 33
0.7650008201599121
  0
3DFACE
  8
0
 10
2.569303512573242
 20
4.224113941192627
 30
0.7650008201599121
 11
3.2697887420654297
 21
4.347628593444824
 31
0.7650008201599121
 12
3.191455602645874
 22
4.640168190002441
 32
0.7650008201599121
 13
2.5230603218078613
 23
4.396892070770264
 33
0.7650008201599121
  0
3DFACE
  8
0
 10
3.2697887420654297
 20
4.347628593444824
 30
0.7650008201599121
 11
3.2697887420654297
 21
4.347628593444824
 31
0.7400007843971252
 12
3.191455602645874
 22
4.640168190002441
 32
0.74000084400177
 13
3.191455602645874
 23
4.640168190002441
 33
0.7650008201599121
  0
3DFACE
  8
0
 10
3.2697887420654297
 20
4.347628593444824
 30
0.7400007843971252
 11
2.569303512573242
 21
4.224113941192627
 31
0.7400007843971252
 12
2.5230603218078613
 22
4.396892070770264
 32
0.7400007843971252
 13
3.191455602645874
 23
4.640168190002441
 33
0.74000084400177
  0
3DFACE
  8
0
 10
2.569303512573242
 20
4.224113941192627
 30
0.7400007843971252
 11
2.569303512573242
 21
4.224113941192627
 31
0.7650008201599121
 12
2.5230603218078613
 22
4.396892070770264
 32
0.7650008201599121
 13
2.5230603218078613
 23
4.396892070770264
 33
0.7400007843971252
  0
3DFACE
  8
0
 10
2.5230603218078613
 20
4.396892070770264
 30
0.7400007843971252
 11
2.5230603218078613
 21
4.396892070770264
 31
0.7650008201599121
 12
2.447517156600952
 22
4.559015274047852
 32
0.7650008201599121
 13
2.447516918182373
 23
4.559015274047852
 33
0.7400007843971252
  0
3DFACE
  8
0
 10
3.191455602645874
 20
4.640168190002441
 30
0.74000084400177
 11
2.5230603218078613
 21
4.396892070770264
 31
0.7400007843971252
 12
2.447516918182373
 22
4.559015274047852
 32
0.7400007843971252
 13
3.0635135173797607
 23
4.914661407470703
 33
0.74000084400177
  0
3DFACE
  8
0
 10
3.191455602645874
 20
4.640168190002441
 30
0.7650008201599121
 11
3.191455602645874
 21
4.640168190002441
 31
0.74000084400177
 12
3.0635135173797607
 22
4.914661407470703
 32
0.74000084400177
 13
3.0635135173797607
 23
4.914660930633545
 33
0.7650008201599121
  0
3DFACE
  8
0
 10
2.5230603218078613
 20
4.396892070770264
 30
0.7650008201599121
 11
3.191455602645874
 21
4.640168190002441
 31
0.7650008201599121
 12
3.0635135173797607
 22
4.914660930633545
 32
0.7650008201599121
 13
2.447517156600952
 23
4.559015274047852
 33
0.7650008201599121
  0
3DFACE
  8
0
 10
2.447517156600952
 20
4.559015274047852
 30
0.7650008201599121
 11
3.0635135173797607
 21
4.914660930633545
 31
0.7650008201599121
 12
2.889849901199341
 22
5.162766933441162
 32
0.7650008201599121
 13
2.3449692726135254
 23
4.705557346343994
 33
0.7650008201599121
  0
3DFACE
  8
0
 10
3.0635135173797607
 20
4.914660930633545
 30
0.7650008201599121
 11
3.0635135173797607
 21
4.914661407470703
 31
0.74000084400177
 12
2.889849901199341
 22
5.162766933441162
 32
0.74000084400177
 13
2.889849901199341
 23
5.162766933441162
 33
0.7650008201599121
  0
3DFACE
  8
0
 10
3.0635135173797607
 20
4.914661407470703
 30
0.74000084400177
 11
2.447516918182373
 21
4.559015274047852
 31
0.7400007843971252
 12
2.3449690341949463
 22
4.705557823181152
 32
0.7400007843971252
 13
2.889849901199341
 23
5.162766933441162
 33
0.74000084400177
  0
3DFACE
  8
0
 10
2.447516918182373
 20
4.559015274047852
 30
0.7400007843971252
 11
2.447517156600952
 21
4.559015274047852
 31
0.7650008201599121
 12
2.3449692726135254
 22
4.705557346343994
 32
0.7650008201599121
 13
2.3449690341949463
 23
4.705557823181152
 33
0.7400007843971252
  0
3DFACE
  8
0
 10
2.3449690341949463
 20
4.705557823181152
 30
0.7400007843971252
 11
2.3449692726135254
 21
4.705557346343994
 31
0.7650008201599121
 12
2.2185323238372803
 22
4.832066059112549
 32
0.7650008201599121
 13
2.218532085418701
 23
4.832066535949707
 33
0.7400007843971252
  0
3DFACE
  8
0
 10
2.889849901199341
 20
5.162766933441162
 30
0.74000084400177
 11
2.3449690341949463
 21
4.705557823181152
 31
0.7400007843971252
 12
2.218532085418701
 22
4.832066535949707
 32
0.7400007843971252
 13
2.67574143409729
 23
5.376947402954102
 33
0.7400009036064148
  0
3DFACE
  8
0
 10
2.889849901199341
 20
5.162766933441162
 30
0.7650008201599121
 11
2.889849901199341
 21
5.162766933441162
 31
0.74000084400177
 12
2.67574143409729
 22
5.376947402954102
 32
0.7400009036064148
 13
2.67574143409729
 23
5.376947402954102
 33
0.7650008201599121
  0
3DFACE
  8
0
 10
2.3449692726135254
 20
4.705557346343994
 30
0.7650008201599121
 11
2.889849901199341
 21
5.162766933441162
 31
0.7650008201599121
 12
2.67574143409729
 22
5.376947402954102
 32
0.7650008201599121
 13
2.2185323238372803
 23
4.832066059112549
 33
0.7650008201599121
  0
3DFACE
  8
0
 10
2.2185323238372803
 20
4.832066059112549
 30
0.7650008201599121
 11
2.67574143409729
 21
5.376947402954102
 31
0.7650008201599121
 12
2.4276938438415527
 22
5.550693988800049
 32
0.7650008201599121
 13
2.0720481872558594
 23
4.93469762802124
 33
0.7650008201599121
  0
3DFACE
  8
0
 10
2.67574143409729
 20
5.376947402954102
 30
0.7650008201599121
 11
2.67574143409729
 21
5.376947402954102
 31
0.7400009036064148
 12
2.4276938438415527
 22
5.550694465637207
 32
0.7400009036064148
 13
2.4276938438415527
 23
5.550693988800049
 33
0.7650008201599121
  0
3DFACE
  8
0
 10
2.67574143409729
 20
5.376947402954102
 30
0.7400009036064148
 11
2.218532085418701
 21
4.832066535949707
 31
0.7400007843971252
 12
2.0720479488372803
 22
4.93469762802124
 32
0.7400007843971252
 13
2.4276938438415527
 23
5.550694465637207
 33
0.7400009036064148
  0
3DFACE
  8
0
 10
2.218532085418701
 20
4.832066535949707
 30
0.7400007843971252
 11
2.2185323238372803
 21
4.832066059112549
 31
0.7650008201599121
 12
2.0720481872558594
 22
4.93469762802124
 32
0.7650008201599121
 13
2.0720479488372803
 23
4.93469762802124
 33
0.7400007843971252
  0
3DFACE
  8
0
 10
2.0720479488372803
 20
4.93469762802124
 30
0.7400007843971252
 11
2.0720481872558594
 21
4.93469762802124
 31
0.7650008201599121
 12
1.9099678993225098
 22
5.010333061218262
 32
0.7650008201599121
 13
1.9099676609039307
 23
5.010333061218262
 33
0.7400007843971252
  0
3DFACE
  8
0
 10
2.4276938438415527
 20
5.550694465637207
 30
0.7400009036064148
 11
2.0720479488372803
 21
4.93469762802124
 31
0.7400007843971252
 12
1.9099676609039307
 22
5.010333061218262
 32
0.7400007843971252
 13
2.1532435417175293
 23
5.6787285804748535
 33
0.7400009036064148
  0
3DFACE
  8
0
 10
2.4276938438415527
 20
5.550693988800049
 30
0.7650008201599121
 11
2.4276938438415527
 21
5.550694465637207
 31
0.7400009036064148
 12
2.1532435417175293
 22
5.6787285804748535
 32
0.7400009036064148
 13
2.1532437801361084
 23
5.678728103637695
 33
0.7650008797645569
  0
3DFACE
  8
0
 10
2.0720481872558594
 20
4.93469762802124
 30
0.7650008201599121
 11
2.4276938438415527
 21
5.550693988800049
 31
0.7650008201599121
 12
2.1532437801361084
 22
5.678728103637695
 32
0.7650008797645569
 13
1.9099678993225098
 23
5.010333061218262
 33
0.7650008201599121
  0
3DFACE
  8
0
 10
1.9099678993225098
 20
5.010333061218262
 30
0.7650008201599121
 11
2.1532437801361084
 21
5.678728103637695
 31
0.7650008797645569
 12
1.8607304096221924
 22
5.75715970993042
 32
0.7650008797645569
 13
1.7372159957885742
 23
5.056674003601074
 33
0.7650008201599121
  0
3DFACE
  8
0
 10
2.1532437801361084
 20
5.678728103637695
 30
0.7650008797645569
 11
2.1532435417175293
 21
5.6787285804748535
 31
0.7400009036064148
 12
1.8607301712036133
 22
5.75715970993042
 32
0.7400009036064148
 13
1.8607304096221924
 23
5.75715970993042
 33
0.7650008797645569
  0
3DFACE
  8
0
 10
2.1532435417175293
 20
5.6787285804748535
 30
0.7400009036064148
 11
1.9099676609039307
 21
5.010333061218262
 31
0.7400007843971252
 12
1.7372157573699951
 22
5.056674003601074
 32
0.7400007843971252
 13
1.8607301712036133
 23
5.75715970993042
 33
0.7400009036064148
  0
3DFACE
  8
0
 10
1.9099676609039307
 20
5.010333061218262
 30
0.7400007843971252
 11
1.9099678993225098
 21
5.010333061218262
 31
0.7650008201599121
 12
1.7372159957885742
 22
5.056674003601074
 32
0.7650008201599121
 13
1.7372157573699951
 23
5.056674003601074
 33
0.7400007843971252
  0
3DFACE
  8
0
 10
1.7372157573699951
 20
5.056674003601074
 30
0.7400007843971252
 11
1.7372159957885742
 21
5.056674003601074
 31
0.7650008201599121
 12
1.5590413808822632
 22
5.07231330871582
 32
0.7650008201599121
 13
1.559041142463684
 23
5.07231330871582
 33
0.7400007843971252
  0
3DFACE
  8
0
 10
1.8607301712036133
 20
5.75715970993042
 30
0.7400009036064148
 11
1.7372157573699951
 21
5.056674003601074
 31
0.7400007843971252
 12
1.559041142463684
 22
5.07231330871582
 32
0.7400007843971252
 13
1.5590410232543945
 23
5.783605098724365
 33
0.7400009036064148
  0
3DFACE
  8
0
 10
1.8607304096221924
 20
5.75715970993042
 30
0.7650008797645569
 11
1.8607301712036133
 21
5.75715970993042
 31
0.7400009036064148
 12
1.5590410232543945
 22
5.783605098724365
 32
0.7400009036064148
 13
1.5590412616729736
 23
5.783605098724365
 33
0.7650008797645569
  0
3DFACE
  8
0
 10
1.7372159957885742
 20
5.056674003601074
 30
0.7650008201599121
 11
1.8607304096221924
 21
5.75715970993042
 31
0.7650008797645569
 12
1.5590412616729736
 22
5.783605098724365
 32
0.7650008797645569
 13
1.5590413808822632
 23
5.07231330871582
 33
0.7650008201599121
  0
3DFACE
  8
0
 10
1.5590362548828125
 20
5.752103805541992
 30
0.7369537353515625
 11
1.8557770252227783
 21
5.7260918617248535
 31
0.7369537353515625
 12
1.8557770252227783
 22
5.7260918617248535
 32
0.03917056322097778
 13
1.5590362548828125
 23
5.752103805541992
 33
0.03917056322097778
  0
3DFACE
  8
0
 10
1.8557770252227783
 20
5.7260918617248535
 30
0.7369537353515625
 11
2.1434926986694336
 21
5.648947238922119
 31
0.7369537353515625
 12
2.1434926986694336
 22
5.648947238922119
 32
0.03917056322097778
 13
1.8557770252227783
 23
5.7260918617248535
 33
0.03917056322097778
  0
3DFACE
  8
0
 10
2.1434926986694336
 20
5.648947238922119
 30
0.7369537353515625
 11
2.4134414196014404
 21
5.523013114929199
 31
0.7369537353515625
 12
2.4134414196014404
 22
5.523013114929199
 32
0.03917056322097778
 13
2.1434926986694336
 23
5.648947238922119
 33
0.03917056322097778
  0
3DFACE
  8
0
 10
2.4134414196014404
 20
5.523013114929199
 30
0.7369537353515625
 11
2.6574206352233887
 21
5.352115631103516
 31
0.7369537353515625
 12
2.6574206352233887
 22
5.352115631103516
 32
0.03917056322097778
 13
2.4134414196014404
 23
5.523013114929199
 33
0.03917056322097778
  0
3DFACE
  8
0
 10
2.6574206352233887
 20
5.352115631103516
 30
0.7369537353515625
 11
2.8680171966552734
 21
5.141448497772217
 31
0.7369537353515625
 12
2.8680171966552734
 22
5.141448497772217
 32
0.03917056322097778
 13
2.6574206352233887
 23
5.352115631103516
 33
0.03917056322097778
  0
3DFACE
  8
0
 10
2.8680171966552734
 20
5.141448497772217
 30
0.7369537353515625
 11
3.038832426071167
 21
4.897411823272705
 31
0.7369536757469177
 12
3.038832426071167
 22
4.897411823272705
 32
0.03917050361633301
 13
2.8680171966552734
 23
5.141448497772217
 33
0.03917056322097778
  0
3DFACE
  8
0
 10
3.038832426071167
 20
4.897411823272705
 30
0.7369536757469177
 11
3.1646759510040283
 21
4.6274213790893555
 31
0.736953616142273
 12
3.1646759510040283
 22
4.6274213790893555
 32
0.03917050361633301
 13
3.038832426071167
 23
4.897411823272705
 33
0.03917050361633301
  0
3DFACE
  8
0
 10
3.1646759510040283
 20
4.6274213790893555
 30
0.736953616142273
 11
3.2417244911193848
 21
4.339679718017578
 31
0.736953616142273
 12
3.2417244911193848
 22
4.339679718017578
 32
0.03917044401168823
 13
3.1646759510040283
 23
4.6274213790893555
 33
0.03917050361633301
  0
3DFACE
  8
0
 10
3.2417244911193848
 20
4.339679718017578
 30
0.736953616142273
 11
3.267636299133301
 21
4.042930603027344
 31
0.736953616142273
 12
3.267636299133301
 22
4.042930603027344
 32
0.03917044401168823
 13
3.2417244911193848
 23
4.339679718017578
 33
0.03917044401168823
  0
3DFACE
  8
0
 10
3.267636299133301
 20
4.042930603027344
 30
0.736953616142273
 11
3.267636299133301
 21
3.5332794189453125
 31
0.736953616142273
 12
3.267636299133301
 22
3.5332794189453125
 32
0.03917044401168823
 13
3.267636299133301
 23
4.042930603027344
 33
0.03917044401168823
  0
3DFACE
  8
0
 10
3.2573306560516357
 20
4.041845321655273
 30
0.7382934093475342
 11
3.2573306560516357
 21
4.041845321655273
 31
0.044718384742736816
 12
3.2573306560516357
 22
3.5352678298950195
 32
0.044718384742736816
 13
3.2573306560516357
 23
3.5352678298950195
 33
0.7382934093475342
  0
3DFACE
  8
0
 10
3.2315750122070312
 20
4.3368048667907715
 30
0.738293468952179
 11
3.2315750122070312
 21
4.3368048667907715
 31
0.044718384742736816
 12
3.2573306560516357
 22
4.041845321655273
 32
0.044718384742736816
 13
3.2573306560516357
 23
4.041845321655273
 33
0.7382934093475342
  0
3DFACE
  8
0
 10
3.1549911499023438
 20
4.622811317443848
 30
0.738293468952179
 11
3.1549911499023438
 21
4.622811317443848
 31
0.04471844434738159
 12
3.2315750122070312
 22
4.3368048667907715
 32
0.044718384742736816
 13
3.2315750122070312
 23
4.3368048667907715
 33
0.738293468952179
  0
3DFACE
  8
0
 10
3.0299065113067627
 20
4.891173362731934
 30
0.7382935285568237
 11
3.0299065113067627
 21
4.891173362731934
 31
0.04471844434738159
 12
3.1549911499023438
 22
4.622811317443848
 32
0.04471844434738159
 13
3.1549911499023438
 23
4.622811317443848
 33
0.738293468952179
  0
3DFACE
  8
0
 10
2.860121488571167
 20
5.1337385177612305
 30
0.7382935285568237
 11
2.860121488571167
 21
5.1337385177612305
 31
0.04471850395202637
 12
3.0299065113067627
 22
4.891173362731934
 32
0.04471844434738159
 13
3.0299065113067627
 23
4.891173362731934
 33
0.7382935285568237
  0
3DFACE
  8
0
 10
2.6507949829101562
 20
5.343135356903076
 30
0.7382935285568237
 11
2.6507949829101562
 21
5.343135356903076
 31
0.04471850395202637
 12
2.860121488571167
 22
5.1337385177612305
 32
0.04471850395202637
 13
2.860121488571167
 23
5.1337385177612305
 33
0.7382935285568237
  0
3DFACE
  8
0
 10
2.4082870483398438
 20
5.513001918792725
 30
0.7382935285568237
 11
2.4082870483398438
 21
5.513001918792725
 31
0.04471850395202637
 12
2.6507949829101562
 22
5.343135356903076
 32
0.04471850395202637
 13
2.6507949829101562
 23
5.343135356903076
 33
0.7382935285568237
  0
3DFACE
  8
0
 10
2.1399664878845215
 20
5.638176918029785
 30
0.7382935285568237
 11
2.1399664878845215
 21
5.638176918029785
 31
0.04471850395202637
 12
2.4082870483398438
 22
5.513001918792725
 32
0.04471850395202637
 13
2.4082870483398438
 23
5.513001918792725
 33
0.7382935285568237
  0
3DFACE
  8
0
 10
1.8539857864379883
 20
5.714856147766113
 30
0.7382935285568237
 11
1.8539857864379883
 21
5.714856147766113
 31
0.04471850395202637
 12
2.1399664878845215
 22
5.638176918029785
 32
0.04471850395202637
 13
2.1399664878845215
 23
5.638176918029785
 33
0.7382935285568237
  0
3DFACE
  8
0
 10
1.5590345859527588
 20
5.740711212158203
 30
0.7382935285568237
 11
1.5590345859527588
 21
5.740711212158203
 31
0.04471850395202637
 12
1.8539857864379883
 22
5.714856147766113
 32
0.04471850395202637
 13
1.8539857864379883
 23
5.714856147766113
 33
0.7382935285568237
  0
3DFACE
  8
0
 10
3.267636299133301
 20
3.5332794189453125
 30
0.736953616142273
 11
3.2573306560516357
 21
3.5352678298950195
 31
0.7382934093475342
 12
3.2573306560516357
 22
3.5352678298950195
 32
0.044718384742736816
 13
3.267636299133301
 23
3.5332794189453125
 33
0.03917044401168823
  0
3DFACE
  8
0
 10
1.5590362548828125
 20
5.752103805541992
 30
0.7369537353515625
 11
1.5590362548828125
 21
5.752103805541992
 31
0.03917056322097778
 12
1.5590345859527588
 22
5.740711212158203
 32
0.04471850395202637
 13
1.5590345859527588
 23
5.740711212158203
 33
0.7382935285568237
  0
ENDSEC
  0
EOF
